<svg width="144" height="47" viewBox="0 0 144 47" fill="none" xmlns="http://www.w3.org/2000/svg">
<g clip-path="url(#clip0_2_41)">
<path d="M116.192 12.3391C116.771 12.2902 117.245 12.2187 117.72 12.215C119.329 12.2012 120.03 12.9044 120.095 14.5013C120.103 14.6743 120.331 14.8848 120.509 14.9964C121.282 15.4852 122.097 15.9114 122.852 16.4266C123.382 16.7888 123.48 17.1373 123.442 17.8806C123.239 17.7502 123.087 17.6337 122.919 17.5459C121.977 17.0571 121.033 16.572 120.085 16.0944C119.704 15.9026 119.443 15.9816 119.126 16.3326C118.27 17.2827 117.796 18.3895 117.593 19.6392C117.539 19.648 117.486 19.6568 117.432 19.6668C117.259 19.2657 117.087 18.8646 116.9 18.4309C116.411 18.5362 116.21 18.7919 116.169 19.3584C116.075 20.7184 116.233 21.8278 117.492 22.7465C118.581 23.5425 119.248 24.806 119.66 26.1296C119.789 26.542 119.86 26.987 119.868 27.4194C119.888 28.4047 119.4 29.0301 118.453 29.3072C117.664 29.539 116.88 29.4826 116.116 29.1981C114.14 28.4636 112.369 25.8213 112.487 23.713C112.517 23.1677 112.739 22.6325 112.874 22.086C112.507 21.9481 112.127 22.5397 111.735 23.8609C111.287 23.53 111.181 23.0825 111.208 22.6112C111.236 22.1311 111.095 21.8954 110.584 21.9681C109.807 22.0784 109.174 21.9117 108.728 21.1709C108.491 20.7774 108.013 20.9716 107.516 21.6184C107.536 21.6498 107.554 21.7062 107.578 21.7074C108.654 21.7864 109.042 22.467 109.205 23.4385C109.551 25.5004 109.161 27.3806 107.956 29.0891C107.859 29.2257 107.754 29.3548 107.643 29.4814C107.606 29.5253 107.543 29.5478 107.584 29.5215C106.949 29.2194 106.397 28.8672 105.795 28.6917C105.065 28.4799 104.314 28.5814 103.779 29.2019C103.232 29.8336 103.344 30.5706 103.622 31.2751C104.364 33.1578 106.733 33.9775 108.766 33.07C109.008 32.9622 109.245 32.8432 109.683 32.6351C109.099 33.5626 109.719 33.8973 110.198 34.2658C113.3 36.6549 116.705 37.3393 120.454 36.062C120.897 35.9104 121.106 35.7449 121.027 35.1846C120.817 33.7005 121.379 32.3982 122.194 31.1911C122.972 30.0379 122.968 29.3234 122.202 28.1452C121.987 27.8143 121.775 27.4746 121.614 27.1149C121.242 26.2763 121.352 25.4854 121.938 24.7721C122.071 24.6117 122.219 24.4638 122.362 24.3109C123.016 23.6102 122.943 23.6603 122.399 22.8619C121.809 21.9945 121.242 21.0669 120.901 20.0829C120.516 18.9749 120.872 18.56 121.973 18.382C121.477 17.8468 120.778 17.6613 120.189 17.9157C119.551 18.1927 119.346 18.748 119.443 19.3584C119.541 19.9651 119.771 20.5542 119.986 21.1358C120.038 21.2762 120.246 21.4016 120.406 21.4505C121.291 21.7187 121.632 22.1135 121.638 22.9308C121.645 23.7506 121.22 24.2833 120.366 24.5252C120.89 23.3031 120.899 22.6889 120.323 22.5159C119.337 22.2188 119.388 23.2128 118.936 23.8082C118.685 23.3407 118.475 22.9458 118.264 22.5523C118.308 22.5159 118.35 22.4796 118.394 22.442C118.541 22.5134 118.688 22.5848 118.842 22.6601C119.179 22.2276 119.129 21.839 118.909 21.3765C118.528 20.5718 118.364 19.7119 118.584 18.8169C118.922 17.4319 120.103 16.7688 121.41 17.3466C122.117 17.66 122.729 18.1877 123.399 18.6302C124.536 17.7001 124.702 16.918 123.977 15.7046C122.074 12.5171 123.274 9.66293 126.897 8.81559C129.682 8.16504 132.382 8.59874 134.999 9.61655C138.321 10.9076 140.999 13.0485 143.042 15.9641C143.372 16.4354 143.643 16.9769 143.811 17.5259C144.396 19.4299 143.63 20.8388 141.682 21.2462C140.644 21.463 140.113 21.9456 139.916 22.9596C139.726 23.9461 139.078 24.5265 138.069 24.648C137.635 24.7007 137.195 24.6969 136.758 24.7182C136.027 24.7546 135.746 25.1056 135.894 25.8263C135.957 26.1321 136.077 26.4254 136.138 26.7313C136.336 27.7153 135.89 28.2655 134.894 28.2843C134.248 28.2969 133.888 28.6294 133.816 29.2821C133.69 30.4089 133.011 30.7837 131.976 30.2949C131.749 30.1883 131.534 30.0379 131.297 29.979C131.143 29.9414 130.884 29.9765 130.806 30.0805C130.726 30.1883 130.736 30.4842 130.829 30.5807C131.173 30.9379 131.551 31.2738 131.958 31.5559C132.053 31.6223 132.342 31.4869 132.497 31.3804C136.22 28.8108 139.668 25.9667 141.933 21.9393C141.942 21.9243 141.968 21.9193 142.127 21.8353C142.127 22.2677 142.234 22.6751 142.107 22.9885C141.734 23.9072 141.38 24.8674 140.815 25.6671C139.29 27.8205 137.24 29.4551 135.151 31.0294C134.467 31.5446 133.74 32.0033 133.067 32.5311C132.876 32.6815 132.703 32.981 132.691 33.2192C132.616 34.8061 131.187 35.6584 129.818 34.865C129.432 34.6419 129.111 34.6243 128.705 34.7271C127.792 34.9577 127.523 34.8913 127.042 34.4288C127.531 34.2032 128.017 33.9788 128.589 33.7143C128.322 33.2556 128.168 32.7868 127.848 32.5047C127.576 32.2653 127.063 32.0735 126.751 32.1688C126.44 32.2641 126.163 32.7115 126.027 33.0638C125.918 33.3458 126.045 33.7168 126.065 34.049C126.099 34.6093 126.187 35.1733 126.149 35.7286C126.089 36.6474 125.76 37.4709 124.836 37.842C123.867 38.2318 122.927 38.035 122.123 37.402C121.77 37.1237 121.513 37.0723 121.077 37.219C116.543 38.7432 112.438 37.9573 108.808 34.8299C108.468 34.5378 108.217 34.4526 107.769 34.5892C104.727 35.5155 101.911 33.3019 102.043 30.1194C102.103 28.6679 103.053 27.5247 104.48 27.264C104.898 27.1876 105.015 27.0396 105.012 26.6197C105.009 25.8915 105.297 25.0955 105.084 24.4538C104.874 23.8258 104.087 23.4146 103.745 22.8004C103.328 22.0509 102.779 21.9356 102.014 21.9506C99.8632 21.9932 97.711 21.9531 95.56 21.9744C95.0662 21.9794 94.8568 21.8641 94.8581 21.3214C94.8731 14.5539 94.8719 7.7865 94.8581 1.01907C94.8581 0.482585 95.0662 0.345958 95.5613 0.352225C97.3788 0.37228 99.1963 0.374787 101.013 0.350971C101.483 0.344704 101.786 0.513921 102.069 0.871157C103.641 2.85037 105.23 4.81454 106.815 6.78247C106.978 6.98554 107.152 7.17982 107.448 7.52703C107.448 7.08707 107.453 6.85016 107.448 6.61326C107.406 4.71427 107.373 2.81527 107.312 0.917535C107.299 0.475064 107.459 0.33969 107.888 0.342197C110.436 0.359746 112.984 0.367266 115.531 0.350971C116.057 0.347211 116.205 0.530216 116.202 1.04163C116.183 4.53001 116.192 8.01839 116.192 11.5068C116.192 11.7537 116.192 11.9994 116.192 12.3353V12.3391ZM125.335 16.8415C125.88 17.8355 125.262 18.4509 124.454 18.9874C124.367 19.0451 124.293 19.1215 124.217 19.1917C123.443 19.9112 123.32 20.4402 123.681 21.4342C123.846 21.8842 124.01 22.3354 124.15 22.7929C124.342 23.4197 124.143 23.9323 123.661 24.3648C122.176 25.7022 122.074 26.3828 123.142 28.0963C123.768 29.1003 123.783 30.0655 123.19 31.1021C122.779 31.8203 122.414 32.5849 122.172 33.3734C121.894 34.2784 121.98 35.2034 122.602 35.9906C123.398 36.9971 124.761 36.8104 125.176 35.602C125.354 35.0856 125.34 34.499 125.38 33.9424C125.41 33.5276 125.341 33.1039 125.395 32.694C125.524 31.7138 126.36 31.0457 127.253 31.3114C127.754 31.4619 128.223 31.8404 128.613 32.2127C129.045 32.6263 129.347 33.1716 129.748 33.6216C130.1 34.0164 130.557 34.0402 130.999 33.7619C131.423 33.495 131.582 33.0688 131.393 32.6213C131.218 32.2102 130.92 31.8517 130.676 31.4706C130.431 31.0883 130.102 30.7361 129.957 30.3187C129.673 29.4989 130.256 28.9073 131.106 29.084C131.35 29.1342 131.589 29.2207 131.836 29.257C132.605 29.3711 132.881 29.1404 133.219 28.4322C133.377 28.1026 133.73 27.7591 134.071 27.6438C135.312 27.2264 135.415 27.1199 135.223 25.8025C135.094 24.915 135.394 24.3372 136.23 24.0201C136.734 23.8295 137.309 23.807 137.788 23.5763C138.311 23.3244 139.026 23.0148 139.185 22.5623C139.544 21.5432 140.231 21.092 141.141 20.7172C142.581 20.1243 143.022 18.9059 142.374 17.4858C142.229 17.1649 142.038 16.859 141.829 16.5745C139.277 13.0936 135.822 11.0342 131.632 10.1681C129.979 9.82588 128.315 9.74941 126.685 10.3122C125.194 10.8274 124.485 11.8665 124.606 13.3443C124.712 14.6216 125.496 15.3699 126.623 15.8149C127.039 15.9791 127.479 16.0831 127.909 16.2148C127.914 16.2925 127.918 16.3689 127.923 16.4467C127.082 16.5758 126.241 16.7036 125.335 16.8415ZM117.627 28.7055C117.657 28.6328 117.687 28.5588 117.717 28.4861C117.577 28.3696 117.433 28.2568 117.299 28.1339C116.246 27.1788 115.386 26.087 115.044 24.6794C114.738 23.4197 115.357 22.7415 116.633 22.8481C116.301 22.5786 115.961 22.3041 115.575 22.1399C114.465 21.6686 113.482 22.294 113.428 23.4974C113.413 23.8446 113.447 24.2131 113.548 24.544C113.997 26.008 114.855 27.1976 116.133 28.0399C116.583 28.3357 117.127 28.4874 117.628 28.7055H117.627ZM105.915 21.9005C106.28 21.0268 106.648 20.2797 106.886 19.4926C106.965 19.2331 106.802 18.7417 106.584 18.5813C105.79 17.9959 104.569 18.6352 104.559 19.6217C104.55 20.563 104.999 21.28 105.916 21.9017L105.915 21.9005ZM103.755 18.3369C104.525 18.0837 105.182 17.8681 105.915 17.6274C105.17 16.6999 104.445 15.7949 103.719 14.8899C103.67 14.9212 103.621 14.9525 103.572 14.9839C103.632 16.0907 103.694 17.1987 103.755 18.3369ZM118.548 14.48C118.792 14.0576 118.67 13.496 118.104 13.3832C117.573 13.2779 116.999 13.3732 116.449 13.4246C116.355 13.4333 116.211 13.6652 116.221 13.7843C116.228 13.8833 116.415 14.0187 116.543 14.0488C117.192 14.2042 117.848 14.3321 118.55 14.4787L118.548 14.48ZM122.67 20.5492C122.67 19.7934 122.136 19.0676 121.707 19.1491C121.515 19.1855 121.267 19.5063 121.241 19.7219C121.176 20.2659 121.759 20.9992 122.185 20.9328C122.398 20.8989 122.575 20.6307 122.67 20.5492ZM116.903 25.1193C116.905 24.3648 116.38 23.6515 115.943 23.7255C115.751 23.7581 115.494 24.0702 115.466 24.282C115.395 24.831 115.961 25.543 116.404 25.4841C116.617 25.4553 116.801 25.1983 116.903 25.1193Z" fill="#ED1940"/>
<path d="M34.6732 9.78201C34.8035 9.02242 34.5754 8.5273 33.876 8.3117C33.2054 8.10614 32.4946 7.97452 31.794 7.93692C29.0978 7.79277 26.463 8.17257 23.8896 8.98231C23.7104 9.03871 23.5286 9.0876 23.3469 9.13272C23.2892 9.14651 23.2241 9.13523 23.1012 9.13523C23.0874 8.9259 23.0611 8.72535 23.0611 8.52354C23.0586 6.39266 23.0812 4.26303 23.0473 2.1334C23.0385 1.55932 23.2441 1.34623 23.7818 1.21211C28.2855 0.0852459 32.8256 -0.381041 37.4345 0.436215C39.2696 0.762114 40.9881 1.38383 42.3707 2.70372C44.0039 4.26052 44.6946 6.2623 44.8688 8.43204C45.013 10.2395 44.9779 12.0608 45.0067 13.8771C45.0255 15.0691 45.2223 15.296 46.3855 15.2521C46.7615 15.2383 46.8618 15.3674 46.8606 15.7084C46.853 17.5046 46.8706 19.3008 46.838 21.097C46.8342 21.295 46.6036 21.6122 46.4168 21.6673C43.658 22.4833 40.8577 22.8932 38.0387 22.0358C37.3067 21.8127 36.621 21.3326 36.0106 20.8501C35.6245 20.5442 35.4215 20.5116 35.0154 20.7786C32.1788 22.6375 29.084 22.9521 25.8889 22.0383C22.8067 21.1572 21.2323 18.3745 21.7801 15.1468C22.2539 12.3504 24.0488 10.8437 26.6272 10.0816C28.9323 9.39971 31.2863 9.45987 33.6466 9.66168C33.9775 9.69051 34.3059 9.7394 34.6732 9.78327V9.78201ZM34.9088 15.3173C34.7672 14.0626 34.3485 13.7492 33.1978 14.1014C32.7215 14.2468 32.4044 14.5602 32.3292 15.0653C32.254 15.563 32.3204 16.0405 32.7579 16.3589C33.2781 16.7387 33.9136 16.7763 34.4012 16.4416C34.6907 16.2423 34.7484 15.7046 34.9088 15.3185V15.3173Z" fill="#ED1940"/>
<path d="M17.2188 34.4827C17.5321 34.6281 17.8154 34.7547 18.0937 34.89C19.5953 35.6183 20.5028 36.7966 20.726 38.4586C21.003 40.5281 20.7799 42.4772 19.1729 44.0177C18.2215 44.9303 17.0333 45.4216 15.7623 45.6209C14.4875 45.8202 13.1914 45.9556 11.9028 45.9719C8.2064 46.017 4.50743 45.9744 0.810981 46.0007C0.206813 46.0045 0.0338358 45.829 0.0363427 45.2248C0.056398 38.5401 0.056398 31.8554 0.0363427 25.1707C0.0350892 24.564 0.155421 24.3497 0.819755 24.356C4.85088 24.3923 8.88452 24.3184 12.9144 24.4124C14.2481 24.4437 15.6206 24.7132 16.8891 25.1331C18.8784 25.7924 19.8598 27.3342 19.9425 29.4275C19.9588 29.8436 19.9551 30.2635 19.9237 30.6797C19.8109 32.1625 19.1265 33.2919 17.8142 34.0227C17.65 34.1142 17.4895 34.2094 17.3303 34.3097C17.299 34.3298 17.2852 34.3774 17.2188 34.4827ZM10.1367 39.771C10.3247 39.771 10.5128 39.7735 10.6995 39.771C11.587 39.7535 11.9593 39.4025 11.9593 38.5852C11.9593 37.7692 11.5782 37.407 10.7045 37.3894C10.5165 37.3857 10.3285 37.3857 10.1417 37.3869C8.79427 37.3995 8.92087 37.2328 8.92337 38.5777C8.92588 39.8851 8.7529 39.766 10.138 39.771H10.1367ZM8.92463 31.6398C8.92463 31.8893 8.87825 32.1512 8.94092 32.3831C8.98229 32.5323 9.17532 32.7341 9.31571 32.7466C9.78952 32.788 10.2721 32.7892 10.7459 32.7441C11.3338 32.6877 11.6948 32.229 11.6948 31.6248C11.6948 31.0219 11.3325 30.5919 10.7359 30.5142C10.5103 30.4854 10.2796 30.4942 10.0515 30.4942C8.79051 30.4992 8.92964 30.3939 8.92463 31.6398Z" fill="#ED1940"/>
<path d="M44.6545 46.0083C44.1883 46.0083 43.9225 46.0083 43.658 46.0083C40.9644 46.0083 38.2707 45.992 35.577 46.0195C35.0455 46.0246 34.7535 45.8403 34.4815 45.3991C33.5489 43.8899 32.5775 42.4046 31.606 40.9192C31.492 40.7462 31.2851 40.6347 31.1209 40.4943C31.057 40.6961 30.9379 40.8967 30.9367 41.0985C30.9204 42.5186 30.9141 43.9388 30.9342 45.3577C30.9404 45.8328 30.8051 46.0208 30.2949 46.017C27.7479 45.9957 25.1996 45.9995 22.6526 46.0145C22.2201 46.017 22.0735 45.8792 22.0747 45.4417C22.086 38.5928 22.0822 31.7439 22.0847 24.895C22.0847 24.7533 22.1148 24.6117 22.1361 24.4274C22.3342 24.4111 22.5159 24.3848 22.6964 24.3848C26.3503 24.3836 30.0054 24.366 33.6592 24.3936C35.211 24.4049 36.7364 24.6531 38.1879 25.2447C40.5971 26.2262 42.0787 27.971 42.555 30.5506C42.8295 32.0322 42.7794 33.5037 42.4297 34.9615C42.0925 36.3629 41.3981 37.5625 40.2549 38.4587C39.8876 38.747 39.8851 38.9601 40.1396 39.3273C41.4808 41.2689 42.7969 43.2256 44.1206 45.1797C44.2697 45.3991 44.4089 45.6247 44.6558 46.0095L44.6545 46.0083ZM32.0761 31.2387C30.7737 31.2563 30.9367 31.1736 30.9241 32.3907C30.9241 32.4533 30.9241 32.516 30.9241 32.5787C30.9241 34.3849 30.9993 34.4489 32.8169 34.1831C33.584 34.0703 34.0277 33.5589 34.0415 32.7717C34.0553 31.977 33.6366 31.4318 32.8846 31.2977C32.6201 31.25 32.3456 31.2575 32.0748 31.24L32.0761 31.2387Z" fill="#ED1940"/>
<path d="M70.7716 21.9695C70.3855 21.9695 70.1787 21.9695 69.9719 21.9695C67.2155 21.9695 64.4592 21.9544 61.7041 21.9832C61.1726 21.9883 60.8743 21.8028 60.6048 21.3665C59.6823 19.8762 58.7296 18.4046 57.7707 16.9368C57.6479 16.7488 57.4223 16.6272 57.243 16.4755C57.1778 16.6962 57.0575 16.9168 57.055 17.1386C57.0374 18.5588 57.0324 19.9777 57.0537 21.3979C57.06 21.8303 56.9246 21.9807 56.4834 21.9782C53.9151 21.9619 51.3467 21.9632 48.7784 21.9782C48.356 21.9807 48.188 21.8617 48.1893 21.4142C48.2006 14.5866 48.2006 7.75898 48.1905 0.931385C48.1905 0.481393 48.3748 0.358553 48.7897 0.36106C52.5275 0.374848 56.2641 0.3573 60.0019 0.38989C61.773 0.404931 63.4903 0.740859 65.0809 1.5694C66.9285 2.53205 68.1168 4.02492 68.5856 6.05804C69.013 7.90564 68.9641 9.74572 68.3725 11.5582C68.0002 12.6976 67.3609 13.6716 66.4158 14.4086C66.021 14.7169 66.0172 14.9375 66.2867 15.3261C67.6279 17.2665 68.9441 19.2244 70.2677 21.176C70.4156 21.3941 70.5497 21.6197 70.7729 21.9732L70.7716 21.9695ZM57.045 8.71161C57.0863 10.4113 56.7241 10.1857 58.5917 10.1832C59.5945 10.1832 60.1698 9.63165 60.1924 8.73292C60.215 7.84923 59.6409 7.29144 58.6444 7.23002C57.5781 7.16484 57.045 7.65871 57.045 8.71161Z" fill="#ED1940"/>
<path d="M55.7038 46.4671C53.9138 46.4633 52.1615 46.2352 50.4881 45.5733C47.5964 44.4289 45.6147 42.3896 44.6508 39.4314C43.7031 36.5221 43.7207 33.5878 44.7661 30.7036C45.8967 27.5824 48.1216 25.5644 51.2816 24.6142C54.3425 23.6942 57.4436 23.6817 60.4669 24.7095C64.7901 26.1773 66.9711 29.3849 67.455 33.8309C67.6818 35.9179 67.4725 37.9724 66.6791 39.9228C64.9994 44.0479 61.7041 45.913 57.4536 46.3894C57.0186 46.4382 56.5787 46.4432 56.14 46.4646C55.9946 46.4721 55.8479 46.4646 55.7025 46.4671H55.7038ZM53.2432 35.2248C53.4049 35.9305 53.4927 36.6424 53.7358 37.2955C54.083 38.2256 54.8564 38.5916 55.8279 38.564C56.7767 38.5364 57.4849 38.1178 57.8183 37.2178C58.3059 35.9004 58.2984 34.5554 57.8221 33.2368C57.5025 32.3519 56.7441 31.8806 55.7702 31.8768C54.8276 31.8743 54.0718 32.2453 53.7383 33.1503C53.4964 33.8046 53.4062 34.5166 53.2432 35.2248Z" fill="#ED1940"/>
<path d="M81.7219 22.5723C79.8254 22.4971 77.9665 22.2565 76.2179 21.4868C72.4199 19.8172 70.5498 16.7688 70.1261 12.7577C69.923 10.8362 70.0521 8.91839 70.6939 7.06703C72.0063 3.28033 74.7363 1.12563 78.5807 0.337204C81.1102 -0.181728 83.6509 -0.114041 86.1428 0.622993C90.4685 1.90278 93.1923 5.40745 93.5345 10.1029C93.6911 12.2576 93.473 14.3672 92.5768 16.3552C90.9749 19.91 88.0882 21.7288 84.3378 22.3216C83.4742 22.4583 82.5943 22.4909 81.7219 22.5723ZM84.2213 11.4892C84.1862 10.9528 84.1837 10.5542 84.131 10.1631C83.943 8.76422 83.1157 7.95824 81.8647 7.93067C80.5762 7.90184 79.7176 8.61004 79.5358 10.0503C79.4255 10.9239 79.4481 11.8427 79.5847 12.7139C79.7802 13.956 80.5762 14.5853 81.7118 14.6116C82.9177 14.6392 83.6798 14.0751 84.0182 12.8342C84.1486 12.3566 84.1686 11.849 84.22 11.4905L84.2213 11.4892Z" fill="#ED1940"/>
<path d="M17.0921 10.4276C17.3015 10.5391 17.4005 10.6056 17.5083 10.6482C20.0879 11.6622 21.0042 13.6402 20.751 16.4254C20.4965 19.2193 18.9021 20.9867 16.0706 21.5508C14.7494 21.814 13.3832 21.9494 12.0357 21.9694C8.27781 22.0246 4.51868 21.9757 0.76081 22.0033C0.136587 22.0083 0.0024671 21.7965 0.00372056 21.2136C0.0225225 14.5314 0.0250294 7.84921 -3.982e-05 1.16826C-0.00254674 0.508944 0.216809 0.36981 0.824737 0.374824C4.60392 0.398639 8.3831 0.386105 12.1623 0.389865C13.6928 0.391119 15.2094 0.498916 16.6635 1.03414C19.6291 2.12716 20.9678 5.85119 19.3007 8.55616C18.9347 9.14904 18.2792 9.56645 17.7402 10.0465C17.5797 10.1894 17.3654 10.2709 17.0921 10.4288V10.4276ZM10.1442 13.4171C9.99881 13.4171 9.85216 13.4171 9.70675 13.4171C9.16944 13.4196 8.89994 13.6974 8.89827 14.2506C8.89577 15.3111 9.47027 15.8266 10.6218 15.7974C11.5255 15.7748 11.9492 15.3825 11.9404 14.5778C11.9316 13.7944 11.528 13.4321 10.6443 13.4171C10.4776 13.4146 10.3109 13.4171 10.1442 13.4171ZM8.89827 7.65116C8.91707 8.92593 8.72028 8.78679 10.0778 8.79933C10.2232 8.80058 10.3698 8.80434 10.514 8.79306C11.2448 8.73666 11.691 8.26159 11.6596 7.58097C11.6283 6.91914 11.1984 6.53683 10.4538 6.51427C10.3084 6.50926 10.163 6.51176 10.0176 6.51427C8.73658 6.53182 8.91708 6.35884 8.89953 7.65241L8.89827 7.65116Z" fill="#ED1940"/>
<path d="M87.2747 32.9334C86.6104 32.6602 86.0801 32.4258 85.5399 32.2202C83.577 31.4731 81.5589 30.9617 79.4519 30.8752C79.0006 30.8564 78.3927 30.7938 78.3112 31.3691C78.2222 31.9996 78.859 32.061 79.3127 32.1676C80.7542 32.506 82.2233 32.7454 83.6384 33.1653C85.7116 33.7808 87.4414 34.9151 88.0117 37.1526C88.8365 40.3915 88.0857 44.4866 83.2599 45.8879C80.2716 46.7553 77.2232 46.7591 74.2024 46.1775C72.5992 45.8691 71.0537 45.2474 69.4994 44.7172C69.2775 44.642 69.0093 44.2835 69.0055 44.0516C68.9692 41.8593 68.9842 39.667 68.9867 37.4735C68.9867 37.392 69.0105 37.3105 69.0394 37.125C69.3089 37.2566 69.542 37.3632 69.7676 37.4835C71.7393 38.5314 73.8175 39.2621 76.0299 39.5868C76.421 39.6444 76.8196 39.6658 77.2157 39.672C77.6193 39.6783 78.0931 39.6582 78.1646 39.1644C78.2448 38.6154 77.7421 38.5063 77.3435 38.401C76.6178 38.2092 75.8707 38.0889 75.1562 37.8658C74.2425 37.5813 73.3199 37.2905 72.4563 36.8843C69.9093 35.6873 68.647 33.6491 68.7511 30.8264C68.8589 27.9158 70.2627 25.8426 73.0229 24.8862C74.3039 24.4425 75.6952 24.1918 77.0527 24.1128C80.2428 23.9273 83.3852 24.2758 86.4286 25.3462C87.0929 25.5794 87.3123 25.9078 87.2922 26.6097C87.2383 28.4247 87.2747 30.2422 87.2747 32.0598C87.2747 32.3079 87.2747 32.5561 87.2747 32.9297V32.9334Z" fill="#ED1940"/>
<path d="M93.2524 38.5013C96.9764 38.5013 98.1246 41.6475 97.1644 44.2209C96.5226 45.9419 94.5384 46.8632 92.4201 46.4934C90.1726 46.1011 88.958 44.4202 89.1636 41.9872C89.3403 39.899 90.9686 38.5114 93.2524 38.5026V38.5013Z" fill="#ED1940"/>
<path d="M111.026 27.6626C111.297 28.1577 111.564 28.6466 111.857 29.1831C111.964 29.054 112.032 29.0001 112.061 28.9299C112.281 28.3959 112.646 28.0587 113.251 28.1026C113.857 28.1452 114.209 28.5601 114.338 29.0853C114.521 29.8299 114.664 30.5957 114.702 31.3591C114.738 32.0974 115.084 32.4421 115.751 32.6063C117.237 32.9735 118.69 32.8344 120.125 32.3556C120.333 32.2866 120.543 32.2177 120.834 32.2653C120.686 32.4158 120.56 32.5962 120.389 32.7103C117.202 34.8149 112.074 33.0826 110.812 29.4801C110.535 28.6905 110.59 28.1916 111.025 27.6614L111.026 27.6626Z" fill="#ED1940"/>
<path d="M107.394 31.334C106.441 30.4265 105.519 30.4905 104.57 31.2049C104.432 30.6509 104.569 30.2761 104.94 30.0267C105.495 29.6519 106.113 29.5729 106.715 29.8951C107.203 30.157 107.477 30.582 107.394 31.334Z" fill="#ED1940"/>
<path d="M129.565 22.63C129.538 23.0838 129.465 23.54 129.492 23.99C129.564 25.1432 130.517 25.711 131.587 25.2673C132.931 24.712 134.179 22.6764 134.078 21.2098C133.997 20.0604 133.614 19.7094 132.375 19.6593C133.072 18.7656 134.464 18.926 134.985 19.9752C135.385 20.7786 135.389 21.6398 135.182 22.4846C134.837 23.8922 134.051 25.0379 132.886 25.8915C132.507 26.1685 132.053 26.3829 131.601 26.5095C130.055 26.9419 128.734 25.8965 128.857 24.3034C128.902 23.7143 129.193 23.1439 129.372 22.5661C129.436 22.5874 129.501 22.6087 129.565 22.63Z" fill="#ED1940"/>
<path d="M124.714 27.7591C124.714 28.0499 124.704 28.342 124.717 28.6315C124.751 29.4338 125.256 29.8424 126.044 29.7145C127.388 29.4964 128.421 27.5837 127.881 26.3314C127.644 25.7824 127.236 25.5568 126.524 25.6934C127.53 25.0191 128.392 25.2597 128.788 26.2011C129.653 28.2568 127.764 30.8727 125.54 30.706C124.909 30.6584 124.465 30.3463 124.276 29.7521C124.045 29.0289 124.1 28.3332 124.714 27.7591Z" fill="#ED1940"/>
<path d="M127.35 18.2228C128.343 17.5297 129.271 17.8631 129.525 18.926C129.895 20.4765 128.47 22.8957 126.925 23.3394C126.142 23.5651 125.573 23.4084 125.191 22.8644C124.733 22.2138 124.778 21.2888 125.26 20.6658C125.308 21.0481 125.302 21.4956 125.433 21.8967C125.656 22.5811 126.282 22.8193 126.885 22.4344C127.903 21.7852 128.549 20.8526 128.655 19.628C128.737 18.6866 128.368 18.3018 127.35 18.2228Z" fill="#ED1940"/>
<path d="M140.376 19.6518C138.766 20.657 136.635 20.3863 135.518 19.0877C134.6 18.021 134.543 16.8252 135.435 15.7899C135.459 17.1235 135.959 18.1739 136.944 18.9599C137.938 19.752 139.104 19.8235 140.376 19.6518Z" fill="#ED1940"/>
<path d="M133.719 17.383C132.214 18.2855 130.3 18.0035 129.322 16.7939C128.555 15.8463 128.586 14.6981 129.491 13.6928C129.398 14.9337 129.837 15.8713 130.718 16.5958C131.593 17.3153 132.624 17.462 133.72 17.383H133.719Z" fill="#ED1940"/>
</g>
<defs>
<clipPath id="clip0_2_41">
<rect width="144" height="46.5823" fill="white"/>
</clipPath>
</defs>
</svg>
