<svg width="49" height="50" viewBox="0 0 49 50" fill="none" xmlns="http://www.w3.org/2000/svg">
<g filter="url(#filter0_b_117_3814)">
<path d="M7.49993 7.81801C8.43697 3.50024 12.6968 0.759624 17.0146 1.69667L40.4686 6.78667C44.7864 7.72371 47.527 11.9836 46.59 16.3013L41.5 39.7554C40.5629 44.0732 36.3031 46.8138 31.9853 45.8767L8.53127 40.7867C4.2135 39.8497 1.47288 35.5898 2.40993 31.272L7.49993 7.81801Z" fill="#FCB32A"/>
</g>
<g filter="url(#filter1_b_117_3814)">
<path d="M1.7132 18C1.7132 13.5817 5.29492 10 9.7132 10H33.7132C38.1315 10 41.7132 13.5817 41.7132 18V42C41.7132 46.4183 38.1315 50 33.7132 50H9.7132C5.29492 50 1.7132 46.4183 1.7132 42V18Z" fill="white" fill-opacity="0.45"/>
</g>
<path fill-rule="evenodd" clip-rule="evenodd" d="M13.2887 22.7761L13.3613 22.7061C15.2887 20.9257 16.5438 20.4537 17.8831 21.165C18.2683 21.3697 18.6295 21.6561 19.1205 22.1168L20.6269 23.5596C21.4589 24.3982 21.6481 25.2025 21.3772 26.1445L21.3398 26.2693L21.2984 26.3933L21.097 26.939C20.666 28.1628 20.846 28.8533 22.3795 30.2694C23.9742 31.742 24.7186 31.8624 26.1457 31.4018L26.4001 31.3201L26.7077 31.2279L26.8423 31.1934C27.9263 30.9262 28.842 31.1394 29.8132 32.0358L31.0269 33.1187L31.3842 33.4433C31.7803 33.8164 32.0421 34.112 32.2355 34.4245C33.0008 35.6611 32.4893 36.8197 30.5063 38.6446L30.3177 38.8211C30.0216 39.0847 29.745 39.2735 29.3386 39.4517C28.6565 39.7509 27.8506 39.8637 26.9142 39.7434C24.6067 39.447 21.6802 37.7653 17.9719 34.341C17.67 34.0622 17.3809 33.7889 17.1042 33.5208L16.5675 32.9916C11.5376 27.944 11.0939 24.8433 13.1552 22.8987L13.2887 22.7761ZM17.9064 22.9545C17.5806 22.6578 17.344 22.4769 17.1353 22.3661C16.6738 22.121 16.1755 22.2246 15.2533 22.9577L14.9635 23.1969C14.913 23.2399 14.8613 23.2847 14.8084 23.3311L14.4761 23.63L14.4462 23.6646L14.2209 23.8736C13.6766 24.3872 13.4187 25.014 13.6409 26.0919C14.0055 27.8608 15.6744 30.2603 19.0324 33.3611C22.5313 36.5921 25.1972 38.124 27.1208 38.3711C28.2422 38.5151 28.8142 38.2643 29.3975 37.7123L29.8424 37.2976C30.051 37.096 30.2292 36.9132 30.3797 36.7463L30.585 36.5074C31.1097 35.8619 31.1576 35.4746 30.9332 35.1121C30.8479 34.9741 30.7237 34.8228 30.5429 34.638L30.2977 34.3988L30.1525 34.2646L28.6213 32.8989C28.1096 32.463 27.7599 32.4012 27.229 32.532L27.0757 32.5727L26.4414 32.7716C24.6013 33.3206 23.2738 33.0544 21.3189 31.2492C19.2943 29.3796 19.0568 28.1311 19.7352 26.3335L19.7787 26.2179L19.8991 25.883L19.9582 25.6696C20.0631 25.205 19.9434 24.8811 19.4027 24.3816C19.3804 24.361 19.3555 24.3379 19.3285 24.3125L17.9064 22.9545Z" fill="#ED1940"/>
<defs>
<filter id="filter0_b_117_3814" x="-1.77374" y="-2.4873" width="52.5474" height="52.5479" filterUnits="userSpaceOnUse" color-interpolation-filters="sRGB">
<feFlood flood-opacity="0" result="BackgroundImageFix"/>
<feGaussianBlur in="BackgroundImageFix" stdDeviation="2"/>
<feComposite in2="SourceAlpha" operator="in" result="effect1_backgroundBlur_117_3814"/>
<feBlend mode="normal" in="SourceGraphic" in2="effect1_backgroundBlur_117_3814" result="shape"/>
</filter>
<filter id="filter1_b_117_3814" x="-2.2868" y="6" width="48" height="48" filterUnits="userSpaceOnUse" color-interpolation-filters="sRGB">
<feFlood flood-opacity="0" result="BackgroundImageFix"/>
<feGaussianBlur in="BackgroundImageFix" stdDeviation="2"/>
<feComposite in2="SourceAlpha" operator="in" result="effect1_backgroundBlur_117_3814"/>
<feBlend mode="normal" in="SourceGraphic" in2="effect1_backgroundBlur_117_3814" result="shape"/>
</filter>
</defs>
</svg>
