<?xml version="1.0" standalone="no"?>
<!DOCTYPE svg PUBLIC "-//W3C//DTD SVG 20010904//EN"
 "http://www.w3.org/TR/2001/REC-SVG-20010904/DTD/svg10.dtd">
<svg version="1.0" xmlns="http://www.w3.org/2000/svg"
 width="830.000000pt" height="456.000000pt" viewBox="0 0 830.000000 456.000000"
 preserveAspectRatio="xMidYMid meet">

<g transform="translate(0.000000,456.000000) scale(0.100000,-0.100000)"
fill="#000000" stroke="none">
<path d="M4115 4030 c-3 -5 -2 -10 4 -10 5 0 13 5 16 10 3 6 2 10 -4 10 -5 0
-13 -4 -16 -10z"/>
<path d="M3925 4020 c-3 -5 -2 -10 4 -10 5 0 13 5 16 10 3 6 2 10 -4 10 -5 0
-13 -4 -16 -10z"/>
<path d="M4227 4015 c-9 -8 -24 -15 -34 -16 -15 0 -14 -2 5 -9 30 -12 30 -45
0 -37 -15 4 -29 -1 -45 -19 -18 -20 -31 -25 -61 -22 -23 2 -36 8 -34 16 1 7
-8 12 -22 12 -32 0 -42 16 -19 29 17 10 17 10 -2 11 -20 1 -20 1 -1 12 15 8
21 8 24 0 4 -14 48 -16 56 -3 4 5 -2 7 -13 4 -10 -3 -22 0 -25 6 -9 13 -103
15 -110 2 -4 -5 0 -12 6 -14 7 -3 2 -6 -12 -6 -14 -1 -36 -4 -50 -7 -25 -5
-25 -5 -5 11 19 17 19 17 -15 10 -19 -4 -46 -8 -59 -10 -13 -1 -30 -10 -37
-20 -8 -10 -14 -15 -14 -11 0 5 -6 5 -13 0 -7 -5 -4 -1 6 9 17 15 17 17 2 17
-9 0 -30 -8 -47 -17 -29 -18 -30 -17 -48 5 -20 24 -35 29 -27 9 5 -13 -9 -16
-65 -19 -16 0 -29 -8 -31 -17 -4 -13 -5 -13 -6 2 0 10 -6 15 -11 12 -6 -4 -8
-11 -5 -16 8 -12 -6 -11 -25 1 -12 8 -12 10 -1 10 8 0 12 3 8 6 -3 3 -16 3
-28 -1 -22 -7 -22 -8 -5 -21 16 -12 14 -12 -20 -7 -22 3 -48 12 -59 20 -20 15
-19 15 3 8 12 -3 22 -2 22 4 0 5 8 12 18 15 9 3 -1 3 -22 0 -43 -6 -83 -34
-49 -34 10 -1 31 -11 47 -24 26 -22 28 -26 14 -40 -9 -9 -31 -17 -50 -18 -18
-1 -45 -11 -59 -21 -27 -20 -64 -20 -64 -1 0 20 38 61 54 59 9 -1 10 0 3 2 -8
3 -11 12 -7 21 4 11 -2 9 -18 -6 -17 -16 -27 -20 -32 -12 -5 8 -11 7 -23 -2
-12 -10 -16 -10 -19 0 -3 6 -12 12 -20 12 -13 0 -13 -3 -3 -15 10 -13 9 -15
-8 -15 -12 0 -24 -5 -28 -12 -5 -7 -10 -4 -15 10 -9 23 -29 30 -29 11 0 -5 5
-7 10 -4 6 3 10 2 10 -3 0 -6 -14 -15 -31 -21 -26 -9 -29 -8 -20 3 9 11 8 15
-5 20 -21 8 -34 -1 -28 -19 4 -9 -4 -16 -23 -21 -15 -4 -34 -11 -40 -17 -9 -6
-13 -6 -13 2 0 7 -10 11 -22 9 -15 -2 -22 -9 -20 -19 1 -11 -15 -29 -44 -48
-45 -29 -70 -32 -61 -7 3 7 -1 13 -9 13 -9 0 -12 -7 -9 -16 6 -19 -47 -46 -70
-37 -8 3 -14 0 -12 -7 1 -6 -9 -13 -23 -14 -22 -2 -23 -2 -5 6 15 7 16 10 4
10 -22 1 -31 -10 -19 -24 13 -16 -13 -28 -55 -27 -25 1 -26 0 -10 -7 19 -8 19
-8 -2 -19 -32 -17 -49 -16 -33 3 7 9 8 15 2 15 -5 0 -12 -7 -16 -15 -3 -8 -12
-15 -21 -15 -8 0 -15 -4 -15 -9 0 -5 -12 -12 -27 -16 -16 -4 -22 -10 -16 -12
8 -3 2 -13 -16 -29 -36 -30 -47 -64 -20 -57 11 3 19 9 19 14 0 5 5 9 11 9 6 0
8 -9 4 -20 -7 -23 13 -28 34 -7 10 10 16 7 31 -13 11 -14 20 -19 20 -12 0 6 6
12 13 12 8 0 20 12 28 28 23 44 56 60 43 20 -9 -30 -12 -45 -7 -36 3 4 13 2
23 -5 15 -9 22 -9 32 1 9 9 9 12 -1 12 -8 0 -4 10 10 25 13 13 30 25 38 25 7
0 2 -9 -13 -21 -14 -11 -23 -25 -20 -30 3 -6 9 -8 12 -5 3 3 11 1 18 -5 14
-11 64 -2 64 13 0 5 6 8 13 7 25 -3 38 1 32 11 -3 6 -17 8 -31 6 -26 -5 -27
-2 -14 29 8 18 9 18 10 -5 1 -14 4 -19 7 -12 4 10 8 10 19 1 8 -6 14 -8 14 -3
0 5 5 2 11 -6 10 -13 10 -13 6 0 -6 21 16 40 34 29 12 -7 11 -9 -1 -9 -11 0
-15 -11 -15 -40 0 -47 13 -53 22 -9 4 21 9 27 16 20 16 -16 40 -13 34 3 -4 10
-1 13 10 9 8 -3 19 0 24 8 6 10 9 11 9 1 0 -9 8 -8 28 5 15 10 29 20 32 23 10
10 61 30 56 21 -3 -5 3 -11 14 -14 21 -5 44 15 32 28 -4 5 -1 5 7 0 7 -4 16
-4 20 1 10 16 61 35 61 24 0 -6 -11 -15 -25 -20 -14 -5 -25 -14 -25 -20 0 -6
-12 -22 -27 -35 -28 -25 -18 -33 18 -15 13 7 19 7 19 0 0 -5 5 -10 11 -10 6 0
8 9 4 23 -4 15 -4 18 3 8 5 -7 15 -12 22 -9 9 3 7 9 -6 23 -18 18 -18 18 9 11
19 -4 26 -3 22 4 -3 5 0 10 9 10 8 0 16 -5 18 -12 3 -7 11 -4 24 9 10 11 35
26 54 33 19 7 43 22 53 32 12 12 26 17 38 13 10 -4 19 -2 19 3 0 20 44 21 65
2 29 -27 89 -32 104 -8 6 10 7 18 2 18 -6 0 -13 -4 -16 -10 -11 -17 -60 -11
-84 11 -21 20 -21 22 -5 40 9 10 23 19 30 19 7 0 17 8 23 17 8 14 12 15 25 4
9 -7 16 -9 16 -3 0 15 40 22 61 9 13 -8 24 -8 41 0 13 6 31 14 41 17 9 3 17
13 17 22 0 14 4 13 20 -6 11 -12 18 -25 16 -29 -2 -3 15 -7 39 -9 34 -2 48 2
64 20 23 24 57 33 75 19 6 -5 43 -11 82 -15 39 -3 78 -8 87 -12 10 -3 17 -1
17 5 0 6 14 8 33 6 17 -2 56 -7 85 -11 29 -4 55 -11 58 -15 3 -5 18 -9 34 -9
16 0 31 -4 34 -9 4 -5 29 -12 56 -16 28 -4 50 -10 50 -14 0 -4 16 -8 35 -9 30
-2 35 1 35 19 0 17 4 20 22 16 14 -4 29 0 40 10 17 15 21 14 56 -18 20 -19 38
-37 40 -41 2 -4 10 -4 18 -1 8 3 14 -1 14 -7 0 -9 6 -7 19 4 11 10 30 16 43
14 33 -4 34 -38 3 -68 l-27 -25 -22 28 c-12 15 -25 27 -29 27 -26 0 25 -60 55
-64 13 -1 35 -8 50 -14 18 -7 37 -8 60 -1 40 11 40 11 34 1 -7 -12 31 -52 50
-52 8 0 17 7 20 15 4 8 11 15 16 15 6 0 7 -7 4 -16 -4 -9 -2 -22 4 -29 7 -8 4
-17 -10 -30 -18 -17 -20 -17 -14 -2 7 20 -21 24 -30 5 -5 -10 -7 -10 -12 0 -3
6 -10 12 -15 12 -6 0 -7 -4 -4 -10 3 -5 0 -10 -7 -10 -16 0 -41 -37 -33 -49 2
-5 -21 -8 -53 -7 -31 0 -73 -3 -92 -7 -25 -6 -31 -5 -20 2 13 10 13 11 0 12
-8 1 -22 1 -32 0 -9 -1 -19 3 -23 9 -3 5 -12 10 -18 10 -7 0 -6 -4 3 -11 12
-9 11 -10 -7 -6 -12 3 -24 0 -27 -7 -3 -7 -13 -2 -25 12 -19 22 -22 22 -37 8
-18 -18 -34 -21 -34 -6 0 6 5 10 11 10 5 0 7 5 3 11 -3 6 -15 9 -25 6 -11 -3
-17 -1 -13 4 3 5 -7 9 -22 9 -27 0 -27 0 -8 -22 10 -13 26 -29 34 -36 8 -7 10
-11 3 -8 -26 14 -43 -5 -37 -43 3 -23 0 -43 -9 -55 -15 -20 -58 -28 -69 -11
-25 34 11 111 55 117 27 4 29 32 2 36 -20 3 -20 3 -1 -13 19 -14 17 -15 -22
-16 -23 -1 -48 -2 -54 -3 -7 -1 -13 6 -12 14 1 10 -8 15 -28 14 -44 -2 -45 -3
-61 -28 -13 -19 -14 -31 -5 -67 13 -51 31 -68 71 -67 20 1 26 5 22 16 -4 12
-3 13 10 2 8 -7 15 -19 15 -27 0 -10 6 -13 16 -9 8 3 13 2 10 -3 -7 -11 25
-38 44 -36 8 1 21 3 29 3 7 1 11 8 8 15 -3 8 -1 20 4 28 7 11 9 11 9 -3 0 -10
8 -18 18 -19 10 0 12 -3 5 -6 -8 -3 -2 -15 18 -33 17 -15 29 -33 25 -38 -9
-15 43 -21 55 -6 6 8 17 14 25 14 7 0 17 8 23 18 12 21 31 6 34 -27 1 -24 17
-29 17 -6 0 8 5 15 10 15 6 0 10 -7 10 -16 0 -9 6 -14 13 -11 6 2 11 10 10 16
-4 16 17 14 23 -3 4 -11 11 -9 28 9 13 13 26 30 29 39 4 9 12 16 18 16 9 0 9
-4 0 -14 -15 -18 -4 -25 31 -20 39 4 68 -36 68 -92 0 -30 -5 -46 -17 -53 -10
-5 -15 -12 -11 -16 10 -10 58 25 58 42 0 13 3 13 15 3 17 -14 21 0 4 17 -6 6
-9 19 -6 29 4 16 5 15 6 -3 1 -22 13 -28 53 -24 12 2 15 -4 11 -20 -5 -19 -3
-21 15 -17 13 4 23 0 26 -9 3 -8 1 -11 -4 -8 -5 3 -9 -7 -8 -22 1 -15 -2 -36
-7 -47 -6 -14 -5 -17 6 -14 8 3 13 13 13 22 -1 10 6 16 17 16 11 0 19 -7 19
-15 0 -8 9 -20 20 -27 28 -18 25 -37 -7 -49 -16 -7 -23 -13 -15 -16 21 -8 13
-26 -10 -20 -14 4 -27 0 -37 -12 -18 -19 -73 -21 -79 -3 -2 7 -11 12 -19 12
-13 0 -13 -3 -3 -15 13 -16 9 -18 -27 -15 -13 1 -23 -3 -23 -9 0 -6 -4 -11
-10 -11 -5 0 -10 7 -10 16 0 28 -25 8 -30 -24 -13 -83 -94 -97 -114 -19 -5 23
-10 27 -28 21 -12 -4 -28 -12 -35 -19 -18 -19 -94 -30 -103 -16 -5 9 -10 8
-19 -2 -10 -12 -3 -16 41 -21 99 -13 181 -41 189 -64 6 -16 5 -22 -5 -22 -8 0
-17 6 -19 13 -3 7 -6 4 -6 -6 -1 -11 8 -21 18 -24 20 -5 26 -43 7 -40 -15 3
-18 -26 -6 -57 7 -19 15 -26 26 -22 8 3 12 2 9 -4 -3 -6 -12 -10 -20 -10 -8 0
-17 -5 -20 -10 -7 -11 248 -13 327 -3 36 5 37 6 33 39 -3 24 -1 33 7 28 7 -4
8 -3 4 4 -13 22 -15 53 -3 51 32 -4 40 1 27 16 -12 15 -10 17 20 19 8 1 15 8
15 16 0 12 -11 14 -50 12 -27 -2 -75 0 -105 3 -43 6 -51 9 -36 17 12 7 25 7
40 0 26 -13 88 -14 81 -1 -4 5 3 9 14 9 10 0 25 2 33 5 7 3 26 -6 42 -20 29
-25 57 -25 35 1 -15 18 11 20 29 2 7 -7 20 -13 30 -13 9 0 16 -6 14 -12 -1 -9
11 -13 34 -13 20 0 61 -7 92 -16 62 -17 289 -125 364 -173 56 -36 86 -77 69
-94 -6 -6 -11 -21 -11 -34 0 -18 -8 -24 -42 -34 -60 -16 -131 -5 -239 36 -73
28 -101 34 -133 30 -155 -23 -184 -24 -298 -10 -70 8 -98 -1 -98 -34 0 -14 -4
-21 -8 -15 -4 6 -17 13 -29 16 -24 6 -28 -3 -24 -50 1 -12 -2 -22 -6 -21 -26
4 -35 -1 -24 -15 17 -21 50 -24 165 -16 77 4 110 11 123 23 17 15 19 15 30 -2
8 -13 21 -17 45 -14 l33 3 -26 -13 c-15 -6 -36 -23 -48 -37 -22 -27 -28 -21
-11 11 9 17 7 19 -19 19 -16 0 -43 -6 -61 -14 l-32 -13 28 -8 c16 -5 33 -7 38
-6 5 1 -3 -14 -18 -33 -21 -28 -23 -34 -9 -30 14 4 13 1 -4 -14 -13 -11 -23
-25 -23 -30 0 -6 -9 -14 -20 -17 -11 -4 -18 -10 -16 -14 3 -4 -12 -23 -32 -43
-21 -20 -48 -63 -61 -95 -65 -159 -116 -233 -161 -233 -9 0 -35 13 -57 29 -22
16 -50 32 -64 36 -13 4 -55 37 -94 72 -46 42 -96 76 -145 99 -179 83 -204 90
-237 73 -22 -12 -27 -11 -38 5 -13 18 -14 17 -12 -2 0 -11 4 -19 8 -17 3 2 5
-16 5 -40 -1 -55 -19 -54 -27 1 -5 38 -5 38 -13 11 -5 -17 -4 -32 3 -41 6 -7
8 -16 4 -19 -11 -12 -23 -8 -23 8 0 10 -6 12 -17 8 -16 -6 -16 -5 -5 10 8 9
11 20 8 26 -3 5 1 11 9 15 8 3 15 11 15 18 0 9 -3 8 -10 -2 -6 -9 -10 -10 -10
-3 0 6 5 15 11 18 6 4 8 13 5 21 -3 8 0 13 7 11 20 -4 8 36 -19 61 -16 14 -38
22 -60 22 -37 0 -90 22 -96 41 -2 6 -17 12 -33 12 -17 1 -35 8 -41 16 -6 8
-21 16 -34 18 -13 2 -28 9 -34 17 -6 7 -33 19 -61 25 -27 7 -58 14 -67 17 -13
4 -18 0 -18 -17 0 -21 0 -21 -26 5 -25 24 -72 38 -59 16 9 -14 -1 -12 -17 3
-76 72 -125 85 -178 47 -20 -14 -44 -19 -96 -20 -107 -1 -121 -2 -102 -7 9 -2
15 -10 12 -18 -5 -11 -11 -11 -30 -3 -14 7 -23 17 -20 25 3 7 -1 13 -9 13 -8
0 -15 4 -15 9 0 16 -52 23 -61 9 -5 -8 -9 -9 -9 -2 0 15 -116 25 -146 13 -13
-4 -24 -16 -24 -25 0 -8 -6 -14 -12 -11 -7 2 -12 12 -12 21 1 9 -6 16 -17 16
-26 0 -91 -32 -110 -54 -9 -11 -31 -20 -55 -21 -65 -5 -104 -17 -104 -32 0 -9
6 -13 14 -10 10 4 13 1 10 -8 -5 -12 -10 -12 -30 2 -16 10 -24 12 -24 3 0 -7
-6 -6 -16 4 -16 17 -48 20 -74 8 -16 -7 -20 -25 -7 -38 13 -13 7 -27 -7 -15
-10 8 -16 9 -21 1 -3 -5 -17 -10 -29 -10 -13 0 -35 -9 -49 -20 -14 -11 -30
-20 -37 -20 -7 0 -9 -8 -5 -22 4 -15 3 -19 -3 -10 -7 11 -11 11 -20 0 -5 -7
-12 -19 -14 -27 -2 -8 -10 -22 -19 -32 -9 -9 -20 -36 -24 -59 -6 -38 -4 -45
19 -66 15 -14 23 -30 20 -39 -4 -9 0 -15 10 -15 9 0 16 -8 16 -20 0 -11 8 -23
18 -27 9 -3 25 -13 34 -21 12 -10 29 -13 55 -9 27 5 45 1 68 -13 27 -16 37
-18 70 -9 27 8 45 8 62 0 13 -6 53 -11 88 -11 57 0 65 -2 65 -19 0 -23 20 -32
51 -24 12 4 20 2 16 -3 -3 -5 20 -8 54 -6 36 2 65 -1 74 -8 8 -6 18 -9 23 -6
5 3 35 -4 67 -15 31 -11 87 -22 123 -24 37 -2 103 -11 147 -20 44 -9 86 -17
93 -18 6 0 12 -3 12 -7 0 -12 46 -9 67 6 13 8 23 10 23 5 0 -5 8 -9 18 -9 9 0
22 -1 27 -2 16 -6 76 11 71 19 -5 8 83 -2 150 -17 22 -4 54 -5 73 -1 19 4 49
5 67 2 18 -3 41 -2 51 2 40 16 85 11 101 -12 16 -26 59 -31 94 -12 53 28 198
27 198 -2 0 -5 9 -9 21 -9 11 0 18 -4 14 -9 -3 -5 2 -11 10 -13 11 -2 3 -13
-27 -36 -32 -24 -51 -32 -75 -30 -18 1 -38 -3 -45 -10 -6 -6 -16 -12 -21 -12
-8 0 -95 -41 -134 -63 -12 -7 -40 -31 -62 -53 -29 -29 -48 -41 -69 -41 -17 0
-53 -15 -83 -35 -30 -19 -71 -41 -91 -49 -21 -7 -48 -22 -62 -33 -13 -12 -52
-43 -86 -71 -112 -90 -147 -125 -195 -196 -52 -76 -69 -85 -141 -75 -56 7 -70
17 -129 90 -27 32 -67 71 -91 85 -23 15 -54 42 -69 59 -15 18 -31 30 -36 27
-5 -4 -6 0 -4 7 6 15 -37 62 -104 114 -31 24 -50 33 -65 29 -15 -5 -17 -4 -8
3 11 7 4 22 -32 69 -25 33 -60 71 -78 85 -18 14 -54 45 -80 69 -77 74 -79 74
-85 50 -4 -17 -8 -19 -19 -10 -8 6 -14 19 -14 29 0 11 -10 20 -25 24 -14 4
-23 11 -20 16 4 6 -1 13 -9 16 -9 3 -14 9 -11 14 2 4 -9 20 -25 35 -17 16 -30
25 -30 21 0 -5 -6 -3 -14 3 -19 16 -76 32 -76 21 0 -15 -45 12 -99 61 -11 10
-24 13 -33 8 -9 -5 -25 2 -46 22 -28 26 -37 29 -68 23 -54 -10 -133 -64 -94
-64 14 0 12 -28 -2 -33 -10 -3 -10 -9 1 -29 8 -16 11 -37 6 -56 -6 -28 -3 -31
34 -48 22 -9 38 -21 35 -26 -3 -5 -12 -4 -19 2 -8 7 -19 9 -25 5 -5 -3 -13 1
-16 9 -8 21 -17 20 -32 -5 -10 -15 -10 -24 -2 -34 8 -10 8 -24 1 -51 -9 -33
-7 -45 25 -109 19 -40 43 -84 54 -98 12 -15 27 -43 34 -64 8 -22 19 -37 27
-36 8 2 41 -22 73 -52 33 -30 67 -55 77 -55 10 0 26 -12 36 -26 17 -27 102
-71 158 -83 17 -4 34 -16 40 -28 5 -12 18 -24 30 -27 18 -5 19 -4 3 8 -10 7
-18 16 -18 20 0 9 110 4 130 -5 8 -4 38 -15 65 -24 28 -9 57 -19 65 -22 8 -4
21 -5 28 -4 7 1 22 -5 34 -14 13 -8 17 -16 10 -16 -49 -5 -48 -12 3 -18 28 -4
56 -2 63 3 7 5 12 4 12 -3 0 -7 19 -11 48 -11 26 0 53 -5 60 -12 9 -9 12 -9
12 0 0 7 5 12 11 12 5 0 8 -3 5 -8 -2 -4 16 -7 40 -6 24 1 44 -3 44 -8 0 -5 8
-8 18 -6 9 1 22 -1 29 -5 16 -10 44 3 36 17 -3 6 4 2 17 -9 13 -11 20 -14 16
-8 -7 13 -1 13 104 -7 25 -4 58 -8 74 -9 16 -1 37 -8 47 -17 12 -11 18 -12 21
-3 5 15 76 23 92 10 7 -6 36 -11 66 -13 30 -2 59 -7 63 -13 6 -6 10 -5 14 3 4
9 8 10 18 2 10 -8 15 -8 20 0 5 8 10 8 20 0 8 -7 21 -7 37 -1 13 5 54 6 91 2
37 -4 67 -4 67 0 0 4 14 4 32 -1 19 -6 36 -6 43 0 16 14 85 0 85 -17 0 -10 5
-11 19 -4 10 6 21 8 24 4 4 -3 13 0 22 7 9 7 22 9 32 4 10 -4 20 -8 23 -8 3
-1 10 -5 17 -9 6 -4 15 -2 18 4 4 5 13 8 21 5 7 -3 16 -1 20 5 4 7 12 5 22 -5
24 -20 72 -32 72 -16 0 13 49 10 84 -5 14 -6 17 -5 12 3 -5 8 -2 10 8 6 9 -3
16 -13 16 -22 0 -12 3 -13 12 -4 8 8 17 8 30 1 14 -7 20 -6 24 6 9 22 34 18
34 -6 0 -31 52 -22 61 11 4 14 7 19 8 13 1 -7 6 -13 11 -13 18 0 59 -51 53
-66 -3 -9 -16 -12 -38 -9 -26 3 -35 -1 -44 -18 -7 -14 -10 -15 -6 -4 4 15 1
17 -18 11 -12 -4 -25 -12 -29 -18 -4 -6 -10 -7 -15 -3 -4 5 -1 12 7 17 8 5 11
12 8 15 -4 4 -17 -3 -30 -14 -12 -12 -24 -17 -26 -11 -2 5 -15 7 -29 4 -23 -6
-24 -4 -18 16 l7 22 -21 -21 c-15 -15 -28 -20 -46 -15 -27 7 -33 -4 -13 -24
16 -16 2 -28 -15 -14 -8 7 -17 9 -21 4 -4 -4 -12 1 -17 11 -11 19 -39 23 -39
6 0 -6 7 -17 15 -26 11 -11 13 -19 5 -28 -12 -14 -11 -71 1 -96 5 -10 2 -19
-9 -26 -15 -9 -17 -4 -16 52 0 34 4 67 9 75 6 10 3 12 -13 8 -13 -4 -22 -1
-22 5 0 7 -7 21 -16 32 -12 17 -16 18 -24 5 -5 -8 -5 -17 -1 -20 16 -11 22
-43 9 -52 -23 -14 -33 -9 -12 7 17 13 17 14 2 15 -10 0 -27 -9 -38 -20 -18
-18 -24 -18 -21 2 0 4 -8 12 -18 17 -28 15 -61 -16 -54 -51 4 -19 0 -30 -15
-39 -20 -13 -20 -13 -1 -40 10 -15 19 -35 19 -45 0 -14 3 -15 12 -6 9 9 9 18
0 37 -17 36 -15 50 3 35 8 -7 15 -8 15 -4 0 5 12 17 28 26 29 19 14 25 -19 8
-22 -12 -24 -7 -7 19 12 19 12 19 41 -1 l29 -21 -31 -15 c-37 -18 -40 -31 -6
-24 31 5 52 39 36 55 -14 14 -14 27 -1 27 6 0 10 -7 10 -15 0 -8 4 -15 8 -15
10 0 7 -59 -4 -68 -4 -4 -4 1 -1 11 4 9 2 17 -5 17 -6 0 -8 -11 -4 -31 3 -17
6 -40 6 -50 0 -11 5 -19 10 -19 6 0 10 6 10 14 0 13 34 29 43 19 6 -5 -41 -53
-52 -53 -12 0 -21 26 -21 57 0 19 -4 24 -16 19 -9 -3 -18 -6 -20 -6 -2 0 -4
-7 -4 -15 0 -8 -5 -15 -10 -15 -6 0 -5 -6 2 -14 7 -8 16 -12 19 -10 4 2 12 -3
19 -11 14 -17 7 -45 -11 -45 -9 0 -9 4 0 14 7 9 8 17 3 20 -13 8 -23 -20 -16
-39 4 -11 13 -13 28 -9 18 6 19 5 7 -10 -10 -12 -17 -13 -27 -5 -7 6 -17 8
-22 5 -5 -3 -9 0 -9 7 0 7 -2 17 -3 22 -5 22 1 36 13 29 9 -5 9 -4 0 6 -10 11
-15 11 -28 0 -9 -7 -14 -19 -11 -26 3 -7 0 -17 -6 -20 -8 -5 -7 -9 4 -13 13
-5 13 -10 2 -36 -7 -16 -13 -23 -14 -14 0 12 -8 16 -25 15 -26 -1 -32 -10 -15
-21 6 -3 10 -12 10 -18 0 -7 -12 1 -26 17 -14 16 -23 35 -20 42 3 8 9 21 12
29 3 8 2 15 -4 15 -5 0 -12 -10 -15 -21 -4 -16 -11 -20 -24 -15 -14 6 -16 5
-5 -5 6 -7 11 -22 11 -34 -1 -18 -2 -18 -6 -1 -4 14 -7 15 -13 6 -5 -8 -9 -1
-12 19 -4 25 -1 31 14 31 10 0 18 4 18 8 0 17 -41 5 -56 -16 -8 -12 -21 -22
-29 -22 -9 0 -12 -6 -8 -17 5 -11 3 -14 -6 -8 -10 6 -11 2 -6 -16 5 -19 4 -21
-4 -9 -9 12 -11 13 -11 1 0 -8 -2 -12 -5 -9 -3 3 -1 17 4 31 8 21 7 25 -3 21
-8 -3 -16 -14 -19 -25 -4 -13 -10 -17 -22 -12 -15 5 -16 8 -4 17 31 24 15 43
-18 23 -8 -5 -13 -4 -13 2 0 6 -5 11 -11 11 -8 0 -8 -4 -1 -12 5 -7 13 -24 16
-38 7 -23 6 -24 -8 -6 -8 10 -19 15 -25 11 -7 -3 -8 0 -5 9 3 9 1 16 -5 16 -7
0 -8 8 -2 23 6 15 4 26 -5 34 -14 14 -47 6 -38 -9 3 -5 12 -7 20 -4 8 3 14 2
14 -3 0 -12 -32 -37 -39 -32 -3 3 -8 -3 -9 -13 -3 -14 1 -17 18 -11 20 6 20 5
8 -14 -14 -23 -45 -24 -40 -2 2 9 -3 11 -14 7 -11 -4 -15 -2 -11 8 3 8 1 17
-6 20 -7 2 -5 5 5 5 9 1 20 6 24 13 5 8 2 9 -12 4 -10 -5 -35 -9 -54 -10 -29
-2 -35 -6 -34 -24 0 -11 -2 -20 -5 -19 -3 1 -16 -4 -28 -11 -15 -8 -23 -9 -23
-2 0 5 -4 10 -10 10 -5 0 -10 -7 -10 -15 0 -8 -6 -12 -14 -9 -8 3 -12 12 -10
19 8 19 -11 26 -40 15 -24 -9 -25 -8 -16 15 7 19 6 23 -5 18 -8 -3 -12 -9 -9
-14 5 -9 -28 -14 -73 -11 -13 0 -23 -5 -23 -13 0 -10 -5 -11 -25 -2 -14 7 -25
18 -25 25 0 6 -4 12 -10 12 -5 0 -10 -6 -10 -14 0 -16 -42 -30 -50 -16 -15 24
-151 48 -179 31 -18 -11 -68 6 -75 25 -3 9 -10 12 -16 9 -15 -9 -12 -25 5 -25
8 0 15 -4 15 -10 0 -5 -7 -10 -15 -10 -8 0 -15 5 -15 11 0 6 -6 9 -13 6 -7 -3
-22 2 -32 9 -17 13 -20 12 -27 -3 -6 -15 -7 -15 -7 5 -1 20 -21 33 -21 13 0
-5 -9 -11 -20 -14 -14 -3 -20 0 -20 10 0 11 -3 13 -12 5 -13 -10 -85 2 -192
33 -73 21 -68 11 6 -14 171 -57 621 -125 963 -146 225 -14 287 -16 557 -15
195 0 365 7 530 20 358 29 388 32 384 39 -2 3 10 7 27 7 18 1 46 5 62 8 17 4
66 13 110 22 251 48 487 154 561 251 26 35 29 44 27 107 -2 55 1 77 17 103 12
20 24 67 29 111 5 42 14 90 20 106 8 19 8 32 1 41 -5 6 -7 15 -3 18 10 11 -6
8 -30 -4 -15 -8 -11 -1 11 20 19 18 36 30 40 26 4 -3 0 -11 -8 -16 -11 -8 -12
-12 -2 -16 6 -2 9 -10 6 -15 -4 -6 -3 -8 3 -5 5 3 9 21 8 39 -3 39 13 90 25
83 5 -3 12 10 16 30 3 19 10 35 15 35 5 0 9 5 9 11 0 5 -5 7 -11 3 -7 -4 -10
-1 -7 7 3 8 10 13 16 12 15 -3 35 52 27 76 -3 12 -17 24 -30 27 -13 3 -26 12
-29 20 -3 8 -2 13 2 10 4 -2 14 -1 22 4 12 7 10 14 -12 37 -22 23 -25 32 -16
47 8 15 7 22 -3 30 -8 6 -14 22 -15 36 -2 50 -18 73 -87 125 -37 28 -38 29
-17 37 17 6 33 1 68 -23 47 -32 121 -63 130 -55 2 3 6 20 7 38 2 18 5 35 6 38
0 3 1 14 0 25 -2 17 0 17 8 5 6 -8 11 -10 12 -5 0 6 5 -1 10 -15 12 -34 2 51
-12 104 -8 30 -13 36 -21 25 -7 -10 -8 -9 -4 7 4 13 0 26 -11 36 -20 18 -94
52 -106 49 -4 0 -4 11 -1 26 4 14 7 65 8 112 1 47 3 88 6 91 13 13 30 81 30
123 0 25 5 49 10 52 13 8 40 72 40 95 0 10 -7 23 -15 30 -18 15 -20 51 -4 67
17 17 2 33 -31 33 -16 0 -42 11 -59 26 -29 24 -32 25 -61 11 -40 -20 -39 -2 1
22 22 14 44 18 73 15 l41 -4 -40 26 c-23 14 -31 22 -17 19 33 -9 27 4 -9 19
-39 16 -77 9 -85 -16 -9 -28 -36 -58 -47 -51 -4 3 1 12 12 20 12 8 21 23 21
34 0 16 -7 19 -54 19 l-54 0 -7 61 c-8 64 -1 79 37 79 23 0 170 50 182 61 6 6
2 9 -10 9 -16 0 -17 2 -4 10 13 8 13 10 -2 10 -9 0 -22 -8 -28 -17 -6 -10 -9
-11 -6 -3 3 8 9 23 12 33 4 10 16 17 30 17 15 0 24 6 24 15 0 8 5 15 10 15 13
0 8 -63 -5 -72 -12 -9 17 -10 39 -2 22 8 20 23 -2 17 -17 -4 -17 0 -8 54 l11
58 5 -49 c5 -49 5 -49 19 -23 11 21 12 32 3 52 -15 31 -16 95 -2 95 34 0 5
120 -53 222 -14 24 -23 48 -20 54 4 13 -39 57 -133 137 -116 99 -126 105 -97
60 l18 -28 -35 22 c-19 12 -41 31 -49 43 -13 20 -13 20 13 11 39 -16 32 -6
-28 33 -55 37 -72 44 -60 24 4 -7 3 -8 -5 -4 -6 4 -9 11 -6 16 8 12 -33 33
-47 24 -6 -4 -8 -3 -5 3 3 5 -8 18 -26 28 -28 16 -30 16 -18 2 11 -15 11 -17
-2 -17 -40 0 -126 51 -209 125 -10 8 -24 15 -30 15 -9 0 -8 -4 2 -11 11 -8 8
-9 -15 -4 -16 3 -40 17 -53 31 -22 23 -42 31 -42 18 0 -4 12 -18 26 -31 l26
-24 -29 7 c-45 11 -71 22 -78 33 -3 6 -1 11 5 11 6 0 8 5 5 10 -3 6 -19 10
-36 10 -16 0 -29 3 -29 8 0 12 -92 30 -129 24 -23 -3 -32 -1 -27 6 4 6 14 8
24 5 16 -6 16 -6 0 10 -9 9 -23 15 -31 12 -7 -3 -32 -2 -54 3 -26 6 -47 6 -58
-1 -13 -7 -16 -6 -11 2 5 8 -1 10 -21 7 -15 -3 -35 -1 -43 4 -11 7 -6 10 20
10 27 0 31 3 20 10 -8 6 -38 7 -68 4 -34 -4 -57 -2 -67 6 -8 6 -20 8 -27 4
-17 -10 -69 -5 -86 8 -8 7 -42 8 -93 3 -63 -5 -84 -4 -90 7 -6 8 -12 9 -16 3
-5 -6 -17 -11 -28 -10 -11 0 -28 -8 -38 -18 -12 -12 -30 -17 -55 -15 -20 2
-36 7 -34 11 4 11 -29 36 -48 37 -13 0 -13 -1 0 -10 9 -6 10 -10 3 -10 -20 0
-24 18 -6 29 10 5 15 12 12 16 -4 3 -14 -1 -22 -10z m346 -42 c-7 -2 -19 -2
-25 0 -7 3 -2 5 12 5 14 0 19 -2 13 -5z m-13 -25 c25 -15 31 -23 20 -26 -8 -3
-18 -9 -21 -14 -11 -18 -74 -15 -112 4 -44 22 -40 41 7 32 25 -4 35 -2 39 10
8 21 25 20 67 -6z m-890 -7 l25 -7 -27 -6 c-15 -3 -25 -1 -22 3 3 5 -5 9 -18
9 -18 0 -20 -2 -8 -10 9 -6 10 -10 3 -10 -15 0 -25 15 -16 24 8 7 30 6 63 -3z
m1107 3 c-3 -3 -12 -4 -19 -1 -8 3 -5 6 6 6 11 1 17 -2 13 -5z m-1196 -22 c-7
-2 -18 1 -23 6 -8 8 -4 9 13 5 13 -4 18 -8 10 -11z m415 -17 c4 -8 15 -15 25
-15 25 0 24 -15 -3 -34 -42 -30 -108 -13 -108 26 0 8 12 19 28 25 39 16 52 15
58 -2z m925 -6 c11 -6 18 -17 15 -24 -2 -7 3 -16 12 -20 15 -5 14 -9 -7 -24
-31 -24 -181 -28 -181 -6 0 8 17 19 38 24 20 6 50 22 66 36 34 29 31 28 57 14z
m-312 -25 c2 -2 -2 -10 -9 -19 -13 -16 -100 -22 -100 -6 0 29 83 48 109 25z
m544 -5 c40 -13 49 -29 16 -29 -24 0 -79 30 -79 43 0 5 6 6 13 3 6 -2 29 -10
50 -17z m-759 -9 c4 -5 5 -13 2 -18 -8 -13 -99 -26 -125 -17 -28 8 -27 33 2
45 24 10 107 3 121 -10z m-478 -16 c19 -9 34 -19 34 -22 0 -11 -36 -31 -56
-32 -26 0 -58 34 -51 55 8 19 30 19 73 -1z m-691 -15 c-4 -5 -12 -9 -18 -8 -9
0 -8 2 1 6 6 2 9 10 6 15 -4 7 -2 8 5 4 6 -4 9 -12 6 -17z m820 11 c-3 -5 -11
-10 -16 -10 -6 0 -7 5 -4 10 3 6 11 10 16 10 6 0 7 -4 4 -10z m-787 -44 c4
-20 -52 -46 -98 -46 -50 0 -35 32 25 52 57 19 69 18 73 -6z m242 -10 c0 -8 11
-11 30 -8 40 6 39 -13 -2 -38 -21 -13 -42 -18 -57 -15 -13 4 -27 1 -31 -5 -5
-7 -11 -6 -20 5 -11 13 -10 15 4 9 9 -3 16 -1 16 5 0 6 -4 11 -10 11 -18 0
-11 28 11 43 22 16 59 12 59 -7z m1705 -64 c-39 -5 -75 6 -75 22 0 24 23 25
64 2 39 -21 39 -21 11 -24z m-2330 18 c-3 -5 -12 -10 -18 -10 -7 0 -6 4 3 10
19 12 23 12 15 0z m525 -30 c0 -5 -5 -10 -11 -10 -5 0 -7 5 -4 10 3 6 8 10 11
10 2 0 4 -4 4 -10z m-30 -8 c0 -5 -7 -9 -15 -9 -8 0 -12 4 -9 9 3 4 9 8 15 8
5 0 9 -4 9 -8z m-97 -24 c3 -9 -8 -14 -32 -15 -36 -2 -36 -2 -11 12 31 18 37
18 43 3z m1726 -14 l24 -17 -24 -13 c-29 -16 -85 -18 -94 -3 -10 15 24 49 49
49 12 0 32 -7 45 -16z m455 -11 c29 -31 21 -48 -16 -34 -34 13 -43 28 -28 46
16 19 15 20 44 -12z m-2284 7 c0 -5 -4 -10 -10 -10 -5 0 -10 5 -10 10 0 6 5
10 10 10 6 0 10 -4 10 -10z m-284 -39 c11 -21 10 -27 -11 -43 -28 -22 -30 -22
-49 -2 -20 20 -20 38 0 59 22 21 46 16 60 -14z m-244 -12 c-5 -36 -42 -64 -72
-54 -12 4 -20 2 -20 -5 0 -7 -6 -6 -15 4 -8 8 -15 21 -15 29 0 8 7 20 15 27
17 14 21 0 4 -17 -6 -6 -8 -17 -4 -23 5 -8 12 -2 20 18 10 22 23 32 52 40 21
5 38 10 39 11 0 1 -1 -13 -4 -30z m3051 -7 c25 -22 21 -42 -8 -42 -27 0 -50
32 -41 56 6 16 18 12 49 -14z m-643 -23 c0 -18 -2 -19 -15 -5 -8 8 -15 17 -15
20 0 3 7 6 15 6 9 0 15 -9 15 -21z m-2550 -24 c-7 -8 -18 -15 -24 -15 -6 0 -3
7 7 14 9 7 17 19 18 27 0 11 2 11 6 1 3 -7 -1 -19 -7 -27z m2915 5 c17 -19 15
-50 -5 -50 -5 0 -19 9 -31 21 -16 16 -18 23 -8 35 15 19 22 18 44 -6z m-282
-41 c-6 -6 -9 -17 -7 -24 3 -6 -1 -12 -9 -12 -11 0 -12 7 -4 34 7 23 14 30 21
23 7 -7 6 -14 -1 -21z m-2569 -4 c-4 -8 -11 -15 -16 -15 -6 0 -5 6 2 15 7 8
14 15 16 15 2 0 1 -7 -2 -15z m206 5 c0 -5 -4 -10 -10 -10 -5 0 -10 5 -10 10
0 6 5 10 10 10 6 0 10 -4 10 -10z m2820 -4 c8 -3 18 -5 23 -5 13 -2 7 -19 -10
-25 -23 -9 -83 13 -83 31 0 15 10 15 70 -1z m-531 -50 c17 -32 6 -86 -18 -86
-21 0 -57 71 -48 94 10 25 52 19 66 -8z m-631 -18 c29 -29 5 -118 -32 -118
-15 0 -36 42 -36 71 0 49 39 76 68 47z m1052 -93 c0 -30 -15 -47 -36 -43 -23
4 -32 71 -13 94 11 14 15 13 31 -8 9 -13 18 -32 18 -43z m-880 35 c0 -5 -2
-10 -4 -10 -3 0 -8 5 -11 10 -3 6 -1 10 4 10 6 0 11 -4 11 -10z m1284 -119
c14 -25 16 -35 7 -44 -8 -8 -16 -9 -28 -1 -25 16 -76 102 -68 114 9 15 65 -29
89 -69z m-566 -69 c44 -29 37 -92 -11 -92 -11 0 -32 10 -45 23 -20 17 -24 18
-19 5 7 -21 -11 -34 -26 -19 -7 7 -5 16 8 31 10 11 13 20 7 20 -12 0 -6 26 10
46 10 14 43 7 76 -14z m396 -58 c22 -56 -7 -124 -45 -104 -27 15 -29 57 -3 98
17 26 39 29 48 6z m-465 -98 c10 -12 8 -13 -8 -9 -12 3 -21 9 -21 14 0 14 16
11 29 -5z m921 -106 c0 -5 -4 -10 -10 -10 -5 0 -10 5 -10 10 0 6 5 10 10 10 6
0 10 -4 10 -10z m-40 -20 c0 -5 -4 -10 -10 -10 -5 0 -10 5 -10 10 0 6 5 10 10
10 6 0 10 -4 10 -10z m-805 -60 c-3 -5 -13 -10 -21 -10 -8 0 -12 5 -9 10 3 6
13 10 21 10 8 0 12 -4 9 -10z m52 4 c-3 -3 -12 -4 -19 -1 -8 3 -5 6 6 6 11 1
17 -2 13 -5z m683 -3 c0 -12 -20 -25 -27 -18 -7 7 6 27 18 27 5 0 9 -4 9 -9z
m-213 -96 c27 0 40 -35 14 -35 -24 0 -81 29 -81 41 0 6 9 7 23 3 12 -5 32 -8
44 -9z m-607 -9 c0 -9 -40 -13 -46 -5 -3 5 6 9 20 9 14 0 26 -2 26 -4z m493
-32 c32 -17 33 -21 10 -46 -17 -19 -43 -24 -43 -8 0 6 -10 10 -22 10 -13 0
-29 4 -36 9 -8 5 4 8 32 7 41 -1 66 8 55 19 -3 2 -29 10 -57 18 -29 7 -50 16
-47 19 8 7 70 -9 108 -28z m122 -14 c-3 -5 -12 -10 -18 -10 -7 0 -6 4 3 10 19
12 23 12 15 0z m-861 -29 c11 -17 -5 -39 -25 -34 -22 6 -24 14 -7 31 14 14 25
15 32 3z m-1930 -365 c-3 -9 -10 -16 -15 -16 -5 0 -4 9 3 20 14 22 21 20 12
-4z m336 -62 c0 -2 -8 -2 -17 -2 -10 0 -26 -3 -35 -7 -15 -6 -18 -2 -18 22 0
16 3 32 6 36 5 5 64 -40 64 -49z m222 24 c-7 -7 -12 -8 -12 -2 0 14 12 26 19
19 2 -3 -1 -11 -7 -17z m128 12 c0 -5 -5 -10 -11 -10 -5 0 -7 5 -4 10 3 6 8
10 11 10 2 0 4 -4 4 -10z m-95 -20 c-3 -5 -11 -10 -16 -10 -6 0 -7 5 -4 10 3
6 11 10 16 10 6 0 7 -4 4 -10z m-745 -15 c7 -9 8 -15 2 -15 -5 0 -12 7 -16 15
-3 8 -4 15 -2 15 2 0 9 -7 16 -15z m142 -14 c-3 -15 23 -43 32 -34 3 4 6 1 6
-5 0 -18 -20 -24 -26 -8 -3 9 -13 16 -21 16 -10 0 -13 6 -9 17 4 9 1 20 -6 25
-9 6 -7 8 7 5 11 -2 19 -9 17 -16z m58 15 c0 -2 -7 -7 -16 -10 -8 -3 -12 -2
-9 4 6 10 25 14 25 6z m110 -4 c0 -4 -9 -13 -20 -20 -22 -13 -27 -3 -8 16 14
14 28 16 28 4z m60 -12 c0 -5 -2 -10 -4 -10 -3 0 -8 5 -11 10 -3 6 -1 10 4 10
6 0 11 -4 11 -10z m135 -12 c-9 -6 -22 -11 -28 -12 -7 -1 -28 -10 -47 -21 -30
-15 -33 -16 -21 -2 14 18 7 22 -26 18 -8 -1 -10 5 -7 14 5 12 10 13 17 6 14
-14 47 -14 47 -2 0 6 8 8 18 6 10 -2 25 1 32 5 8 5 18 6 23 3 5 -3 2 -10 -8
-15z m105 8 c0 -2 -7 -6 -15 -10 -8 -3 -15 -1 -15 4 0 6 7 10 15 10 8 0 15 -2
15 -4z m293 -21 c16 15 17 15 17 0 0 -9 -5 -25 -11 -37 -11 -20 -11 -20 -34 2
-13 12 -21 29 -18 36 4 12 7 12 17 -2 11 -15 14 -15 29 1z m-883 -16 c0 -8 6
-7 17 2 14 12 16 12 11 -1 -6 -21 -55 -26 -55 -6 0 9 6 16 14 16 7 0 13 -5 13
-11z m-183 -25 c-9 -9 -28 6 -21 18 4 6 10 6 17 -1 6 -6 8 -13 4 -17z m457
-12 c-8 -18 -13 -36 -9 -42 3 -6 -1 -7 -10 -4 -12 5 -13 10 -6 17 18 18 12 31
-6 16 -17 -13 -17 -13 -3 6 16 22 43 45 48 41 1 -2 -5 -17 -14 -34z m-414 13
c-7 -9 -15 -13 -19 -10 -3 3 1 10 9 15 21 14 24 12 10 -5z m750 -5 c27 14 25
2 -3 -24 -19 -18 -26 -19 -36 -9 -8 9 -8 13 -1 13 6 0 8 5 5 10 -3 6 -18 8
-31 6 -22 -4 -24 -3 -13 10 10 13 15 13 36 -1 17 -12 28 -13 43 -5z m-540 -5
c14 -16 10 -18 -14 -9 -9 3 -16 10 -16 15 0 14 16 11 30 -6z m775 5 c3 -6 -1
-7 -9 -4 -18 7 -21 14 -7 14 6 0 13 -4 16 -10z m302 4 c-3 -3 -12 -4 -19 -1
-8 3 -5 6 6 6 11 1 17 -2 13 -5z m-947 -15 c0 -5 5 -7 10 -4 6 3 10 1 10 -4 0
-16 -16 -13 -30 4 -9 10 -9 15 -1 15 6 0 11 -5 11 -11z m506 2 c-17 -3 -29
-10 -29 -16 2 -13 23 -19 23 -6 0 6 7 11 15 11 8 0 15 -4 15 -10 0 -5 -6 -10
-14 -10 -8 0 -17 -6 -20 -12 -3 -10 -9 -8 -19 5 -8 9 -19 17 -26 17 -15 0 -14
17 2 23 6 3 28 5 47 5 34 0 34 0 6 -7z m-810 -40 c-12 -19 -23 -12 -23 15 0
23 1 24 14 11 9 -8 12 -20 9 -26z m1208 30 c3 -5 -1 -11 -9 -14 -9 -4 -12 -1
-8 9 6 16 10 17 17 5z m-790 -17 c4 -10 1 -14 -6 -12 -15 5 -23 28 -10 28 5 0
13 -7 16 -16z m116 12 c0 -3 -4 -8 -10 -11 -5 -3 -10 -1 -10 4 0 6 5 11 10 11
6 0 10 -2 10 -4z m120 -11 c14 -16 10 -18 -14 -9 -9 3 -16 10 -16 15 0 14 16
11 30 -6z m-690 -5 c0 -5 -5 -10 -11 -10 -5 0 -7 5 -4 10 3 6 8 10 11 10 2 0
4 -4 4 -10z m-40 -4 c0 -3 -4 -8 -10 -11 -5 -3 -10 -1 -10 4 0 6 5 11 10 11 6
0 10 -2 10 -4z m165 -17 c11 0 14 -3 8 -6 -7 -2 -13 -11 -13 -19 0 -9 5 -12
10 -9 6 3 10 1 10 -4 0 -6 -4 -11 -9 -11 -11 0 -26 20 -26 34 0 5 -6 11 -14
14 -9 3 -11 0 -6 -9 6 -11 5 -11 -5 -2 -7 6 -9 17 -5 23 5 8 10 9 18 1 6 -6
20 -11 32 -12z m228 6 c4 -8 1 -17 -6 -21 -7 -4 -9 -4 -5 1 4 4 3 14 -3 22 -7
8 -8 13 -1 13 5 0 12 -7 15 -15z m147 0 c-7 -8 -20 -15 -29 -15 -13 1 -13 3 3
15 26 19 42 19 26 0z m390 5 c0 -5 -5 -10 -11 -10 -5 0 -7 5 -4 10 3 6 8 10
11 10 2 0 4 -4 4 -10z m-204 -38 c-1 -19 -10 -31 -30 -42 -37 -19 -43 -36 -17
-45 17 -5 19 -10 11 -26 -8 -14 -8 -19 1 -17 6 2 14 -3 17 -11 3 -8 0 -11 -7
-7 -8 5 -8 0 -1 -18 9 -24 7 -26 -16 -26 -22 0 -24 2 -13 21 9 18 7 25 -10 42
-12 12 -21 16 -21 9 0 -6 -7 -12 -16 -12 -8 0 -12 5 -9 10 4 6 1 18 -7 27 -11
14 -11 16 3 11 13 -5 15 -1 11 20 -3 15 -9 33 -15 40 -7 9 -6 11 5 7 11 -4 18
2 22 20 5 19 11 25 24 21 9 -3 23 -2 31 3 22 14 38 2 37 -27z m-236 24 c0 -3
-4 -8 -10 -11 -5 -3 -10 -1 -10 4 0 6 5 11 10 11 6 0 10 -2 10 -4z m104 -11
c-4 -8 -11 -15 -16 -15 -6 0 -5 6 2 15 7 8 14 15 16 15 2 0 1 -7 -2 -15z m301
5 c-3 -5 -14 -10 -23 -10 -15 0 -15 2 -2 10 20 13 33 13 25 0z m234 -6 c2 -2
-4 -7 -14 -10 -10 -4 -20 -1 -25 6 -7 11 -12 11 -27 -1 -16 -13 -17 -13 -4 3
9 13 21 16 40 11 14 -3 28 -7 30 -9z m81 12 c0 -3 -4 -8 -10 -11 -5 -3 -10 -1
-10 4 0 6 5 11 10 11 6 0 10 -2 10 -4z m35 -6 c-3 -5 -11 -10 -16 -10 -6 0 -7
5 -4 10 3 6 11 10 16 10 6 0 7 -4 4 -10z m-305 -29 c0 -19 28 -37 39 -25 3 4
0 9 -6 11 -20 7 -15 23 8 23 13 0 18 -4 13 -12 -5 -7 -3 -8 6 -3 7 4 16 2 21
-6 12 -19 11 -29 -2 -29 -5 0 -7 5 -3 12 4 7 3 8 -4 4 -21 -12 -13 -33 14 -39
17 -3 24 -1 20 8 -2 7 3 12 12 11 9 0 16 5 15 12 -2 6 2 12 8 12 5 0 7 6 3 13
-5 9 -4 9 5 1 12 -11 5 -44 -10 -44 -5 0 -9 -8 -9 -19 0 -10 -6 -24 -14 -30
-11 -10 -16 -8 -21 9 -3 11 -11 18 -16 14 -5 -3 -6 -10 -3 -16 4 -6 0 -14 -7
-19 -23 -14 -32 -10 -18 8 15 18 16 18 -33 -2 -11 -4 -18 -3 -18 4 0 6 -7 11
-15 11 -18 0 -21 46 -3 52 10 4 10 10 1 31 -11 23 -10 27 2 27 8 0 15 -9 15
-19z m-960 5 c0 -3 -4 -8 -10 -11 -5 -3 -10 -1 -10 4 0 6 5 11 10 11 6 0 10
-2 10 -4z m930 -31 c0 -5 -5 -3 -10 5 -5 8 -10 20 -10 25 0 6 5 3 10 -5 5 -8
10 -19 10 -25z m150 14 c0 -14 -17 -10 -23 5 -4 10 -1 13 9 9 7 -3 14 -9 14
-14z m-600 1 c0 -5 -5 -10 -11 -10 -5 0 -7 5 -4 10 3 6 8 10 11 10 2 0 4 -4 4
-10z m-263 -22 c-3 -8 -6 -5 -6 6 -1 11 2 17 5 13 3 -3 4 -12 1 -19z m113 12
c0 -5 -4 -10 -9 -10 -5 0 -18 -3 -28 -7 -16 -6 -16 -5 -4 10 15 19 41 23 41 7z
m521 -8 c-7 -2 -18 1 -23 6 -8 8 -4 9 13 5 13 -4 18 -8 10 -11z m-841 -14 c0
-5 -9 -4 -20 2 -11 6 -20 12 -20 14 0 2 9 2 20 -1 11 -3 20 -9 20 -15z m66 7
c4 -8 11 -12 17 -8 6 3 7 1 3 -5 -4 -6 -13 -9 -21 -6 -16 7 -28 34 -14 34 5 0
12 -7 15 -15z m1094 5 c0 -5 -5 -10 -11 -10 -5 0 -7 5 -4 10 3 6 8 10 11 10 2
0 4 -4 4 -10z m-625 -10 c-3 -5 -2 -10 2 -10 5 0 9 -16 10 -35 1 -27 -3 -34
-15 -32 -26 4 -43 17 -36 29 4 6 10 5 16 -3 7 -10 8 -7 5 9 -6 27 1 52 15 52
5 0 6 -4 3 -10z m265 0 c0 -5 -7 -7 -15 -4 -8 4 -15 8 -15 10 0 2 7 4 15 4 8
0 15 -4 15 -10z m80 6 c0 -3 -4 -8 -10 -11 -5 -3 -10 -1 -10 4 0 6 5 11 10 11
6 0 10 -2 10 -4z m-385 -16 c3 -6 0 -13 -9 -16 -8 -3 -19 -18 -24 -34 -9 -24
-7 -29 11 -38 21 -9 20 -9 -6 -9 -16 0 -34 -9 -42 -19 -8 -11 -15 -14 -15 -7
0 6 -14 15 -32 18 -28 7 -29 8 -13 18 14 7 20 7 23 -1 8 -25 31 -12 28 16 -1
15 -8 26 -14 25 -7 -2 -12 1 -12 5 0 14 36 43 43 35 12 -12 7 -22 -8 -17 -8 4
-15 2 -15 -4 0 -5 6 -12 13 -14 17 -7 38 2 31 13 -6 11 13 39 27 39 4 0 11 -5
14 -10z m-241 -15 c-7 -16 -24 -21 -24 -6 0 8 7 13 27 20 1 1 0 -6 -3 -14z
m1162 0 c-21 -16 -32 -13 -21 4 3 6 14 11 23 11 15 -1 15 -2 -2 -15z m139 5
c3 -6 -1 -7 -9 -4 -18 7 -21 14 -7 14 6 0 13 -4 16 -10z m-1685 -10 c0 -5 -2
-10 -4 -10 -3 0 -8 5 -11 10 -3 6 -1 10 4 10 6 0 11 -4 11 -10z m727 -39 c-10
-12 -13 -10 -15 8 -2 14 -9 21 -17 17 -9 -3 -12 0 -9 9 5 12 10 12 29 -3 18
-13 21 -20 12 -31z m706 34 c-3 -9 -8 -14 -10 -11 -3 3 -2 9 2 15 9 16 15 13
8 -4z m-1443 -24 c0 -6 -4 -13 -10 -16 -5 -3 -10 1 -10 9 0 9 5 16 10 16 6 0
10 -4 10 -9z m3534 -7 c9 -22 8 -24 -9 -18 -8 4 -15 12 -15 20 0 19 16 18 24
-2z m-3504 2 c0 -3 -4 -8 -10 -11 -5 -3 -10 -1 -10 4 0 6 5 11 10 11 6 0 10
-2 10 -4z m185 -57 c-4 -5 -11 -9 -16 -9 -6 0 -7 5 -4 10 3 6 0 13 -9 16 -9 3
-12 12 -8 22 5 15 4 15 -11 3 -10 -7 -17 -9 -17 -3 0 6 6 13 13 15 15 6 60
-41 52 -54z m1425 52 c3 -1 11 -11 19 -23 7 -13 10 -20 6 -16 -12 11 -35 -11
-35 -33 0 -17 -9 -19 -48 -10 -2 1 10 12 25 25 26 23 15 31 -15 12 -7 -4 -16
-5 -19 -2 -4 3 0 6 8 6 10 1 9 3 -3 11 -10 5 -18 15 -18 21 0 7 4 7 14 -1 10
-9 15 -8 19 3 3 8 14 13 24 11 10 -2 20 -4 23 -4z m-142 -13 c9 -9 12 -9 12 0
0 21 25 13 36 -13 9 -19 9 -27 -1 -35 -6 -5 -15 -7 -18 -3 -4 3 -15 -1 -25
-10 -10 -10 -22 -14 -27 -10 -4 5 -5 2 -1 -4 10 -18 36 -16 36 2 0 8 5 15 11
15 6 0 9 -7 6 -14 -4 -10 -1 -13 7 -10 7 3 16 -2 19 -10 5 -12 -2 -14 -29 -13
-40 3 -82 42 -76 71 3 12 0 16 -8 11 -8 -5 -11 -3 -8 6 3 8 10 14 16 14 5 0
14 3 18 8 10 10 18 9 32 -5z m427 -7 c-3 -6 -11 -11 -17 -11 -6 0 -6 6 2 15
14 17 26 13 15 -4z m-1871 -7 c4 -9 4 -19 1 -22 -7 -8 -35 19 -29 29 8 14 21
11 28 -7z m-114 -15 c0 -6 -4 -7 -10 -4 -5 3 -10 11 -10 16 0 6 5 7 10 4 6 -3
10 -11 10 -16z m141 -2 c-10 -9 -11 -8 -5 6 3 10 9 15 12 12 3 -3 0 -11 -7
-18z m289 13 c0 -5 -5 -10 -11 -10 -5 0 -7 5 -4 10 3 6 8 10 11 10 2 0 4 -4 4
-10z m394 2 c3 -5 -4 -16 -15 -25 -17 -15 -19 -15 -19 -1 0 15 -2 15 -26 0
-14 -10 -33 -15 -42 -13 -12 3 -9 5 7 6 17 1 21 5 17 17 -4 11 -1 14 12 10 9
-3 24 -1 32 4 19 12 27 12 34 2z m291 -2 c3 -5 1 -10 -4 -10 -6 0 -11 5 -11
10 0 6 2 10 4 10 3 0 8 -4 11 -10z m831 -2 c4 -7 4 -10 -1 -6 -4 4 -14 3 -22
-3 -8 -8 -13 -8 -13 -1 0 6 6 13 13 15 6 3 13 6 14 6 1 1 5 -5 9 -11z m-1708
-8 c15 -1 16 -2 1 -13 -9 -7 -14 -18 -12 -25 3 -7 -1 -10 -10 -6 -8 3 -17 17
-20 30 -3 19 -1 24 10 20 8 -3 22 -6 31 -6z m1157 -38 c0 -19 5 -27 17 -27 30
0 41 -20 26 -44 -7 -11 -18 -21 -25 -21 -18 0 -16 17 2 24 8 3 15 10 15 16 0
6 -4 9 -9 5 -5 -3 -12 -1 -16 5 -4 6 -11 8 -16 4 -5 -3 -6 -10 -3 -16 4 -7 2
-8 -5 -4 -7 5 -9 12 -3 19 5 7 8 27 6 45 -1 18 1 30 4 27 3 -3 6 -18 7 -33z
m365 17 c0 -5 -4 -9 -10 -9 -5 0 -10 7 -10 16 0 8 5 12 10 9 6 -3 10 -10 10
-16z m-1730 0 c0 -5 4 -8 9 -5 5 3 11 -4 14 -15 4 -15 2 -19 -9 -15 -8 3 -14
1 -14 -4 0 -6 -4 -10 -10 -10 -5 0 -10 14 -10 30 0 17 5 30 10 30 6 0 10 -5
10 -11z m1705 -8 c4 -13 12 -18 23 -15 15 5 15 4 -1 -9 -17 -14 -21 -13 -38 4
-11 11 -17 24 -14 29 10 16 23 11 30 -9z m105 9 c0 -5 7 -7 15 -4 12 5 12 1
-1 -25 -13 -26 -19 -30 -30 -20 -10 8 -11 16 -5 22 5 5 7 16 4 23 -3 8 0 14 6
14 6 0 11 -4 11 -10z m-1574 -35 c-19 -20 -21 -19 -22 10 -2 21 1 23 17 14 17
-9 18 -12 5 -24z m594 25 c0 -5 -9 -14 -21 -20 -19 -11 -20 -10 -9 9 11 22 30
29 30 11z m-235 -20 c3 -5 1 -10 -4 -10 -6 0 -11 5 -11 10 0 6 2 10 4 10 3 0
8 -4 11 -10z m687 -12 c-7 -7 -12 -8 -12 -2 0 14 12 26 19 19 2 -3 -1 -11 -7
-17z m-78 -7 c-4 -48 -4 -47 -15 -28 -10 18 -39 24 -39 8 0 -13 -22 -19 -43
-12 -17 6 -16 8 3 29 16 17 30 22 58 19 20 -2 37 -9 36 -16z m397 -34 c-8 -8
-11 -7 -11 4 0 20 13 34 18 19 3 -7 -1 -17 -7 -23z m179 24 c0 -6 -4 -12 -8
-15 -5 -3 -9 1 -9 9 0 8 4 15 9 15 4 0 8 -4 8 -9z m-950 -13 c0 -11 -12 -10
-30 2 -12 7 -10 9 8 7 12 0 22 -5 22 -9z m888 -5 c-2 -9 -8 -18 -15 -20 -7 -3
-9 3 -6 16 6 25 26 28 21 4z m-1036 -17 c14 -20 8 -30 -5 -11 -8 10 -19 15
-24 12 -6 -4 -13 -1 -16 7 -7 16 34 9 45 -8z m898 20 c0 -3 -4 -8 -10 -11 -5
-3 -10 -1 -10 4 0 6 5 11 10 11 6 0 10 -2 10 -4z m-990 -16 c0 -5 -7 -10 -16
-10 -8 0 -12 5 -9 10 3 6 10 10 16 10 5 0 9 -4 9 -10z m503 -4 c15 -4 27 -11
27 -17 0 -6 -7 -9 -15 -5 -18 7 -20 -5 -3 -22 9 -9 9 -12 -1 -12 -7 0 -15 9
-18 20 -3 13 -14 20 -29 20 -23 0 -31 10 -18 23 3 3 11 4 17 2 7 -2 24 -6 40
-9z m77 -1 c0 -9 -9 -15 -22 -15 -21 0 -21 0 -2 15 24 18 24 18 24 0z m-306
-11 c9 -24 0 -29 -19 -11 -19 19 -19 27 -1 27 8 0 17 -7 20 -16z m2806 6 c0
-5 -7 -7 -15 -4 -8 4 -15 8 -15 10 0 2 7 4 15 4 8 0 15 -4 15 -10z m-2305 -20
c3 -5 1 -10 -4 -10 -6 0 -11 5 -11 10 0 6 2 10 4 10 3 0 8 -4 11 -10z m-535
-4 c0 -3 -4 -8 -10 -11 -5 -3 -10 -1 -10 4 0 6 5 11 10 11 6 0 10 -2 10 -4z
m230 -16 c0 -5 -5 -10 -11 -10 -5 0 -7 5 -4 10 3 6 8 10 11 10 2 0 4 -4 4 -10z
m220 -15 c-6 -8 -8 -20 -4 -27 6 -10 3 -9 -9 1 -18 14 -24 37 -8 26 5 -3 12
-1 16 5 3 5 9 10 12 10 3 0 0 -7 -7 -15z m120 5 c0 -5 -4 -10 -10 -10 -5 0
-10 5 -10 10 0 6 5 10 10 10 6 0 10 -4 10 -10z m2013 -60 c20 -1 20 -2 4 -11
-20 -11 -57 -3 -57 13 0 5 7 7 16 4 9 -3 25 -6 37 -6z m-3620 -17 c-6 -14 -33
-18 -33 -5 0 12 8 19 24 19 8 0 12 -6 9 -14z m247 -14 c0 -5 -4 -9 -10 -9 -5
0 -10 7 -10 16 0 8 5 12 10 9 6 -3 10 -10 10 -16z m-400 -56 c0 -3 -7 0 -15 7
-8 7 -15 22 -15 34 0 18 2 17 15 -8 8 -15 15 -31 15 -33z m360 27 c5 8 10 10
10 4 0 -18 -13 -24 -27 -13 -7 6 -13 19 -12 28 0 10 4 6 10 -9 8 -20 12 -22
19 -10z m-280 10 c0 -5 -2 -10 -4 -10 -3 0 -8 5 -11 10 -3 6 -1 10 4 10 6 0
11 -4 11 -10z m3767 4 c-3 -3 -12 -4 -19 -1 -8 3 -5 6 6 6 11 1 17 -2 13 -5z
m-3715 -32 c-8 -2 -4 -11 10 -23 l23 -19 -27 11 c-21 9 -31 9 -43 -1 -8 -7
-15 -8 -15 -2 0 5 -7 9 -16 8 -9 0 -18 7 -19 17 -2 9 1 17 6 17 5 0 9 -4 9
-10 0 -15 36 -12 50 5 7 8 17 12 23 8 8 -5 7 -8 -1 -11z m120 -34 c-7 -7 -12
-8 -12 -2 0 6 3 14 7 17 3 4 9 5 12 2 2 -3 -1 -11 -7 -17z m2556 0 c18 -18
-26 -37 -61 -25 -22 7 -25 12 -16 23 14 17 61 18 77 2z m-2508 -8 c0 -5 -5
-10 -11 -10 -8 0 -8 -5 1 -15 8 -9 9 -15 2 -15 -6 0 -14 5 -17 10 -4 6 -11 8
-16 5 -5 -4 -9 -2 -9 4 0 10 28 30 43 31 4 0 7 -4 7 -10z m-273 -22 c3 6 9 10
14 6 5 -3 9 -1 9 5 0 6 7 8 16 4 17 -6 16 -61 -1 -54 -5 1 -9 7 -7 12 2 10
-12 12 -21 2 -4 -3 -2 -12 5 -20 9 -11 5 -13 -19 -11 -22 1 -29 6 -25 17 4 11
0 13 -17 8 -16 -4 -21 -2 -18 8 3 7 0 18 -6 25 -9 10 -8 12 5 7 10 -3 20 -1
24 5 5 7 12 5 22 -8 10 -13 16 -15 19 -6z m163 11 c0 -20 -40 -48 -58 -41 -15
6 -15 7 2 10 15 3 16 6 5 13 -11 6 -8 9 9 9 12 0 22 5 22 10 0 6 5 10 10 10 6
0 10 -5 10 -11z m2682 -1 c-9 -9 -15 -9 -24 0 -9 9 -7 12 12 12 19 0 21 -3 12
-12z m-2473 -30 c11 -11 14 -10 18 0 3 6 9 10 14 6 12 -7 -15 -34 -35 -34 -10
0 -13 6 -9 18 4 11 -1 9 -16 -8 -12 -14 -19 -19 -16 -12 4 8 2 13 -6 11 -26
-3 -39 1 -39 12 0 8 5 8 15 -1 9 -8 15 -8 15 -2 0 9 11 15 41 21 3 0 11 -5 18
-11z m-429 -43 c0 -8 -2 -15 -4 -15 -2 0 -6 7 -10 15 -3 8 -1 15 4 15 6 0 10
-7 10 -15z m170 11 c0 -3 -4 -8 -10 -11 -5 -3 -10 -1 -10 4 0 6 5 11 10 11 6
0 10 -2 10 -4z m119 -8 c-3 -24 13 -58 27 -58 8 0 14 -6 14 -12 0 -9 3 -8 10
2 13 21 24 5 26 -38 1 -34 -1 -37 -27 -39 -25 -2 -30 2 -39 37 -12 44 -25 51
-35 18 -4 -11 -17 -31 -30 -42 -12 -12 -20 -27 -17 -35 3 -9 0 -11 -7 -7 -12
8 -5 46 10 56 14 9 30 60 18 60 -6 0 -7 5 -3 11 3 6 14 9 24 6 13 -3 17 0 13
9 -3 8 -12 14 -20 14 -8 0 -11 5 -8 10 4 6 11 8 16 5 5 -4 9 -1 9 4 0 6 5 11
10 11 6 0 10 -6 9 -12z m71 -8 c13 -8 13 -10 -2 -10 -9 0 -20 5 -23 10 -8 13
5 13 25 0z m73 -31 c-17 -17 -37 -1 -22 17 8 10 15 12 23 4 7 -7 7 -13 -1 -21z
m122 -7 c-3 -3 -11 0 -18 7 -9 10 -8 11 6 5 10 -3 15 -9 12 -12z m146 -45
c-13 -13 -26 -3 -16 12 3 6 11 8 17 5 6 -4 6 -10 -1 -17z m-221 -17 c5 0 7 -9
5 -20 -3 -14 2 -20 16 -20 10 0 19 -4 19 -8 0 -4 14 -13 32 -20 l31 -12 -27
-25 c-15 -14 -24 -31 -21 -38 4 -6 -3 -2 -14 11 -11 13 -25 21 -30 18 -5 -4
-12 -2 -15 2 -3 5 -18 9 -33 10 -45 1 -58 6 -65 25 -11 25 8 55 38 63 13 3 30
16 36 28 11 18 13 19 16 4 2 -10 7 -18 12 -18z m-374 7 c6 2 14 -2 17 -10 7
-19 -38 -10 -55 11 -11 13 -10 14 7 5 11 -6 25 -8 31 -6z m2860 -22 c-3 -8
-10 -15 -15 -15 -5 0 -4 11 2 25 12 25 23 16 13 -10z m-475 -3 c10 -25 1 -28
-26 -9 -10 8 -15 19 -11 26 11 17 28 9 37 -17z m-2436 8 c3 -5 2 -10 -4 -10
-5 0 -13 5 -16 10 -3 6 -2 10 4 10 5 0 13 -4 16 -10z m535 -6 c0 -8 -4 -12
-10 -9 -5 3 -10 10 -10 16 0 5 5 9 10 9 6 0 10 -7 10 -16z m73 -1 c-3 -7 -9
-13 -13 -13 -4 0 -10 6 -13 13 -3 7 3 13 13 13 10 0 16 -6 13 -13z m87 7 c0
-5 -5 -10 -11 -10 -5 0 -7 5 -4 10 3 6 8 10 11 10 2 0 4 -4 4 -10z m2264 -16
c4 -9 4 -19 1 -22 -3 -3 -5 0 -5 6 0 7 -7 12 -15 12 -8 0 -15 5 -15 10 0 16
27 11 34 -6z m-2714 -16 c21 -23 26 -38 11 -38 -5 0 -16 14 -25 30 -17 36 -14
38 14 8z m2350 12 c0 -5 -4 -10 -10 -10 -5 0 -10 -6 -10 -14 0 -9 -10 -13 -30
-12 -29 2 -46 -16 -34 -35 3 -5 1 -9 -5 -9 -17 0 -22 18 -10 38 22 35 99 68
99 42z m-2532 -25 c-7 -16 -7 -29 1 -43 25 -47 5 -58 -21 -12 -10 17 -13 32
-7 35 5 4 9 14 9 24 0 10 6 18 14 18 11 0 12 -5 4 -22z m622 3 c5 -13 9 -17 9
-10 1 16 31 16 31 -1 0 -20 -43 -37 -63 -25 -13 7 -17 5 -17 -7 0 -8 -7 -15
-16 -15 -10 0 -14 6 -11 14 3 8 -1 20 -9 26 -8 7 -14 18 -14 24 0 6 7 2 16 -9
18 -25 66 -32 57 -9 -3 9 -15 20 -27 24 -19 8 -19 9 7 9 20 1 30 -5 37 -21z
m1596 -5 c-5 -39 -6 -41 -15 -18 -9 22 -4 45 9 45 5 0 7 -12 6 -27z m-1736 13
c0 -3 -4 -8 -10 -11 -5 -3 -10 -1 -10 4 0 6 5 11 10 11 6 0 10 -2 10 -4z
m2250 -6 c0 -5 -2 -10 -4 -10 -3 0 -8 5 -11 10 -3 6 -1 10 4 10 6 0 11 -4 11
-10z m-580 -26 c-1 -4 4 -10 10 -14 9 -5 6 -13 -8 -26 -11 -11 -34 -36 -51
-58 -17 -21 -31 -34 -31 -27 0 6 9 20 19 30 14 14 16 22 8 31 -9 8 -8 10 6 5
10 -5 17 -2 17 5 0 7 8 19 18 27 15 12 14 13 -10 7 -16 -4 -28 -2 -28 4 0 5 8
9 17 8 10 0 18 5 19 12 3 23 6 27 11 15 2 -7 4 -15 3 -19z m132 14 c-7 -7 -12
-20 -12 -30 0 -10 -4 -18 -10 -18 -5 0 -8 10 -6 23 3 12 5 25 5 30 1 4 9 7 18
7 13 0 14 -3 5 -12z m-1614 -34 c-11 -11 -18 -12 -22 -5 -4 6 0 11 8 11 9 0
16 5 16 12 0 6 3 8 7 4 4 -3 0 -14 -9 -22z m1282 10 c0 -8 -5 -12 -10 -9 -6 4
-8 11 -5 16 9 14 15 11 15 -7z m380 5 c13 -9 13 -10 -1 -6 -9 3 -22 0 -28 -6
-7 -7 -11 -7 -11 -1 0 24 17 29 40 13z m-2196 -8 c4 -5 -3 -7 -14 -4 -23 6
-26 13 -6 13 8 0 17 -4 20 -9z m2723 2 c-4 -3 -2 -12 5 -20 20 -24 3 -22 -19
3 l-21 24 20 0 c12 0 18 -3 15 -7z m-2683 -19 c4 -10 1 -14 -6 -12 -15 5 -23
28 -10 28 5 0 13 -7 16 -16z m3399 1 c-3 -9 -8 -14 -10 -11 -3 3 -2 9 2 15 9
16 15 13 8 -4z m-3489 -47 c18 -29 18 -31 2 -25 -10 4 -23 7 -29 7 -7 0 -6 4
2 9 12 8 12 12 2 25 -8 9 -9 16 -4 16 5 0 17 -14 27 -32z m481 -33 c0 -18 5
-29 13 -27 14 2 16 -14 3 -22 -11 -7 -28 14 -29 34 0 8 -3 31 -7 50 -6 31 -5
33 7 15 7 -11 13 -33 13 -50z m1738 58 c-7 -2 -19 -2 -25 0 -7 3 -2 5 12 5 14
0 19 -2 13 -5z m94 -13 c1 -11 -2 -20 -7 -20 -6 0 -7 17 -1 38 3 8 7 -1 8 -18z
m1113 16 c0 -3 -4 -8 -10 -11 -5 -3 -10 -1 -10 4 0 6 5 11 10 11 6 0 10 -2 10
-4z m-3370 -16 c8 -5 12 -12 9 -15 -8 -8 -39 5 -39 16 0 11 11 11 30 -1z m32
-22 c-9 -9 -12 -7 -12 12 0 19 3 21 12 12 9 -9 9 -15 0 -24z m-187 12 c3 -5 1
-10 -4 -10 -6 0 -11 5 -11 10 0 6 2 10 4 10 3 0 8 -4 11 -10z m2190 -10 c-3
-5 -11 -10 -16 -10 -6 0 -7 5 -4 10 3 6 11 10 16 10 6 0 7 -4 4 -10z m582 -22
c-3 -8 -6 -5 -6 6 -1 11 2 17 5 13 3 -3 4 -12 1 -19z m-2240 -19 c5 -28 -12
-42 -36 -29 -16 8 -26 8 -35 1 -8 -6 -21 -9 -30 -5 -20 8 -21 22 -2 20 8 0 15
4 15 9 0 10 55 24 76 20 6 -1 11 -8 12 -16z m1853 7 c0 -3 -4 -8 -10 -11 -5
-3 -10 -1 -10 4 0 6 5 11 10 11 6 0 10 -2 10 -4z m-422 -24 c2 -7 -1 -12 -7
-12 -6 0 -11 4 -11 9 0 5 -10 7 -22 5 -21 -4 -22 -4 -3 5 24 11 37 9 43 -7z
m-1728 -1 c0 -9 -24 -21 -43 -21 -6 0 -2 7 9 15 22 17 34 19 34 6z m140 -1 c0
-5 -7 -10 -16 -10 -8 0 -12 5 -9 10 3 6 10 10 16 10 5 0 9 -4 9 -10z m1655 0
c-3 -5 -13 -10 -21 -10 -8 0 -14 5 -14 10 0 6 9 10 21 10 11 0 17 -4 14 -10z
m-1721 -19 c3 -4 17 -6 31 -4 13 3 32 2 41 -1 16 -6 16 -8 0 -25 -9 -9 -13
-21 -9 -25 4 -4 -1 -4 -12 0 -34 12 -36 15 -23 32 11 15 11 15 -3 5 -9 -7 -19
-9 -23 -5 -4 4 -6 2 -4 -4 2 -7 -1 -11 -7 -10 -5 0 -9 10 -8 21 1 11 -1 14 -3
8 -3 -7 -10 -13 -16 -13 -6 0 -6 6 2 15 14 17 26 19 34 6z m250 -15 c-6 -15
-24 -23 -24 -11 0 8 24 34 28 30 1 -1 0 -10 -4 -19z m1501 -6 c3 -5 2 -10 -4
-10 -5 0 -13 5 -16 10 -3 6 -2 10 4 10 5 0 13 -4 16 -10z m-1355 -16 c0 -8 -4
-12 -10 -9 -5 3 -10 10 -10 16 0 5 5 9 10 9 6 0 10 -7 10 -16z m30 6 c0 -5 -5
-10 -11 -10 -5 0 -7 5 -4 10 3 6 8 10 11 10 2 0 4 -4 4 -10z m1025 -26 c-9 -7
-25 -9 -37 -6 -18 4 -20 2 -16 -16 4 -13 2 -20 -3 -16 -6 3 -15 1 -22 -5 -21
-17 -36 1 -25 29 10 24 11 24 18 5 5 -11 9 -14 9 -8 1 7 12 15 25 19 16 4 23
11 19 20 -5 12 -1 13 22 2 24 -11 25 -13 10 -24z m45 16 c0 -5 -2 -10 -4 -10
-3 0 -8 5 -11 10 -3 6 -1 10 4 10 6 0 11 -4 11 -10z m340 6 c0 -2 -7 -7 -16
-10 -8 -3 -12 -2 -9 4 6 10 25 14 25 6z m40 0 c0 -3 -4 -8 -10 -11 -5 -3 -10
-1 -10 4 0 6 5 11 10 11 6 0 10 -2 10 -4z m1558 -21 c-6 -14 -13 -24 -14 -22
-6 6 9 47 17 47 5 0 3 -11 -3 -25z m-3226 -12 c-4 -22 -5 -22 -18 -6 -18 24
-17 32 4 30 14 -1 17 -7 14 -24z m118 23 c0 -3 -4 -8 -10 -11 -5 -3 -10 -1
-10 4 0 6 5 11 10 11 6 0 10 -2 10 -4z m-19 -48 c-11 -10 -12 -10 -7 0 4 6 2
12 -3 12 -6 0 -11 8 -11 17 0 16 1 16 17 0 14 -14 15 -19 4 -29z m143 -3 c3
-8 1 -15 -3 -15 -5 0 -11 7 -15 15 -3 8 -1 15 3 15 5 0 11 -7 15 -15z m1316
-5 c-20 -13 -33 -13 -25 0 3 6 14 10 23 10 15 0 15 -2 2 -10z m200 6 c0 -11
-19 -15 -25 -6 -3 5 1 10 9 10 9 0 16 -2 16 -4z m810 0 c0 -3 -4 -8 -10 -11
-5 -3 -10 -1 -10 4 0 6 5 11 10 11 6 0 10 -2 10 -4z m-453 -37 c2 -17 -3 -21
-23 -18 -4 0 -11 -5 -16 -13 -11 -14 -8 -4 8 36 6 15 4 17 -6 11 -8 -5 -11 -4
-7 3 11 16 43 3 44 -19z m25 -21 c-9 -9 -12 -7 -12 12 0 19 3 21 12 12 9 -9 9
-15 0 -24z m-1561 -50 c11 -21 11 -22 -4 -9 -10 7 -17 17 -17 22 0 15 9 10 21
-13z m-41 -42 c0 -3 -4 -8 -10 -11 -5 -3 -10 -1 -10 4 0 6 5 11 10 11 6 0 10
-2 10 -4z m-285 -16 c3 -5 1 -10 -4 -10 -6 0 -11 5 -11 10 0 6 2 10 4 10 3 0
8 -4 11 -10z m2865 -28 c0 -4 -13 -19 -30 -34 -27 -24 -30 -24 -35 -7 -7 20 2
42 14 35 4 -3 13 -1 21 5 18 11 30 12 30 1z m-170 -72 c0 -5 -7 -7 -15 -4 -8
4 -15 8 -15 10 0 2 7 4 15 4 8 0 15 -4 15 -10z m-287 -37 c-7 -3 -13 -11 -13
-18 0 -21 -17 -27 -24 -8 -4 10 -4 14 0 10 4 -4 14 2 22 14 8 11 17 17 21 13
3 -4 0 -9 -6 -11z m-425 -39 c10 -17 5 -54 -7 -54 -44 1 -65 32 -39 58 17 17
35 15 46 -4z m84 -5 c17 -9 18 -13 7 -20 -21 -13 -26 -11 -32 11 -6 23 -3 24
25 9z m238 5 c0 -8 -19 -13 -24 -6 -3 5 1 9 9 9 8 0 15 -2 15 -3z m-272 -23
c3 -8 -1 -12 -9 -9 -7 2 -15 10 -17 17 -3 8 1 12 9 9 7 -2 15 -10 17 -17z
m112 9 c0 -5 -4 -10 -9 -10 -6 0 -13 5 -16 10 -3 6 1 10 9 10 9 0 16 -4 16
-10z m117 -22 c-3 -8 -6 -5 -6 6 -1 11 2 17 5 13 3 -3 4 -12 1 -19z m-457 -88
c0 -5 -2 -10 -4 -10 -3 0 -8 5 -11 10 -3 6 -1 10 4 10 6 0 11 -4 11 -10z
m-201 -54 c-1 -20 -1 -20 -7 2 -4 13 -10 23 -14 23 -27 -3 -32 0 -18 9 19 12
40 -6 39 -34z m171 -16 c0 -5 -4 -10 -10 -10 -5 0 -10 5 -10 10 0 6 5 10 10
10 6 0 10 -4 10 -10z m-295 -30 c3 -5 2 -10 -4 -10 -5 0 -13 5 -16 10 -3 6 -2
10 4 10 5 0 13 -4 16 -10z m-15 -64 c0 -3 -4 -8 -10 -11 -5 -3 -10 -1 -10 4 0
6 5 11 10 11 6 0 10 -2 10 -4z m117 -2 c-3 -3 -12 -4 -19 -1 -8 3 -5 6 6 6 11
1 17 -2 13 -5z m-87 -79 c0 -8 -4 -15 -10 -15 -5 0 -10 7 -10 15 0 8 5 15 10
15 6 0 10 -7 10 -15z m170 -10 c-13 -15 -35 -11 -24 6 3 5 10 7 15 4 5 -4 9
-1 9 6 0 7 3 9 6 6 4 -4 1 -13 -6 -22z m-100 1 c0 -3 -4 -8 -10 -11 -5 -3 -10
-1 -10 4 0 6 5 11 10 11 6 0 10 -2 10 -4z m-110 -21 c0 -2 -9 -9 -20 -15 -16
-9 -18 -8 -14 5 5 13 34 22 34 10z m27 -27 c-3 -8 -6 -5 -6 6 -1 11 2 17 5 13
3 -3 4 -12 1 -19z m83 -23 c-14 -25 -30 -33 -30 -15 0 6 7 13 15 16 8 4 15 13
15 22 0 8 3 12 7 9 3 -4 0 -18 -7 -32z m-40 11 c0 -3 -4 -8 -10 -11 -5 -3 -10
-1 -10 4 0 6 5 11 10 11 6 0 10 -2 10 -4z m-90 -26 c0 -5 -5 -10 -11 -10 -5 0
-7 5 -4 10 3 6 8 10 11 10 2 0 4 -4 4 -10z m-1150 -16 c22 -9 26 -12 10 -9
-14 2 -33 5 -42 5 -10 0 -18 5 -18 10 0 13 7 12 50 -6z m860 -6 c0 -16 -3 -19
-11 -11 -6 6 -8 16 -5 22 11 17 16 13 16 -11z m-300 2 c0 -5 -4 -10 -10 -10
-5 0 -10 5 -10 10 0 6 5 10 10 10 6 0 10 -4 10 -10z m740 6 c0 -2 -8 -10 -17
-17 -16 -13 -17 -12 -4 4 13 16 21 21 21 13z m-1220 -16 c0 -5 -4 -10 -10 -10
-5 0 -10 5 -10 10 0 6 5 10 10 10 6 0 10 -4 10 -10z m810 -25 c-7 -9 -15 -13
-17 -11 -7 7 7 26 19 26 6 0 6 -6 -2 -15z m-390 -4 c0 -5 -7 -12 -16 -15 -14
-5 -15 -4 -4 9 14 17 20 19 20 6z m450 -1 c0 -5 -4 -10 -10 -10 -5 0 -10 5
-10 10 0 6 5 10 10 10 6 0 10 -4 10 -10z"/>
<path d="M3439 2073 c-13 -16 -12 -17 4 -4 16 13 21 21 13 21 -2 0 -10 -8 -17
-17z"/>
<path d="M3395 2060 c-3 -5 1 -10 10 -10 9 0 13 5 10 10 -3 6 -8 10 -10 10 -2
0 -7 -4 -10 -10z"/>
<path d="M3705 2019 c-4 -6 -5 -12 -2 -15 2 -3 7 2 10 11 7 17 1 20 -8 4z"/>
<path d="M2501 1389 c4 -9 5 -19 2 -23 -3 -3 -2 -6 3 -6 14 0 34 22 34 36 0 7
-11 11 -24 10 -19 -1 -22 -4 -15 -17z"/>
<path d="M2715 1300 c-4 -6 -11 -8 -16 -5 -5 3 -6 -1 -3 -9 8 -20 12 -20 30
-2 8 8 10 17 5 21 -5 3 -12 1 -16 -5z"/>
<path d="M5000 680 c0 -5 4 -10 9 -10 6 0 13 5 16 10 3 6 -1 10 -9 10 -9 0
-16 -4 -16 -10z"/>
<path d="M4260 4020 c0 -5 7 -10 16 -10 8 0 12 5 9 10 -3 6 -10 10 -16 10 -5
0 -9 -4 -9 -10z"/>
<path d="M4178 4013 c7 -3 16 -2 19 1 4 3 -2 6 -13 5 -11 0 -14 -3 -6 -6z"/>
<path d="M3473 3990 c-13 -5 -23 -12 -23 -15 0 -8 53 6 65 16 12 12 -13 11
-42 -1z"/>
<path d="M3250 3935 c-7 -8 -9 -15 -6 -15 4 0 14 7 22 15 9 8 11 15 6 15 -5 0
-15 -7 -22 -15z"/>
<path d="M3200 3930 c-8 -5 -10 -10 -5 -10 6 0 17 5 25 10 8 5 11 10 5 10 -5
0 -17 -5 -25 -10z"/>
<path d="M2769 3801 c-13 -11 -19 -20 -13 -21 15 0 50 27 43 34 -3 4 -17 -2
-30 -13z"/>
<path d="M2735 3750 c-3 -5 1 -10 9 -10 9 0 16 5 16 10 0 6 -4 10 -9 10 -6 0
-13 -4 -16 -10z"/>
<path d="M3666 3751 c-4 -6 -14 -7 -24 -4 -15 6 -15 5 -3 -11 13 -15 16 -15
30 -2 8 9 12 18 9 21 -3 4 -9 2 -12 -4z"/>
<path d="M5570 3735 c0 -8 62 -37 68 -31 3 4 1 10 -4 15 -11 10 -64 24 -64 16z"/>
<path d="M2630 3720 c-8 -5 -10 -10 -5 -10 6 0 17 5 25 10 8 5 11 10 5 10 -5
0 -17 -5 -25 -10z"/>
<path d="M4676 3709 c28 -31 50 -40 79 -33 38 9 30 26 -9 18 -28 -5 -37 -2
-48 15 -7 12 -19 21 -27 21 -11 0 -9 -5 5 -21z"/>
<path d="M3905 3630 c-16 -7 -17 -9 -3 -9 9 -1 20 4 23 9 7 11 7 11 -20 0z"/>
<path d="M3370 3619 c-23 -9 -23 -11 -7 -20 18 -11 47 3 47 22 0 11 -8 11 -40
-2z"/>
<path d="M3991 3601 c-11 -7 -10 -12 5 -29 30 -31 58 -35 87 -11 15 11 27 25
27 31 0 7 -10 2 -23 -10 -30 -28 -77 -30 -77 -3 0 11 6 22 13 24 8 4 7 6 -3 6
-8 0 -21 -3 -29 -8z"/>
<path d="M3100 3577 c0 -10 -7 -31 -15 -47 -10 -19 -11 -30 -5 -30 18 0 43 71
31 83 -8 8 -11 6 -11 -6z"/>
<path d="M4435 3574 c29 -22 63 -28 88 -16 21 10 20 11 -8 11 -17 1 -46 5 -65
11 -32 9 -34 8 -15 -6z"/>
<path d="M2374 3565 c-10 -8 -14 -14 -9 -14 6 0 19 6 29 14 11 8 15 15 10 15
-6 0 -19 -7 -30 -15z"/>
<path d="M3306 3571 c-11 -4 -15 -10 -10 -13 13 -8 64 2 64 13 0 11 -27 11
-54 0z"/>
<path d="M3620 3569 c0 -5 5 -7 10 -4 6 3 10 8 10 11 0 2 -4 4 -10 4 -5 0 -10
-5 -10 -11z"/>
<path d="M4227 3563 c15 -7 44 -9 63 -6 61 10 51 18 -21 18 -64 0 -68 -1 -42
-12z"/>
<path d="M3271 3524 c0 -11 3 -14 6 -6 3 7 2 16 -1 19 -3 4 -6 -2 -5 -13z"/>
<path d="M3320 3530 c0 -5 5 -10 10 -10 6 0 10 5 10 10 0 6 -4 10 -10 10 -5 0
-10 -4 -10 -10z"/>
<path d="M4016 3514 c-15 -40 0 -59 20 -26 8 13 8 20 -1 29 -10 9 -15 9 -19
-3z"/>
<path d="M3215 3510 c-8 -13 5 -13 25 0 13 8 13 10 -2 10 -9 0 -20 -4 -23 -10z"/>
<path d="M4181 3499 c5 -10 14 -19 19 -19 14 0 -11 -38 -29 -45 -9 -3 -12 -3
-9 1 6 6 -17 64 -26 64 -7 0 -2 -36 6 -47 5 -7 7 -16 4 -21 -9 -14 14 -29 57
-36 28 -5 37 -11 33 -22 -3 -8 1 -14 10 -14 8 0 12 5 9 10 -9 14 3 47 19 53 8
3 24 -4 37 -16 20 -19 22 -19 16 -3 -4 11 -2 25 5 34 11 13 10 14 -11 7 -21
-6 -23 -5 -18 14 3 11 1 23 -4 26 -8 6 -49 -14 -60 -29 -4 -4 -12 6 -20 22 -7
17 -21 33 -31 35 -15 4 -16 2 -7 -14z m63 -68 c3 -4 3 -11 0 -14 -8 -7 -44 4
-44 14 0 12 37 12 44 0z"/>
<path d="M3450 3490 c-13 -8 -12 -10 3 -10 9 0 17 5 17 10 0 12 -1 12 -20 0z"/>
<path d="M3490 3490 c0 -6 7 -10 15 -10 8 0 15 2 15 4 0 2 -7 6 -15 10 -8 3
-15 1 -15 -4z"/>
<path d="M3980 3490 c-13 -8 -12 -10 3 -10 9 0 17 5 17 10 0 12 -1 12 -20 0z"/>
<path d="M4090 3481 c0 -12 5 -21 10 -21 6 0 10 6 10 14 0 8 -4 18 -10 21 -5
3 -10 -3 -10 -14z"/>
<path d="M4160 3487 c0 -8 7 -17 15 -21 8 -3 15 -3 15 0 0 3 -7 12 -15 20 -13
13 -15 13 -15 1z"/>
<path d="M4054 3476 c-19 -14 -19 -15 3 -35 17 -16 22 -17 27 -6 3 8 1 15 -5
15 -6 0 -8 9 -4 20 8 24 5 25 -21 6z"/>
<path d="M4464 3470 c0 -11 6 -15 18 -12 10 2 18 8 18 12 0 4 -8 10 -18 12
-12 3 -18 -1 -18 -12z"/>
<path d="M2276 3463 c-6 -14 -5 -15 5 -6 7 7 10 15 7 18 -3 3 -9 -2 -12 -12z"/>
<path d="M3531 3478 c2 -2 18 -14 34 -28 l30 -25 -24 28 c-14 15 -29 27 -34
27 -6 0 -8 -1 -6 -2z"/>
<path d="M4026 3437 c3 -10 9 -15 12 -12 3 3 0 11 -7 18 -10 9 -11 8 -5 -6z"/>
<path d="M3877 3396 c3 -25 2 -52 -3 -59 -5 -7 -1 -4 9 7 13 14 17 29 13 50
-10 50 -24 51 -19 2z"/>
<path d="M2521 3414 c0 -11 3 -14 6 -6 3 7 2 16 -1 19 -3 4 -6 -2 -5 -13z"/>
<path d="M3581 3409 c-27 -29 -17 -39 11 -11 12 12 19 24 16 27 -3 4 -15 -4
-27 -16z"/>
<path d="M4280 3390 c0 -5 7 -10 16 -10 8 0 12 5 9 10 -3 6 -10 10 -16 10 -5
0 -9 -4 -9 -10z"/>
<path d="M4960 3212 c0 -6 -7 -9 -15 -6 -19 8 -20 -10 -1 -25 11 -9 15 -7 19
11 4 12 4 24 2 27 -3 2 -5 -1 -5 -7z"/>
<path d="M4575 3200 c-3 -5 -1 -10 4 -10 6 0 11 5 11 10 0 6 -2 10 -4 10 -3 0
-8 -4 -11 -10z"/>
<path d="M4970 3120 c0 -5 5 -10 11 -10 5 0 7 5 4 10 -3 6 -8 10 -11 10 -2 0
-4 -4 -4 -10z"/>
<path d="M3499 2903 c54 -67 108 -100 219 -133 23 -8 48 -20 55 -29 9 -12 9
-13 0 -7 -9 5 -13 -1 -13 -21 0 -33 25 -73 44 -73 8 0 16 -7 19 -15 9 -22 -44
-28 -143 -16 -109 13 -181 45 -258 115 -38 36 -72 58 -93 62 -19 4 -40 13 -46
22 -19 24 -29 5 -15 -30 7 -19 8 -36 3 -41 -5 -5 -46 -22 -92 -38 -88 -31
-117 -48 -83 -50 36 -2 89 3 99 9 22 14 64 17 113 6 47 -9 39 -19 -21 -22 -92
-4 -185 -23 -191 -38 -3 -8 -19 -14 -36 -14 -41 0 -71 -16 -64 -35 4 -8 1 -15
-5 -15 -20 0 -61 -48 -55 -64 3 -9 -3 -19 -18 -27 l-23 -12 25 -7 c14 -4 65
-1 115 6 105 16 506 17 725 3 80 -5 191 -19 248 -30 111 -22 156 -21 78 2 -41
12 -44 15 -24 20 12 3 56 4 97 1 55 -4 72 -2 67 6 -10 17 3 15 20 -2 10 -10
22 -12 42 -7 19 6 31 4 40 -5 15 -16 32 -18 32 -4 0 6 9 10 20 10 11 0 20 5
20 10 0 6 -4 10 -9 10 -4 0 -7 11 -6 24 3 26 -37 76 -60 76 -8 0 -15 5 -15 10
0 7 13 9 33 5 17 -3 77 -7 132 -9 l100 -4 -50 16 c-45 15 -50 20 -53 48 -2 18
-12 40 -23 50 -10 9 -19 22 -19 29 0 18 55 75 73 75 25 0 21 17 -5 26 -25 9
-108 12 -108 4 0 -3 -28 -5 -62 -6 -35 0 -72 -1 -83 -2 -11 -1 -83 0 -161 1
-140 4 -141 4 -185 36 -25 17 -59 33 -77 36 -41 5 -122 -22 -122 -41 0 -8 -5
-14 -11 -14 -6 0 -8 9 -4 20 4 14 2 20 -9 20 -8 0 -28 11 -44 25 -17 14 -35
25 -41 25 -6 0 -11 5 -11 11 0 6 -6 9 -14 6 -8 -3 -17 -3 -20 1 -4 3 -14 7
-24 8 -9 1 -26 5 -36 10 -15 6 -12 -2 13 -33z m301 -96 c40 -20 45 -26 47 -57
1 -19 -1 -26 -4 -15 -7 28 -33 54 -47 49 -7 -3 -19 2 -26 11 -7 8 -21 15 -31
15 -11 0 -19 5 -19 10 0 16 31 11 80 -13z m445 -123 c13 -5 9 -11 -17 -31 -18
-13 -41 -22 -50 -20 -9 3 -19 0 -21 -7 -3 -8 -8 -8 -19 2 -9 7 -23 9 -33 6
-13 -5 -16 -2 -13 12 2 14 18 21 63 30 33 6 63 12 67 13 3 0 14 -2 23 -5z"/>
<path d="M2065 2888 c-33 -28 -45 -50 -27 -47 18 3 32 -2 32 -12 0 -5 -5 -7
-12 -3 -7 4 -8 3 -4 -5 4 -6 12 -9 17 -6 5 4 9 1 9 -5 0 -6 5 -8 10 -5 6 3 10
3 10 -2 0 -11 51 -34 62 -27 5 3 1 12 -9 21 -17 13 -17 14 2 4 45 -21 110
-115 100 -143 -10 -28 13 -42 79 -45 57 -3 67 -1 76 17 10 18 13 19 43 7 18
-8 37 -12 44 -10 6 2 14 -1 18 -6 3 -6 30 -10 58 -9 l52 1 -50 7 c-45 6 -41
10 15 15 28 2 40 16 40 49 0 29 4 34 39 44 38 12 76 42 52 42 -22 0 -11 18 17
28 26 8 26 9 -28 29 -73 27 -218 31 -254 8 -24 -16 -28 -15 -79 8 -53 24 -54
24 -80 5 -15 -11 -27 -15 -27 -10 0 12 -54 32 -87 32 -15 0 -26 8 -32 23 -13
32 -46 31 -86 -5z m69 -33 c7 -19 -5 -19 -30 0 -19 14 -19 14 2 15 12 0 24 -7
28 -15z m370 -71 c11 -28 6 -54 -10 -61 -9 -3 -28 -17 -42 -30 -29 -26 -49
-27 -66 -1 -8 14 -2 25 34 62 47 48 74 57 84 30z m-274 2 c0 -3 -4 -8 -10 -11
-5 -3 -10 -1 -10 4 0 6 5 11 10 11 6 0 10 -2 10 -4z m22 -18 c-7 -7 -12 -8
-12 -2 0 14 12 26 19 19 2 -3 -1 -11 -7 -17z m88 -78 c22 -31 16 -40 -12 -17
-18 14 -31 47 -18 47 5 0 18 -13 30 -30z"/>
<path d="M5150 2900 c0 -5 5 -10 10 -10 6 0 10 5 10 10 0 6 -4 10 -10 10 -5 0
-10 -4 -10 -10z"/>
<path d="M3286 2853 c-11 -12 -6 -19 14 -19 11 0 20 3 20 7 0 10 -27 19 -34
12z"/>
<path d="M4583 2787 c-17 -7 -35 -15 -39 -19 -15 -15 42 -7 81 11 34 17 36 19
15 19 -14 0 -39 -5 -57 -11z"/>
<path d="M2645 2539 c5 -15 4 -19 -4 -15 -6 4 -11 0 -11 -8 0 -18 25 -22 35
-6 3 6 19 10 36 10 16 0 29 -4 29 -10 0 -5 4 -10 9 -10 13 0 20 35 11 51 -7
10 -12 10 -26 -2 -13 -11 -18 -11 -21 -1 -3 6 -18 12 -35 12 -25 0 -28 -3 -23
-21z"/>
<path d="M2230 2529 c0 -9 3 -30 6 -47 7 -35 12 -36 167 -57 l38 -5 -3 57 c-2
48 -6 58 -20 57 -10 -1 -18 3 -18 9 0 5 -8 3 -18 -6 -22 -20 -39 -22 -45 -4
-2 7 -23 12 -55 12 -41 0 -52 -3 -52 -16z m130 -29 c0 -5 -2 -10 -4 -10 -3 0
-8 5 -11 10 -3 6 -1 10 4 10 6 0 11 -4 11 -10z"/>
<path d="M4818 2533 c12 -2 30 -2 40 0 9 3 -1 5 -23 4 -22 0 -30 -2 -17 -4z"/>
<path d="M2810 2510 c0 -5 5 -10 10 -10 6 0 10 -4 10 -10 0 -11 -22 -9 -31 3
-3 5 -6 -5 -5 -22 1 -28 4 -31 34 -31 34 0 43 14 16 24 -8 3 -13 10 -10 15 8
12 -3 41 -15 41 -5 0 -9 -4 -9 -10z"/>
<path d="M2635 2481 c-6 -11 13 -26 22 -17 4 3 1 6 -6 6 -7 0 -9 5 -6 10 3 6
4 10 1 10 -3 0 -7 -4 -11 -9z"/>
<path d="M5170 2400 c0 -5 5 -10 11 -10 5 0 7 5 4 10 -3 6 -8 10 -11 10 -2 0
-4 -4 -4 -10z"/>
<path d="M4925 2350 c-33 -16 -55 -29 -48 -30 6 0 19 -3 29 -7 12 -4 15 -3 10
5 -8 13 0 17 52 26 18 3 32 1 32 -4 0 -6 -15 -10 -33 -10 -23 0 -34 -5 -34
-15 0 -8 6 -15 14 -15 20 0 28 4 26 13 -2 4 8 7 22 7 14 0 25 -4 25 -10 0 -5
5 -10 10 -10 15 0 12 49 -4 66 -20 19 -32 18 -101 -16z"/>
<path d="M5250 2070 c-9 -6 -10 -10 -3 -10 6 0 15 5 18 10 8 12 4 12 -15 0z"/>
<path d="M4407 2043 c-4 -3 -7 -11 -7 -17 0 -6 5 -5 12 2 6 6 9 14 7 17 -3 3
-9 2 -12 -2z"/>
<path d="M2730 1613 c0 -14 19 -38 25 -32 8 8 -5 39 -16 39 -5 0 -9 -3 -9 -7z"/>
<path d="M4255 1600 c3 -5 8 -10 11 -10 2 0 4 5 4 10 0 6 -5 10 -11 10 -5 0
-7 -4 -4 -10z"/>
<path d="M2213 1201 c-14 -36 -7 -107 10 -118 6 -4 8 5 4 25 l-6 30 24 -24
c14 -14 30 -21 39 -18 22 9 20 24 -4 24 -13 0 -18 5 -13 16 3 9 -3 21 -15 30
-11 8 -22 27 -24 42 l-3 27 -12 -34z"/>
<path d="M2338 1045 c2 -14 8 -25 12 -25 10 0 1 38 -10 45 -4 2 -5 -7 -2 -20z"/>
<path d="M2410 1006 c0 -2 7 -9 15 -16 9 -7 15 -8 15 -2 0 5 -7 12 -15 16 -8
3 -15 4 -15 2z"/>
<path d="M2500 951 c0 -5 5 -13 10 -16 6 -3 10 -2 10 4 0 5 -4 13 -10 16 -5 3
-10 2 -10 -4z"/>
<path d="M2561 934 c0 -11 3 -14 6 -6 3 7 2 16 -1 19 -3 4 -6 -2 -5 -13z"/>
<path d="M4793 683 c-7 -3 -13 -9 -13 -14 0 -6 5 -7 12 -3 7 5 9 2 5 -9 -4
-11 -2 -14 9 -10 23 9 10 44 -13 36z"/>
<path d="M4906 668 c8 -27 12 -33 19 -27 7 8 -7 49 -17 49 -5 0 -6 -10 -2 -22z"/>
<path d="M4523 640 c-1 -11 2 -18 8 -15 11 7 12 35 1 35 -4 0 -8 -9 -9 -20z"/>
<path d="M4850 650 c0 -5 5 -10 11 -10 5 0 7 5 4 10 -3 6 -8 10 -11 10 -2 0
-4 -4 -4 -10z"/>
<path d="M4445 570 c-3 -5 -1 -10 4 -10 6 0 11 5 11 10 0 6 -2 10 -4 10 -3 0
-8 -4 -11 -10z"/>
<path d="M3880 551 c0 -6 5 -13 10 -16 6 -3 10 1 10 9 0 9 -4 16 -10 16 -5 0
-10 -4 -10 -9z"/>
<path d="M3997 541 c-4 -17 -3 -21 5 -13 5 5 8 16 6 23 -3 8 -7 3 -11 -10z"/>
<path d="M4190 516 c0 -9 5 -16 10 -16 6 0 10 4 10 9 0 6 -4 13 -10 16 -5 3
-10 -1 -10 -9z"/>
<path d="M4327 513 c-3 -5 -1 -17 4 -28 7 -17 8 -17 8 8 1 27 -4 34 -12 20z"/>
<path d="M4240 494 c0 -8 5 -12 10 -9 6 3 10 10 10 16 0 5 -4 9 -10 9 -5 0
-10 -7 -10 -16z"/>
<path d="M4281 443 c-7 -8 -11 -16 -8 -19 2 -2 10 2 17 11 17 20 9 27 -9 8z"/>
<path d="M4255 400 c10 -11 20 -18 23 -16 5 6 -23 36 -34 36 -4 0 1 -9 11 -20z"/>
<path d="M4178 372 c4 -28 6 -32 14 -18 5 9 16 16 23 16 15 0 22 29 8 31 -47
8 -49 7 -45 -29z"/>
<path d="M4107 393 c-4 -3 -7 -11 -7 -17 0 -6 5 -5 12 2 6 6 9 14 7 17 -3 3
-9 2 -12 -2z"/>
<path d="M4286 384 c-4 -9 -4 -19 -2 -22 10 -9 36 8 36 23 0 20 -26 19 -34 -1z"/>
<path d="M3815 341 c-3 -5 -1 -12 5 -16 5 -3 10 1 10 9 0 18 -6 21 -15 7z"/>
<path d="M3991 334 c0 -11 3 -14 6 -6 3 7 2 16 -1 19 -3 4 -6 -2 -5 -13z"/>
<path d="M4334 339 l-31 -9 10 -45 c6 -25 15 -44 21 -42 12 5 12 8 2 51 -6 25
-5 28 8 17 12 -10 16 -8 21 9 9 27 6 29 -31 19z"/>
<path d="M4255 320 c3 -5 8 -10 11 -10 2 0 4 5 4 10 0 6 -5 10 -11 10 -5 0 -7
-4 -4 -10z"/>
<path d="M2925 310 c-3 -5 1 -10 10 -10 9 0 13 5 10 10 -3 6 -8 10 -10 10 -2
0 -7 -4 -10 -10z"/>
<path d="M2975 310 c-3 -5 -1 -10 4 -10 6 0 11 5 11 10 0 6 -2 10 -4 10 -3 0
-8 -4 -11 -10z"/>
<path d="M3910 295 c-13 -14 -21 -27 -18 -30 6 -6 48 33 48 45 0 15 -4 13 -30
-15z"/>
<path d="M4076 304 c-10 -25 1 -29 14 -5 6 12 7 21 1 21 -5 0 -12 -7 -15 -16z"/>
<path d="M3030 300 c-13 -8 -13 -10 2 -10 9 0 20 5 23 10 8 13 -5 13 -25 0z"/>
<path d="M3450 300 c0 -5 5 -10 10 -10 6 0 10 5 10 10 0 6 -4 10 -10 10 -5 0
-10 -4 -10 -10z"/>
<path d="M3140 293 c0 -17 19 -37 27 -29 4 5 2 11 -5 13 -6 3 -10 9 -6 14 3 5
0 9 -5 9 -6 0 -11 -3 -11 -7z"/>
<path d="M4130 284 c0 -8 5 -12 10 -9 6 4 8 11 5 16 -9 14 -15 11 -15 -7z"/>
<path d="M3358 278 c5 -5 16 -8 23 -6 8 3 3 7 -10 11 -17 4 -21 3 -13 -5z"/>
<path d="M3235 270 c3 -5 8 -10 11 -10 2 0 4 5 4 10 0 6 -5 10 -11 10 -5 0 -7
-4 -4 -10z"/>
<path d="M3288 273 c-10 -2 -18 -8 -18 -13 0 -4 9 -6 20 -3 11 3 20 9 20 14 0
5 -1 8 -2 8 -2 -1 -11 -3 -20 -6z"/>
<path d="M3827 260 c-9 -11 -13 -20 -8 -20 11 0 35 29 29 35 -2 2 -12 -4 -21
-15z"/>
<path d="M3457 262 c-3 -4 1 -13 9 -19 7 -7 15 -9 17 -5 3 4 -1 13 -9 19 -7 7
-15 9 -17 5z"/>
<path d="M4150 259 c0 -5 5 -7 10 -4 6 3 10 8 10 11 0 2 -4 4 -10 4 -5 0 -10
-5 -10 -11z"/>
<path d="M3400 250 c8 -5 20 -10 25 -10 6 0 3 5 -5 10 -8 5 -19 10 -25 10 -5
0 -3 -5 5 -10z"/>
<path d="M3727 249 c7 -7 15 -10 18 -7 3 3 -2 9 -12 12 -14 6 -15 5 -6 -5z"/>
<path d="M3550 235 c0 -8 6 -15 13 -15 8 0 14 7 14 15 0 8 -6 15 -14 15 -7 0
-13 -7 -13 -15z"/>
<path d="M3600 240 c-13 -8 -12 -10 3 -10 9 0 17 5 17 10 0 12 -1 12 -20 0z"/>
</g>
</svg>
