<svg width="49" height="50" viewBox="0 0 49 50" fill="none" xmlns="http://www.w3.org/2000/svg">
<g filter="url(#filter0_b_117_3815)">
<path d="M7.49993 7.81801C8.43697 3.50024 12.6968 0.759624 17.0146 1.69667L40.4686 6.78667C44.7864 7.72371 47.527 11.9836 46.59 16.3013L41.5 39.7554C40.5629 44.0732 36.3031 46.8138 31.9853 45.8767L8.53127 40.7867C4.2135 39.8497 1.47288 35.5898 2.40993 31.272L7.49993 7.81801Z" fill="#FCB32A"/>
</g>
<g filter="url(#filter1_b_117_3815)">
<path d="M1.7132 18C1.7132 13.5817 5.29492 10 9.7132 10H33.7132C38.1315 10 41.7132 13.5817 41.7132 18V42C41.7132 46.4183 38.1315 50 33.7132 50H9.7132C5.29492 50 1.7132 46.4183 1.7132 42V18Z" fill="white" fill-opacity="0.45"/>
</g>
<g filter="url(#filter2_b_117_3815)">
<path d="M7.49993 7.81801C8.43697 3.50024 12.6968 0.759624 17.0146 1.69667L40.4686 6.78667C44.7864 7.72371 47.527 11.9836 46.59 16.3013L41.5 39.7554C40.5629 44.0732 36.3031 46.8138 31.9853 45.8767L8.53127 40.7867C4.2135 39.8497 1.47288 35.5898 2.40993 31.272L7.49993 7.81801Z" fill="#FCB32A"/>
</g>
<g filter="url(#filter3_b_117_3815)">
<path d="M1.7132 18C1.7132 13.5817 5.29492 10 9.7132 10H33.7132C38.1315 10 41.7132 13.5817 41.7132 18V42C41.7132 46.4183 38.1315 50 33.7132 50H9.7132C5.29492 50 1.7132 46.4183 1.7132 42V18Z" fill="white" fill-opacity="0.45"/>
</g>
<path d="M27.5449 27.0186C27.5449 27.0186 24.3349 30.8712 21.987 30.8712C19.6402 30.8712 16.394 27.0186 16.394 27.0186" stroke="#ED1940" stroke-width="1.5" stroke-linecap="round" stroke-linejoin="round"/>
<path fill-rule="evenodd" clip-rule="evenodd" d="M12.4521 29.9684C12.4521 23.1303 14.833 20.8516 21.9759 20.8516C29.1188 20.8516 31.4997 23.1303 31.4997 29.9684C31.4997 36.8054 29.1188 39.0851 21.9759 39.0851C14.833 39.0851 12.4521 36.8054 12.4521 29.9684Z" stroke="#ED1940" stroke-width="1.5" stroke-linecap="round" stroke-linejoin="round"/>
<defs>
<filter id="filter0_b_117_3815" x="-1.77374" y="-2.4873" width="52.5474" height="52.5479" filterUnits="userSpaceOnUse" color-interpolation-filters="sRGB">
<feFlood flood-opacity="0" result="BackgroundImageFix"/>
<feGaussianBlur in="BackgroundImageFix" stdDeviation="2"/>
<feComposite in2="SourceAlpha" operator="in" result="effect1_backgroundBlur_117_3815"/>
<feBlend mode="normal" in="SourceGraphic" in2="effect1_backgroundBlur_117_3815" result="shape"/>
</filter>
<filter id="filter1_b_117_3815" x="-2.2868" y="6" width="48" height="48" filterUnits="userSpaceOnUse" color-interpolation-filters="sRGB">
<feFlood flood-opacity="0" result="BackgroundImageFix"/>
<feGaussianBlur in="BackgroundImageFix" stdDeviation="2"/>
<feComposite in2="SourceAlpha" operator="in" result="effect1_backgroundBlur_117_3815"/>
<feBlend mode="normal" in="SourceGraphic" in2="effect1_backgroundBlur_117_3815" result="shape"/>
</filter>
<filter id="filter2_b_117_3815" x="-1.77374" y="-2.4873" width="52.5474" height="52.5479" filterUnits="userSpaceOnUse" color-interpolation-filters="sRGB">
<feFlood flood-opacity="0" result="BackgroundImageFix"/>
<feGaussianBlur in="BackgroundImageFix" stdDeviation="2"/>
<feComposite in2="SourceAlpha" operator="in" result="effect1_backgroundBlur_117_3815"/>
<feBlend mode="normal" in="SourceGraphic" in2="effect1_backgroundBlur_117_3815" result="shape"/>
</filter>
<filter id="filter3_b_117_3815" x="-2.2868" y="6" width="48" height="48" filterUnits="userSpaceOnUse" color-interpolation-filters="sRGB">
<feFlood flood-opacity="0" result="BackgroundImageFix"/>
<feGaussianBlur in="BackgroundImageFix" stdDeviation="2"/>
<feComposite in2="SourceAlpha" operator="in" result="effect1_backgroundBlur_117_3815"/>
<feBlend mode="normal" in="SourceGraphic" in2="effect1_backgroundBlur_117_3815" result="shape"/>
</filter>
</defs>
</svg>
