<svg width="40" height="41" viewBox="0 0 40 41" fill="none" xmlns="http://www.w3.org/2000/svg">
<g clip-path="url(#clip0_2_84)">
<path d="M40 20.554C40 9.50826 31.0457 0.553955 20 0.553955C8.9543 0.553955 0 9.50826 0 20.554C0 31.5997 8.9543 40.554 20 40.554C31.0457 40.554 40 31.5997 40 20.554Z" fill="#8C8C8C" fill-opacity="0.6"/>
<path fill-rule="evenodd" clip-rule="evenodd" d="M14.1513 29.8127V26.5146C12.0699 24.9427 10.7407 22.5487 10.7407 19.8676C10.7407 15.1326 14.8862 11.2942 20 11.2942C25.1141 11.2942 29.2592 15.1326 29.2592 19.8676C29.2592 24.6022 25.1141 28.441 20 28.441C19.0459 28.441 18.1252 28.3072 17.2589 28.0595L14.1513 29.8127ZM14.0176 22.766L19.011 17.5192L21.4077 19.9503L25.9017 17.5192L20.9364 22.766L18.562 20.2916L14.0176 22.766Z" fill="white"/>
</g>
<defs>
<clipPath id="clip0_2_84">
<rect width="40" height="40" fill="white" transform="translate(0 0.553955)"/>
</clipPath>
</defs>
</svg>
