<svg width="171" height="56" viewBox="0 0 171 56" fill="none" xmlns="http://www.w3.org/2000/svg">
<g clip-path="url(#clip0_2_41)">
<path d="M137.978 14.6526C138.666 14.5946 139.228 14.5097 139.792 14.5053C141.704 14.4889 142.536 15.3239 142.613 17.2203C142.622 17.4257 142.893 17.6757 143.104 17.8082C144.023 18.3887 144.99 18.8948 145.886 19.5066C146.516 19.9368 146.632 20.3505 146.587 21.2332C146.346 21.0784 146.166 20.94 145.967 20.8358C144.847 20.2553 143.727 19.6792 142.601 19.1121C142.149 18.8844 141.839 18.9782 141.463 19.3949C140.446 20.5232 139.883 21.8375 139.642 23.3216C139.578 23.332 139.514 23.3424 139.45 23.3543C139.245 22.878 139.041 22.4017 138.819 21.8867C138.238 22.0117 137.999 22.3153 137.951 22.9881C137.84 24.6031 138.027 25.9205 139.522 27.0115C140.815 27.9567 141.607 29.4571 142.097 31.0289C142.25 31.5186 142.333 32.0471 142.344 32.5606C142.368 33.7305 141.787 34.4733 140.663 34.8022C139.725 35.0776 138.795 35.0106 137.887 34.6727C135.541 33.8005 133.438 30.6628 133.578 28.1591C133.614 27.5116 133.877 26.8761 134.038 26.2271C133.602 26.0633 133.151 26.7659 132.685 28.3348C132.154 27.9418 132.027 27.4104 132.06 26.8508C132.093 26.2807 131.926 26.0008 131.319 26.0872C130.396 26.2181 129.644 26.0202 129.114 25.1405C128.833 24.6731 128.266 24.9038 127.675 25.6719C127.699 25.7091 127.721 25.7761 127.749 25.7776C129.026 25.8713 129.488 26.6796 129.681 27.8332C130.092 30.2817 129.629 32.5144 128.197 34.5432C128.083 34.7055 127.958 34.8588 127.827 35.0091C127.782 35.0612 127.707 35.088 127.757 35.0568C127.002 34.698 126.347 34.2798 125.631 34.0714C124.765 33.8198 123.873 33.9404 123.238 34.6772C122.589 35.4274 122.721 36.3026 123.051 37.1392C123.933 39.3749 126.746 40.3483 129.16 39.2707C129.447 39.1427 129.729 39.0012 130.248 38.7542C129.555 39.8556 130.291 40.2531 130.86 40.6907C134.544 43.5277 138.587 44.3404 143.039 42.8237C143.566 42.6436 143.813 42.4471 143.719 41.7817C143.47 40.0194 144.137 38.4728 145.105 37.0394C146.029 35.67 146.025 34.8216 145.115 33.4224C144.859 33.0295 144.608 32.6261 144.417 32.1989C143.975 31.2031 144.106 30.2639 144.801 29.4169C144.959 29.2264 145.135 29.0507 145.304 28.8691C146.081 28.0371 145.995 28.0966 145.349 27.1485C144.648 26.1184 143.975 25.0169 143.57 23.8485C143.113 22.5327 143.536 22.04 144.843 21.8286C144.253 21.193 143.424 20.9727 142.725 21.2749C141.967 21.6038 141.723 22.2633 141.839 22.9881C141.955 23.7086 142.228 24.4082 142.484 25.0988C142.545 25.2655 142.792 25.4144 142.982 25.4724C144.033 25.791 144.438 26.2598 144.445 27.2303C144.453 28.2038 143.948 28.8364 142.935 29.1237C143.557 27.6724 143.567 26.943 142.884 26.7376C141.713 26.3849 141.774 27.5652 141.236 28.2723C140.939 27.7171 140.689 27.2482 140.438 26.7808C140.491 26.7376 140.541 26.6945 140.593 26.6498C140.767 26.7347 140.942 26.8195 141.125 26.9088C141.525 26.3953 141.466 25.9338 141.205 25.3846C140.753 24.429 140.558 23.4079 140.818 22.3451C141.22 20.7003 142.622 19.9129 144.175 20.5991C145.014 20.9712 145.74 21.5979 146.537 22.1233C147.887 21.0189 148.083 20.0901 147.223 18.6492C144.963 14.864 146.388 11.4747 150.69 10.4685C153.997 9.69598 157.203 10.211 160.311 11.4196C164.256 12.9528 167.437 15.4951 169.863 18.9573C170.254 19.517 170.576 20.16 170.775 20.812C171.47 23.073 170.561 24.746 168.248 25.2298C167.015 25.4873 166.384 26.0604 166.151 27.2646C165.924 28.436 165.155 29.1252 163.956 29.2695C163.441 29.3321 162.919 29.3276 162.4 29.3529C161.532 29.3961 161.198 29.8128 161.374 30.6687C161.448 31.0319 161.591 31.3802 161.664 31.7434C161.899 32.9119 161.37 33.5653 160.186 33.5876C159.419 33.6025 158.992 33.9975 158.906 34.7725C158.757 36.1106 157.95 36.5557 156.721 35.9752C156.452 35.8486 156.197 35.67 155.916 35.6001C155.733 35.5554 155.425 35.5971 155.332 35.7206C155.237 35.8486 155.249 36.1999 155.359 36.3145C155.768 36.7388 156.216 37.1377 156.7 37.4726C156.813 37.5515 157.156 37.3907 157.34 37.2642C161.761 34.2128 165.856 30.8354 168.545 26.0529C168.556 26.0351 168.587 26.0291 168.776 25.9294C168.776 26.4429 168.903 26.9267 168.752 27.2988C168.309 28.3898 167.889 29.53 167.218 30.4797C165.406 33.0369 162.973 34.9779 160.491 36.8474C159.68 37.4592 158.817 38.004 158.017 38.6306C157.79 38.8092 157.584 39.165 157.571 39.4478C157.482 41.3322 155.785 42.3444 154.159 41.4022C153.701 41.1372 153.32 41.1164 152.838 41.2384C151.752 41.5123 151.434 41.4334 150.862 40.8842C151.443 40.6163 152.02 40.3498 152.699 40.0357C152.382 39.491 152.199 38.9343 151.819 38.5994C151.496 38.3151 150.888 38.0873 150.517 38.2004C150.148 38.3136 149.819 38.845 149.657 39.2632C149.527 39.5981 149.679 40.0387 149.703 40.4332C149.743 41.0985 149.847 41.7683 149.802 42.4277C149.731 43.5188 149.34 44.4967 148.243 44.9373C147.092 45.4002 145.976 45.1665 145.021 44.4149C144.602 44.0844 144.297 44.0234 143.779 44.1975C138.395 46.0075 133.52 45.0743 129.209 41.3605C128.806 41.0137 128.508 40.9125 127.975 41.0747C124.363 42.1747 121.02 39.546 121.176 35.7668C121.247 34.0431 122.376 32.6856 124.07 32.376C124.567 32.2852 124.705 32.1096 124.702 31.6109C124.698 30.7461 125.04 29.8009 124.787 29.0388C124.538 28.2931 123.604 27.8049 123.197 27.0755C122.702 26.1854 122.05 26.0485 121.142 26.0663C118.588 26.1169 116.032 26.0693 113.478 26.0946C112.891 26.1006 112.643 25.9636 112.644 25.3191C112.662 17.2828 112.66 9.24646 112.644 1.21013C112.644 0.573062 112.891 0.410817 113.479 0.418259C115.637 0.442075 117.796 0.445052 119.952 0.416771C120.511 0.409328 120.871 0.610274 121.207 1.03449C123.074 3.38481 124.961 5.71726 126.843 8.05418C127.036 8.29532 127.243 8.52603 127.594 8.93834C127.594 8.41588 127.6 8.13456 127.594 7.85324C127.545 5.59818 127.505 3.34313 127.434 1.08957C127.417 0.564131 127.608 0.403375 128.117 0.406351C131.143 0.42719 134.169 0.436121 137.194 0.416771C137.817 0.412305 137.993 0.629624 137.99 1.23693C137.968 5.37938 137.978 9.52183 137.978 13.6643C137.978 13.9575 137.978 14.2493 137.978 14.6482V14.6526ZM148.835 19.9993C149.482 21.1796 148.749 21.9105 147.789 22.5475C147.686 22.616 147.598 22.7068 147.507 22.7902C146.589 23.6446 146.443 24.2727 146.872 25.4531C147.067 25.9874 147.262 26.5233 147.428 27.0666C147.656 27.8108 147.419 28.4196 146.848 28.9331C145.084 30.5214 144.963 31.3296 146.232 33.3644C146.974 34.5566 146.992 35.7028 146.288 36.9337C145.8 37.7866 145.367 38.6946 145.08 39.6309C144.749 40.7056 144.852 41.8041 145.59 42.7388C146.535 43.9341 148.153 43.7123 148.646 42.2774C148.857 41.6641 148.841 40.9675 148.889 40.3066C148.924 39.814 148.842 39.3109 148.906 38.8241C149.06 37.6601 150.053 36.8668 151.112 37.1823C151.708 37.3609 152.264 37.8105 152.727 38.2525C153.241 38.7437 153.6 39.3912 154.076 39.9256C154.494 40.3945 155.036 40.4228 155.561 40.0923C156.065 39.7753 156.254 39.2692 156.029 38.7378C155.822 38.2496 155.468 37.8239 155.177 37.3714C154.887 36.9174 154.496 36.4991 154.325 36.0034C153.987 35.03 154.679 34.3274 155.688 34.5373C155.978 34.5968 156.263 34.6995 156.556 34.7427C157.468 34.8782 157.796 34.6043 158.198 33.7633C158.385 33.3718 158.805 32.964 159.21 32.827C160.683 32.3314 160.805 32.2048 160.578 30.6404C160.424 29.5866 160.78 28.9004 161.773 28.5238C162.371 28.2976 163.054 28.2708 163.623 27.9969C164.244 27.6977 165.094 27.33 165.283 26.7927C165.708 25.5826 166.524 25.0467 167.605 24.6017C169.315 23.8976 169.839 22.4508 169.069 20.7643C168.897 20.3833 168.671 20.0201 168.422 19.6822C165.391 15.5487 161.289 13.1031 156.313 12.0746C154.35 11.6682 152.375 11.5774 150.438 12.2458C148.668 12.8575 147.826 14.0915 147.97 15.8464C148.095 17.3632 149.027 18.2518 150.365 18.7802C150.859 18.9752 151.382 19.0987 151.892 19.255C151.898 19.3473 151.903 19.4381 151.909 19.5304C150.91 19.6837 149.911 19.8355 148.835 19.9993ZM139.682 34.0878C139.718 34.0014 139.754 33.9136 139.789 33.8273C139.623 33.6889 139.452 33.5549 139.292 33.409C138.042 32.2748 137.021 30.9783 136.615 29.3068C136.251 27.8108 136.987 27.0056 138.502 27.1321C138.107 26.8121 137.704 26.4861 137.246 26.2911C135.927 25.7314 134.76 26.4742 134.696 27.9031C134.678 28.3154 134.718 28.753 134.839 29.146C135.372 30.8845 136.39 32.2971 137.908 33.2974C138.442 33.6487 139.088 33.8288 139.684 34.0878H139.682ZM125.774 26.0068C126.207 24.9693 126.645 24.0822 126.927 23.1474C127.021 22.8393 126.828 22.2558 126.569 22.0653C125.625 21.3702 124.175 22.1293 124.163 23.3007C124.153 24.4186 124.686 25.27 125.775 26.0083L125.774 26.0068ZM123.209 21.775C124.123 21.4744 124.903 21.2183 125.774 20.9325C124.89 19.8311 124.028 18.7564 123.166 17.6817C123.108 17.7189 123.05 17.7561 122.992 17.7933C123.063 19.1077 123.136 20.4235 123.209 21.775ZM140.776 17.195C141.065 16.6933 140.921 16.0265 140.248 15.8925C139.618 15.7675 138.937 15.8806 138.283 15.9417C138.171 15.9521 138 16.2274 138.012 16.3689C138.021 16.4864 138.243 16.6472 138.395 16.6829C139.166 16.8675 139.944 17.0193 140.778 17.1935L140.776 17.195ZM145.67 24.4022C145.67 23.5046 145.036 22.6428 144.527 22.7396C144.3 22.7827 144.005 23.1638 143.974 23.4198C143.896 24.0658 144.588 24.9366 145.094 24.8577C145.347 24.8175 145.557 24.499 145.67 24.4022ZM138.822 29.8292C138.825 28.9331 138.201 28.0862 137.682 28.174C137.454 28.2127 137.149 28.5834 137.116 28.8349C137.031 29.4869 137.704 30.3323 138.23 30.2624C138.483 30.2281 138.701 29.923 138.822 29.8292Z" fill="#ED1940"/>
<path d="M41.1744 11.6161C41.3292 10.7141 41.0583 10.1261 40.2277 9.8701C39.4314 9.62598 38.5874 9.46969 37.7554 9.42504C34.5536 9.25386 31.4248 9.70487 28.369 10.6664C28.1561 10.7334 27.9403 10.7915 27.7245 10.8451C27.656 10.8614 27.5786 10.848 27.4327 10.848C27.4164 10.5995 27.3851 10.3613 27.3851 10.1216C27.3821 7.59123 27.4089 5.06229 27.3687 2.53336C27.3583 1.85163 27.6024 1.59859 28.241 1.43932C33.5891 0.101176 38.9804 -0.45254 44.4535 0.517952C46.6327 0.904957 48.6734 1.64325 50.3152 3.21062C52.2547 5.05932 53.0748 7.43642 53.2817 10.013C53.4529 12.1594 53.4112 14.3222 53.4455 16.479C53.4678 17.8945 53.7015 18.1639 55.0828 18.1118C55.5294 18.0955 55.6484 18.2488 55.6469 18.6536C55.638 20.7866 55.6589 22.9196 55.6202 25.0526C55.6157 25.2878 55.3418 25.6644 55.12 25.7299C51.8439 26.6989 48.5186 27.1856 45.171 26.1675C44.3017 25.9026 43.4875 25.3325 42.7626 24.7594C42.3042 24.3962 42.063 24.3575 41.5808 24.6746C38.2123 26.882 34.5373 27.2556 30.7431 26.1705C27.0829 25.1241 25.2134 21.8196 25.8639 17.9868C26.4265 14.666 28.558 12.8768 31.6198 11.9718C34.3572 11.1621 37.1525 11.2335 39.9553 11.4732C40.3483 11.5074 40.7383 11.5655 41.1744 11.6176V11.6161ZM41.4542 18.1892C41.286 16.6993 40.7889 16.3271 39.4225 16.7454C38.8568 16.9181 38.4803 17.2902 38.391 17.89C38.3016 18.481 38.3805 19.0481 38.9 19.4262C39.5177 19.8772 40.2724 19.9218 40.8514 19.5244C41.1953 19.2877 41.2637 18.6492 41.4542 18.1907V18.1892Z" fill="#ED1940"/>
<path d="M20.4473 40.9482C20.8194 41.1208 21.1558 41.2712 21.4863 41.4319C23.2695 42.2967 24.3471 43.6959 24.6121 45.6696C24.9411 48.1271 24.6761 50.4417 22.7679 52.2711C21.6381 53.3547 20.227 53.9382 18.7177 54.1748C17.2039 54.4115 15.6648 54.5723 14.1347 54.5916C9.74512 54.6452 5.35261 54.5946 0.963067 54.6258C0.245617 54.6303 0.0402067 54.4219 0.0431836 53.7045C0.0669994 45.7664 0.0669994 37.8283 0.0431836 29.8902C0.0416952 29.1698 0.18459 28.9153 0.973486 28.9227C5.76045 28.9659 10.5504 28.878 15.3359 28.9897C16.9196 29.0269 18.5495 29.3469 20.0559 29.8456C22.4181 30.6285 23.5836 32.4593 23.6818 34.9451C23.7011 35.4393 23.6967 35.9379 23.6595 36.4321C23.5255 38.193 22.7128 39.5341 21.1544 40.4019C20.9594 40.5106 20.7688 40.6237 20.5798 40.7428C20.5426 40.7666 20.5262 40.8231 20.4473 40.9482ZM12.0374 47.2281C12.2607 47.2281 12.4839 47.2311 12.7057 47.2281C13.7596 47.2072 14.2016 46.7905 14.2016 45.82C14.2016 44.851 13.7491 44.4208 12.7117 44.4C12.4884 44.3955 12.2651 44.3955 12.0433 44.397C10.4432 44.4119 10.5936 44.2139 10.5965 45.811C10.5995 47.3635 10.3941 47.2221 12.0389 47.2281H12.0374ZM10.598 37.5723C10.598 37.8685 10.5429 38.1796 10.6174 38.455C10.6665 38.6321 10.8957 38.8717 11.0624 38.8866C11.6251 38.9357 12.1981 38.9372 12.7608 38.8836C13.4589 38.8167 13.8876 38.2719 13.8876 37.5544C13.8876 36.8385 13.4574 36.3279 12.7489 36.2356C12.481 36.2014 12.2071 36.2118 11.9362 36.2118C10.4388 36.2178 10.604 36.0927 10.598 37.5723Z" fill="#ED1940"/>
<path d="M53.0272 54.6348C52.4735 54.6348 52.158 54.6348 51.8439 54.6348C48.6451 54.6348 45.4464 54.6154 42.2476 54.6482C41.6165 54.6541 41.2697 54.4353 40.9467 53.9114C39.8393 52.1192 38.6857 50.3554 37.5321 48.5915C37.3967 48.3861 37.1511 48.2536 36.9561 48.0869C36.8802 48.3266 36.7388 48.5647 36.7373 48.8044C36.7179 50.4908 36.7105 52.1773 36.7343 53.8622C36.7417 54.4264 36.581 54.6497 35.9752 54.6452C32.9506 54.6199 29.9245 54.6244 26.8999 54.6422C26.3864 54.6452 26.2122 54.4815 26.2137 53.962C26.2271 45.8289 26.2226 37.6958 26.2256 29.5627C26.2256 29.3945 26.2613 29.2264 26.2866 29.0075C26.5218 28.9882 26.7376 28.9569 26.952 28.9569C31.2909 28.9554 35.6313 28.9346 39.9703 28.9674C41.813 28.9808 43.6245 29.2755 45.3482 29.978C48.209 31.1435 49.9684 33.2155 50.534 36.2788C50.86 38.0382 50.8005 39.7857 50.3852 41.5168C49.9848 43.1809 49.1602 44.6054 47.8027 45.6696C47.3665 46.012 47.3636 46.265 47.6657 46.7012C49.2584 49.0068 50.8213 51.3303 52.3931 53.6509C52.5703 53.9114 52.7355 54.1793 53.0287 54.6363L53.0272 54.6348ZM38.0903 37.096C36.5438 37.1168 36.7373 37.0186 36.7224 38.4639C36.7224 38.5383 36.7224 38.6127 36.7224 38.6872C36.7224 40.8321 36.8117 40.908 38.97 40.5924C39.881 40.4584 40.4079 39.8512 40.4242 38.9164C40.4406 37.9727 39.9435 37.3252 39.0504 37.1659C38.7363 37.1094 38.4103 37.1183 38.0888 37.0975L38.0903 37.096Z" fill="#ED1940"/>
<path d="M84.0413 26.0887C83.5828 26.0887 83.3372 26.0887 83.0916 26.0887C79.8184 26.0887 76.5453 26.0708 73.2736 26.105C72.6425 26.111 72.2882 25.8907 71.9682 25.3727C70.8726 23.6029 69.7414 21.8554 68.6027 20.1124C68.4568 19.8891 68.1889 19.7448 67.9761 19.5646C67.8987 19.8266 67.7558 20.0886 67.7528 20.3521C67.7319 22.0385 67.726 23.7235 67.7513 25.4099C67.7587 25.9234 67.598 26.1021 67.074 26.0991C64.0241 26.0797 60.9742 26.0812 57.9243 26.0991C57.4227 26.1021 57.2233 25.9607 57.2247 25.4293C57.2381 17.3215 57.2381 9.21373 57.2262 1.10595C57.2262 0.571589 57.445 0.425717 57.9377 0.428694C62.3764 0.445068 66.8136 0.424229 71.2522 0.462929C73.3554 0.480791 75.3947 0.879705 77.2836 1.86359C79.4776 3.00675 80.8887 4.77953 81.4453 7.19385C81.9529 9.38788 81.8949 11.573 81.1923 13.7253C80.7502 15.0784 79.9911 16.2349 78.8688 17.1101C78.3999 17.4763 78.3954 17.7383 78.7155 18.1997C80.3081 20.5039 81.8711 22.8289 83.4429 25.1465C83.6185 25.4055 83.7778 25.6734 84.0428 26.0931L84.0413 26.0887ZM67.7409 10.345C67.79 12.3634 67.3598 12.0954 69.5777 12.0925C70.7685 12.0925 71.4517 11.4375 71.4785 10.3703C71.5052 9.3209 70.8235 8.65852 69.6402 8.58559C68.374 8.50819 67.7409 9.09465 67.7409 10.345Z" fill="#ED1940"/>
<path d="M66.1482 55.1796C64.0227 55.1752 61.9418 54.9042 59.9547 54.1183C56.5207 52.7593 54.1674 50.3376 53.0228 46.8248C51.8975 43.37 51.9183 39.8855 53.1597 36.4604C54.5023 32.7541 57.1444 30.3577 60.8969 29.2294C64.5317 28.1368 68.2143 28.122 71.8045 29.3425C76.9383 31.0855 79.5282 34.8946 80.1028 40.1742C80.3722 42.6525 80.1236 45.0922 79.1814 47.4082C77.1868 52.3068 73.2736 54.5217 68.2262 55.0873C67.7097 55.1454 67.1872 55.1513 66.6662 55.1766C66.4936 55.1856 66.3194 55.1766 66.1467 55.1796H66.1482ZM63.2263 41.8294C63.4184 42.6674 63.5226 43.5129 63.8113 44.2884C64.2236 45.3928 65.142 45.8275 66.2956 45.7947C67.4224 45.762 68.2634 45.2648 68.6593 44.1961C69.2383 42.6317 69.2294 41.0346 68.6638 39.4687C68.2842 38.4178 67.3837 37.8581 66.2271 37.8537C65.1078 37.8507 64.2102 38.2913 63.8143 39.366C63.527 40.143 63.4198 40.9884 63.2263 41.8294Z" fill="#ED1940"/>
<path d="M97.0447 26.8046C94.7926 26.7153 92.5852 26.4295 90.5087 25.5156C85.9986 23.5329 83.7778 19.913 83.2747 15.1498C83.0336 12.868 83.1869 10.5906 83.949 8.39209C85.5074 3.89538 88.7493 1.33667 93.3145 0.400415C96.3183 -0.215817 99.3354 -0.135439 102.295 0.739789C107.431 2.25953 110.666 6.42133 111.072 11.9972C111.258 14.5559 110.999 17.061 109.935 19.4218C108.033 23.6431 104.605 25.8029 100.151 26.5069C99.1256 26.6692 98.0807 26.7079 97.0447 26.8046ZM100.013 13.6435C99.971 13.0064 99.9681 12.533 99.9055 12.0686C99.6823 10.4075 98.6999 9.4504 97.2144 9.41765C95.6842 9.38342 94.6646 10.2244 94.4488 11.9347C94.3178 12.9722 94.3446 14.0632 94.5068 15.0977C94.739 16.5728 95.6842 17.32 97.0328 17.3513C98.4647 17.384 99.3697 16.7142 99.7716 15.2406C99.9264 14.6735 99.9502 14.0707 100.011 13.6449L100.013 13.6435Z" fill="#ED1940"/>
<path d="M20.2969 12.3827C20.5455 12.5152 20.6631 12.594 20.7911 12.6447C23.8544 13.8488 24.9425 16.1977 24.6418 19.5051C24.3397 22.8229 22.4463 24.9217 19.0838 25.5915C17.515 25.9041 15.8925 26.0648 14.2924 26.0886C9.82991 26.1541 5.36595 26.0961 0.903474 26.1288C0.162209 26.1348 0.00294113 25.8832 0.00442961 25.1911C0.0267569 17.256 0.0297338 9.32087 -3.58422e-05 1.38725C-0.00301281 0.604306 0.257472 0.439084 0.979387 0.445038C5.46717 0.473319 9.95494 0.458435 14.4427 0.4629C16.2602 0.464389 18.0612 0.592398 19.7879 1.22798C23.3096 2.52594 24.8993 6.94822 22.9196 10.1604C22.485 10.8644 21.7065 11.3601 21.0665 11.9302C20.8759 12.0999 20.6214 12.1966 20.2969 12.3842V12.3827ZM12.0463 15.9327C11.8736 15.9327 11.6994 15.9327 11.5268 15.9327C10.8887 15.9357 10.5687 16.2656 10.5667 16.9226C10.5637 18.1818 11.246 18.7941 12.6134 18.7593C13.6866 18.7325 14.1897 18.2667 14.1793 17.311C14.1688 16.3807 13.6895 15.9506 12.6402 15.9327C12.4422 15.9297 12.2442 15.9327 12.0463 15.9327ZM10.5667 9.08569C10.589 10.5995 10.3553 10.4343 11.9674 10.4491C12.14 10.4506 12.3142 10.4551 12.4854 10.4417C13.3532 10.3747 13.8831 9.81058 13.8458 9.00233C13.8086 8.21641 13.2981 7.76242 12.4139 7.73563C12.2413 7.72968 12.0686 7.73266 11.8959 7.73563C10.3747 7.75647 10.589 7.55106 10.5682 9.08718L10.5667 9.08569Z" fill="#ED1940"/>
<path d="M103.639 39.1084C102.85 38.7839 102.22 38.5056 101.579 38.2615C99.2477 37.3744 96.8512 36.7671 94.3491 36.6644C93.8132 36.642 93.0913 36.5676 92.9946 37.2508C92.8889 37.9995 93.645 38.0725 94.1839 38.199C95.8956 38.6009 97.6401 38.8852 99.3206 39.3838C101.783 40.1147 103.837 41.4617 104.514 44.1187C105.493 47.9649 104.602 52.8278 98.8711 54.4919C95.3225 55.522 91.7025 55.5264 88.1153 54.8358C86.2115 54.4696 84.3762 53.7313 82.5305 53.1017C82.2671 53.0124 81.9485 52.5867 81.9441 52.3113C81.9009 49.7079 81.9187 47.1046 81.9217 44.4997C81.9217 44.403 81.95 44.3062 81.9842 44.0859C82.3043 44.2422 82.5811 44.3687 82.849 44.5116C85.1904 45.756 87.6583 46.6238 90.2855 47.0093C90.7499 47.0778 91.2233 47.1031 91.6936 47.1105C92.1729 47.118 92.7356 47.0942 92.8204 46.5077C92.9157 45.8557 92.3188 45.7262 91.8454 45.6012C90.9836 45.3735 90.0965 45.2306 89.248 44.9656C88.1629 44.6277 87.0674 44.2824 86.0418 43.8001C83.0172 42.3786 81.5183 39.9584 81.6419 36.6063C81.7699 33.15 83.437 30.6881 86.7146 29.5524C88.2359 29.0254 89.8881 28.7278 91.5001 28.634C95.2883 28.4137 99.0199 28.8275 102.634 30.0986C103.423 30.3755 103.683 30.7655 103.66 31.599C103.596 33.7544 103.639 35.9127 103.639 38.071C103.639 38.3657 103.639 38.6604 103.639 39.104V39.1084Z" fill="#ED1940"/>
<path d="M110.737 45.7203C115.16 45.7203 116.523 49.4564 115.383 52.5122C114.621 54.5559 112.264 55.65 109.749 55.2109C107.08 54.745 105.638 52.7489 105.882 49.8597C106.092 47.3799 108.025 45.7322 110.737 45.7218V45.7203Z" fill="#ED1940"/>
<path d="M131.844 32.8493C132.165 33.4373 132.482 34.0178 132.831 34.6549C132.957 34.5015 133.038 34.4375 133.072 34.3542C133.334 33.7201 133.767 33.3197 134.486 33.3718C135.205 33.4224 135.623 33.9151 135.777 34.5388C135.994 35.4229 136.164 36.3324 136.208 37.2389C136.251 38.1156 136.662 38.5249 137.454 38.7199C139.219 39.156 140.945 38.9908 142.649 38.4222C142.896 38.3403 143.145 38.2585 143.49 38.315C143.314 38.4937 143.165 38.708 142.961 38.8435C139.178 41.3426 133.088 39.2855 131.589 35.0076C131.26 34.0699 131.326 33.4775 131.842 32.8478L131.844 32.8493Z" fill="#ED1940"/>
<path d="M127.53 37.2091C126.399 36.1315 125.304 36.2074 124.177 37.0558C124.013 36.3979 124.175 35.9528 124.616 35.6566C125.275 35.2116 126.009 35.1178 126.724 35.5003C127.304 35.8114 127.629 36.316 127.53 37.2091Z" fill="#ED1940"/>
<path d="M153.859 26.8731C153.826 27.4119 153.74 27.9537 153.772 28.4881C153.857 29.8575 154.988 30.5318 156.26 30.0049C157.855 29.3455 159.338 26.9282 159.217 25.1866C159.122 23.8217 158.666 23.4049 157.196 23.3454C158.023 22.2841 159.676 22.4746 160.295 23.7205C160.77 24.6746 160.774 25.6972 160.528 26.7004C160.119 28.372 159.186 29.7325 157.802 30.7461C157.352 31.0751 156.813 31.3296 156.276 31.4799C154.441 31.9935 152.872 30.7521 153.018 28.8602C153.071 28.1606 153.417 27.4834 153.629 26.7972C153.705 26.8225 153.783 26.8478 153.859 26.8731Z" fill="#ED1940"/>
<path d="M148.098 32.9639C148.098 33.3093 148.086 33.6561 148.101 33.9999C148.141 34.9525 148.741 35.4378 149.677 35.286C151.273 35.027 152.5 32.7555 151.858 31.2685C151.577 30.6166 151.093 30.3487 150.248 30.5109C151.441 29.7101 152.465 29.9959 152.936 31.1137C153.963 33.5549 151.72 36.6613 149.079 36.4633C148.329 36.4068 147.802 36.0362 147.577 35.3306C147.303 34.4718 147.369 33.6457 148.098 32.9639Z" fill="#ED1940"/>
<path d="M151.228 21.6396C152.407 20.8165 153.509 21.2124 153.811 22.4746C154.25 24.3159 152.558 27.1887 150.724 27.7156C149.794 27.9835 149.118 27.7974 148.664 27.1514C148.121 26.3789 148.174 25.2804 148.746 24.5406C148.804 24.9946 148.796 25.526 148.951 26.0023C149.216 26.815 149.96 27.0979 150.676 26.6409C151.885 25.8699 152.651 24.7624 152.778 23.3082C152.875 22.1903 152.437 21.7334 151.228 21.6396Z" fill="#ED1940"/>
<path d="M166.697 23.3364C164.784 24.5302 162.254 24.2087 160.927 22.6666C159.838 21.3999 159.769 19.9799 160.829 18.7504C160.857 20.3342 161.451 21.5815 162.621 22.5148C163.802 23.4555 165.186 23.5404 166.697 23.3364Z" fill="#ED1940"/>
<path d="M158.791 20.6423C157.004 21.714 154.731 21.3791 153.57 19.9427C152.659 18.8174 152.696 17.454 153.771 16.2602C153.661 17.7338 154.182 18.8472 155.228 19.7075C156.267 20.5619 157.491 20.7361 158.793 20.6423H158.791Z" fill="#ED1940"/>
</g>
<defs>
<clipPath id="clip0_2_41">
<rect width="171" height="55.3165" fill="white"/>
</clipPath>
</defs>
</svg>
