<svg width="231" height="239" viewBox="0 0 231 239" fill="none" xmlns="http://www.w3.org/2000/svg">
<path d="M116.431 20.06C116.731 21.22 117.861 21.34 118.691 21.75C123.078 23.9633 124.138 27.4767 121.871 32.29C119.861 34.36 118.171 37.03 115.741 38.35C113.071 39.8 112.421 41.54 112.671 44.14C97.5312 37.33 82.4813 30.34 67.9013 22.62C68.3413 23.6 66.0613 25.13 68.8413 26.28C81.5313 31.53 93.6912 37.94 105.991 44.03C108.571 45.31 109.541 47.15 108.471 49.06C106.331 52.87 106.941 57.11 105.701 61C105.141 62.43 104.591 63.85 104.031 65.28C100.501 67.04 100.291 70.87 98.6412 73.81C98.0812 74.81 98.5613 77.31 95.9313 75.99C91.2913 73.66 86.2013 74.66 81.3113 74.09C72.9113 73.12 64.2313 73 57.6513 65.93C55.4313 63.55 55.5912 57.74 51.5012 58.99C49.2512 59.67 48.7012 64.99 46.7612 67.79C43.3312 72.74 43.5412 74.65 50.1412 77.93C58.2712 81.98 66.5212 85.8 74.7012 89.76C76.5712 90.67 78.9812 91.17 78.7212 94.09C68.0112 88.86 57.3712 83.45 46.5412 78.48C42.4212 76.59 40.6212 75.06 43.0212 70.21C46.7712 62.62 50.8312 55.15 54.2712 47.45C58.3712 38.28 63.3013 29.49 66.1813 19.68C68.1713 12.9 72.4612 6.79 75.9112 0C78.8412 3.17 82.3713 4.26 85.9313 5.28C85.9313 5.53 85.9312 5.77002 85.8912 6.02002C81.5312 12.68 82.5312 15.64 90.6813 20.26C88.4813 23.38 89.4112 27.1 91.7312 28.59C94.6512 30.47 98.6412 29.88 101.671 27.21C104.651 26.36 107.991 28.95 110.781 26.28C114.091 25.68 114.931 23.43 114.711 20.46C115.291 20.33 115.861 20.2 116.441 20.07L116.431 20.06ZM88.3413 62.21C92.6513 62.88 95.7012 60.51 97.8912 56.51C100.001 52.64 98.3512 49.23 96.1112 46.39C91.6012 40.65 85.1413 37.76 78.0913 37.35C69.3113 36.84 65.6212 42.44 68.4712 50.78C70.3912 56.38 80.1012 62.11 88.3312 62.22L88.3413 62.21Z" fill="#EE2E3A"/>
<path d="M64.6112 157.29C67.6812 154.46 69.8512 150.98 71.7812 147.33C74.3912 145.09 77.3912 143.13 77.8212 139.25L77.8012 139.27C82.0912 136.61 84.2712 132.65 84.7112 127.73C84.8812 125.81 84.3812 123.78 85.9112 122.16C87.4612 122.1 89.0212 122.04 90.5712 121.97C90.9312 122.02 91.2812 122.08 91.6412 122.13C91.7312 122.65 91.8312 123.18 91.9212 123.7C92.3512 127.23 90.1812 131.12 93.3512 134.28C93.3512 135.87 93.3612 137.45 93.3712 139.04C92.0512 139.4 91.6312 140.23 92.0212 141.52C91.9712 141.76 91.8712 141.98 91.7212 142.17C90.8812 142.25 90.0512 142.33 89.2112 142.41C87.1212 140.53 85.9612 141.47 85.2312 143.71C84.9112 144.04 84.5912 144.36 84.2712 144.69C81.9412 146.8 80.1012 149.29 78.5812 152.03C75.7012 155.05 72.4812 157.84 71.4612 162.17C69.9212 162.58 68.5912 163.17 68.9412 165.18C68.3012 165.77 67.6712 166.37 67.0312 166.96C63.5912 170.77 60.2412 174.64 57.8012 179.2C57.4112 179.81 57.0212 180.43 56.6312 181.04C55.4812 181.35 55.3712 182.14 55.6412 183.12C54.9012 183.5 53.9812 183.73 54.1912 184.89C54.0312 184.98 53.8912 185.09 53.7812 185.24C50.5112 188.46 51.1412 190.46 55.8612 191.82C57.1112 191.82 58.3512 191.81 59.6012 191.8C65.0112 191.61 70.4612 191.8 75.7012 190.04C76.6912 189.96 77.6812 189.87 78.6612 189.79C79.9312 190.38 80.7312 189.39 81.6912 188.9C83.0612 189.56 84.4112 191.29 85.8312 188.97C87.3012 189.65 88.4812 188.98 89.6212 188.15C90.2412 189.44 91.2512 190.16 92.6812 190.27C92.8112 191.31 92.2812 192.54 93.5912 193.21C93.5912 195.51 95.3412 197.56 94.5412 199.97C91.8212 199.07 89.1012 198.4 86.4812 200.26C85.4812 200.28 84.4912 200.3 83.4912 200.32C82.8812 200.33 82.2612 200.34 81.6412 200.36C81.3412 200.24 81.0312 200.17 80.7012 200.17C80.1512 199.34 79.4812 199.18 78.6712 199.8C78.0612 199.86 77.4612 199.91 76.8512 199.97C76.4312 199.96 76.0112 199.94 75.5912 199.93C73.6412 199.31 71.6712 199.58 69.7012 199.82C68.7112 199.19 67.7312 199.18 66.7612 199.85C66.0812 199.87 65.4112 199.89 64.7312 199.91C64.4012 199.92 64.0612 199.94 63.7312 199.95C61.8012 199.96 59.8712 199.98 57.9412 199.99C56.2412 199.12 54.5312 198.98 52.8112 199.94L49.8612 200.35C48.3912 200.28 46.9212 200.25 45.4612 200.14C38.9612 199.67 37.1012 195.77 40.7312 190.33C41.6212 188.99 42.3712 187.56 43.1912 186.18C43.6512 185.78 44.1112 185.38 44.5712 184.97C47.3312 184.56 47.9112 182.28 48.7012 180.18L48.7512 180.12C52.2012 177.05 54.7812 173.35 56.7412 169.19L56.7712 169.15C57.7512 168.87 57.7612 168.02 57.8812 167.24C58.1912 166.91 58.5012 166.59 58.8112 166.26C59.4012 166.09 59.7612 165.77 59.5712 165.09C59.6112 164.81 59.7012 164.54 59.8312 164.28C60.2012 163.87 60.5812 163.45 60.9512 163.04C61.3712 162.08 61.7912 161.13 62.2112 160.17C64.0412 160.05 64.9612 159.18 64.6212 157.26L64.6112 157.29Z" fill="#F7A71E"/>
<path d="M110.231 78.28C110.461 78.92 110.691 79.56 110.911 80.2C107.601 82.51 103.621 83.84 100.921 87.03C98.9913 87.05 97.3113 87.84 95.6413 88.69C94.6513 88.69 93.5513 88.01 92.7313 89.13C92.0213 89.65 91.7013 90.35 91.8013 91.24V91.27C88.8513 92.89 86.8213 96.58 82.6113 95.28C81.4813 94.32 80.1113 94.16 78.7113 94.1C78.9713 91.18 76.5712 90.68 74.6912 89.77C66.5112 85.81 58.2612 82 50.1312 77.94C43.5312 74.65 43.3212 72.75 46.7512 67.8C48.6912 65 49.2513 59.69 51.4913 59C55.5813 57.75 55.4213 63.56 57.6413 65.94C64.2213 73.01 72.9013 73.13 81.3013 74.1C86.1913 74.67 91.2713 73.67 95.9213 76C98.5513 77.32 98.0712 74.82 98.6312 73.82C100.281 70.88 100.481 67.04 104.011 65.29C103.941 65.78 103.961 66.31 103.801 66.77C102.355 70.9567 103.775 73.1567 108.061 73.37C108.231 73.37 108.391 73.4 108.561 73.41C108.661 73.75 108.761 74.08 108.851 74.42C108.821 75.88 107.781 77.7 110.221 78.28H110.231Z" fill="#E82626"/>
<path d="M170.651 156.12C171.281 151.43 168.181 147.61 167.671 143.18C171.441 142.9 171.391 147.84 174.631 148.29C175.601 149.95 175.421 152.71 178.511 152.33C178.251 157.19 173.231 158.81 171.481 162.65C171.161 162.73 170.861 162.86 170.591 163.05C154.751 171.69 147.841 189.74 153.441 207.01C157.581 219.78 174.121 234.84 193.861 231.35C214.871 227.64 228.941 207.62 224.061 186.84C219.651 168.09 203.991 157.27 182.881 158.41C182.051 158 181.711 157.35 181.871 156.43C182.761 156.05 183.631 155.4 184.551 155.33C209.881 153.38 232.271 174.15 227.251 202.94C223.071 226.88 195.681 241.15 174.101 232.34C152.621 223.57 143.181 199.42 151.501 179.82C155.131 171.26 161.091 164.78 169.081 160.08C170.551 159.22 173.541 158.8 170.681 156.13L170.651 156.12Z" fill="#878D94"/>
<path d="M143.461 79.94C150.311 95.98 163.941 102.46 180.891 100.8C181.341 102.3 182.571 102.05 183.691 102.06C183.711 102.75 183.721 103.44 183.741 104.13C182.241 104.55 179.671 102.7 179.581 106.1C177.081 106.81 174.581 107.51 172.091 108.22C164.171 109.26 156.211 110.01 148.351 108.14C137.801 105.63 129.081 100.4 123.811 90.44C122.351 87.68 122.601 86.64 126.111 85.93C129.361 85.27 133.321 86.28 135.851 83.05C138.381 82.01 140.921 80.98 143.451 79.94H143.461Z" fill="#F69EA3"/>
<path d="M170.651 156.12C173.511 158.8 170.521 159.21 169.051 160.07C161.071 164.77 155.111 171.24 151.471 179.81C143.151 199.41 152.591 223.55 174.071 232.33C195.651 241.14 223.041 226.87 227.221 202.93C232.241 174.14 209.851 153.37 184.521 155.32C183.601 155.39 182.731 156.04 181.841 156.42C180.571 155.69 179.331 154.94 179.941 153.13C187.431 153.62 194.931 152.38 202.411 154.97C218.141 160.42 229.371 174.52 230.591 191.09C231.891 208.81 224.951 222.99 209.381 231.93C189.231 243.5 166.821 238.6 153.181 219.43C143.241 205.47 142.801 190.11 150.011 175.14C154.151 166.55 161.321 159.82 170.651 156.13V156.12Z" fill="#3E4449"/>
<path d="M64.6113 157.29C64.9513 159.21 64.0313 160.08 62.2013 160.2C61.1313 158.79 59.5413 158.27 57.9613 157.73C42.3713 152.39 28.0512 154.99 16.5312 166.61C5.34124 177.89 0.771257 191.46 6.30126 207.55C11.8713 223.77 26.9513 234.34 42.1213 234.97C63.3113 235.85 79.9313 221.5 83.4913 200.33C84.4913 200.31 85.4812 200.29 86.4812 200.27C86.4512 200.86 86.4313 201.46 86.4013 202.05C85.5513 202.69 86.1512 203.61 85.9712 204.37C83.8412 211.89 80.7112 218.97 75.0412 224.44C63.3212 235.75 49.1313 241.22 33.3013 236.7C16.6413 231.95 5.72125 220.36 1.79125 202.97C-2.97875 181.88 12.1513 157.71 33.7713 153.65C44.0513 151.72 54.7913 152.19 64.6113 157.3V157.29Z" fill="#3E4449"/>
<path d="M95.6513 88.69C97.3213 87.85 99.0012 87.05 100.921 87.03C105.331 86.86 109.141 90 113.651 89.3L113.631 89.22C113.691 89.9 114.121 90.15 114.751 90.15L116.261 90.79C116.231 90.99 116.311 91.13 116.481 91.22C116.881 93.3 117.581 95.2 119.611 96.27C119.751 98.27 120.961 99.45 122.631 100.29L122.601 100.24C122.961 100.66 123.321 101.07 123.681 101.49C124.271 102.06 124.871 102.63 125.471 103.2C126.341 105.18 128.281 105.99 129.821 107.24C129.801 107.57 129.791 107.9 129.791 108.23C123.111 106.88 119.371 101.47 114.661 97.36C113.041 95.94 112.541 92.13 109.131 93.83C103.271 96.75 100.051 101.64 99.7713 108.19C99.5613 112.99 99.3013 117.85 99.8313 122.59C100.641 129.86 97.6312 135.6 93.7212 141.18C93.6112 140.47 93.5013 139.75 93.3913 139.04C93.3913 137.45 93.3812 135.87 93.3812 134.28C93.9812 130.46 94.0012 126.65 93.2512 122.85C93.2712 118.69 93.2912 114.52 93.3212 110.36C93.5712 108.86 94.2313 107.29 92.6413 106.08C94.2513 104.3 93.9412 102.21 93.6012 100.12C93.6012 99.48 93.5813 98.85 93.5813 98.21C94.2113 95.02 94.2013 91.68 95.6813 88.68L95.6513 88.69Z" fill="#EE2E3A"/>
<path d="M179.961 153.13C179.351 154.94 180.591 155.69 181.861 156.42C181.701 157.34 182.041 157.99 182.871 158.4C181.941 160.5 183.431 162.25 183.691 164.18C183.511 165.35 183.811 166.41 184.181 167.54C186.631 175.07 189.121 182.6 191.231 190.23C191.981 192.93 193.031 196.41 190.471 198.57C187.611 200.98 185.391 198.03 183.111 196.57C182.721 196.32 182.161 196.31 181.691 196.19C181.421 195.07 181.201 193.94 180.871 192.84C177.751 182.78 174.621 172.72 171.481 162.66C173.231 158.82 178.251 157.2 178.511 152.34C178.991 152.61 179.481 152.87 179.961 153.14V153.13Z" fill="#F7A71E"/>
<path d="M113.731 180.749C113.631 181.039 113.581 181.329 113.591 181.629C112.431 184.619 110.391 187.539 112.821 190.829C111.561 194.399 109.231 197.779 110.881 201.859L110.821 201.879C110.301 201.739 109.931 201.839 109.901 202.469C109.071 205.559 110.891 208.969 108.741 211.889C108.371 211.909 108.011 211.919 107.641 211.939C105.991 210.549 104.341 209.159 102.681 207.769C101.941 206.459 101.191 205.159 100.451 203.849C101.871 204.149 103.291 204.449 104.711 204.749C104.841 205.189 104.961 205.619 105.091 206.059C105.221 205.979 105.341 205.889 105.471 205.809C105.221 205.459 104.971 205.099 104.721 204.749C104.571 203.449 104.501 202.139 104.261 200.869C102.181 189.739 107.831 181.549 114.571 173.779C114.291 176.109 114.011 178.429 113.721 180.759L113.731 180.749Z" fill="#EE2E3A"/>
<path d="M116.251 90.8C115.751 90.59 115.241 90.37 114.741 90.16C114.371 89.85 114.001 89.54 113.621 89.23L113.641 89.31C114.371 86.14 112.331 83.26 112.711 80.13C113.831 79.86 115.051 79.15 116.051 79.38C125.421 81.58 134.451 79.88 143.421 77.24C143.521 77.87 143.611 78.5 143.711 79.14C143.601 79.4 143.511 79.68 143.451 79.95C140.921 80.98 138.381 82.02 135.841 83.06C130.851 83.07 125.871 83.14 120.881 83.08C115.031 83.01 115.061 82.96 116.381 88.36C116.571 89.12 116.301 89.99 116.241 90.81L116.251 90.8Z" fill="#FAAB55"/>
<path d="M77.9212 104.05C81.3412 104.24 84.6212 105.03 87.7812 106.31C88.5112 107.78 91.0812 106.33 91.2312 108.25C91.3312 109.58 89.2312 108.95 88.6812 110.04C88.4212 110.21 88.1412 110.31 87.8312 110.36C87.3712 110.19 86.9012 110.02 86.4412 109.85C80.9112 108.47 75.3012 109.49 69.7312 109.29L69.6312 109.21C68.2112 103.21 68.9012 102.45 75.1112 103.31C76.0612 103.44 76.9812 103.8 77.9212 104.06V104.05Z" fill="#E82626"/>
<path d="M179.581 106.1C179.671 102.7 182.241 104.55 183.741 104.13C184.661 104.34 185.911 103.42 186.471 104.5C187.371 106.23 185.491 106.14 184.691 106.66C179.221 110.22 173.871 113.99 168.181 117.15C165.561 118.6 165.741 119.9 166.821 121.92C165.801 123.78 164.091 122.88 162.621 122.98C163.891 120.34 160.121 117.56 162.851 114.96C169.261 113.98 174.401 110.28 179.731 107.03C179.831 106.97 179.631 106.42 179.571 106.1H179.581Z" fill="#3E4449"/>
<path d="M154.091 147.089C154.331 147.019 154.541 146.909 154.721 146.739C155.581 146.499 155.861 145.839 155.961 145.039L155.781 144.809L155.991 145.009C156.791 144.899 157.431 144.589 157.631 143.719C159.611 142.519 160.781 140.489 162.441 138.989C164.451 137.179 165.651 137.869 165.451 140.629C161.161 147.059 155.571 152.069 148.831 155.839C148.191 155.859 147.541 155.879 146.901 155.899C147.871 152.719 151.101 151.379 152.731 148.749C153.581 148.509 153.891 147.839 154.101 147.079L154.091 147.089Z" fill="#EE2E3A"/>
<path d="M110.881 202.28C109.231 198.2 111.561 194.82 112.821 191.25C114.401 189.9 115.991 188.56 117.571 187.21C120.101 192.4 117.411 198.46 110.881 202.28Z" fill="#878D94"/>
<path d="M85.8913 6.01005C85.9313 5.77005 85.9413 5.52006 85.9313 5.27006C89.8013 4.81006 92.9412 6.79007 96.1912 8.34007C101.681 10.9601 107.171 13.6001 112.611 16.3301C114.231 17.1401 115.651 18.3201 116.431 20.0601C115.851 20.1901 115.271 20.3201 114.701 20.4501C114.361 20.3001 114.021 20.1401 113.681 19.9901C105.471 14.3501 96.2713 10.6301 87.3013 6.48005C86.8313 6.33005 86.3613 6.18006 85.9013 6.02006L85.8913 6.01005Z" fill="#E9DEB3"/>
<path d="M86.4412 109.85C86.9012 110.02 87.3713 110.19 87.8313 110.36C88.7413 114.23 89.6612 118.11 90.5712 121.98C89.0212 122.04 87.4612 122.1 85.9112 122.17C85.8012 121.84 85.7013 121.51 85.5913 121.19C86.2813 116.74 84.8512 113.34 80.7012 111.28C82.5212 110.42 85.0012 112.22 86.4412 109.85Z" fill="#3E4449"/>
<path d="M172.691 140.17C172.181 133.97 170.671 128 168.671 122.13C170.321 120.64 170.721 122.32 171.011 123.24C172.551 128.13 173.981 133.05 175.391 137.98C175.831 139.52 174.941 140.49 173.701 141.23C173.361 140.88 173.031 140.53 172.691 140.18V140.17Z" fill="#E9DEB3"/>
<path d="M143.911 60.26C143.881 54.57 143.851 48.8801 143.821 43.1801C147.901 47.0801 147.941 55.68 143.911 60.26Z" fill="black"/>
<path d="M85.6012 121.18C85.7012 121.51 85.8112 121.84 85.9212 122.16C84.3912 123.78 84.8912 125.8 84.7212 127.73C84.2812 132.65 82.1013 136.61 77.8113 139.27C79.3713 133.82 84.0213 129.39 83.0813 123.06C82.9113 121.91 84.4013 121.35 85.6113 121.18H85.6012Z" fill="#EDF1D2"/>
<path d="M141.201 38.27C140.411 37.31 139.111 36.68 139.251 35.15C136.255 35 141.641 31.43 142.261 29.27L142.501 29.21C143.301 29.23 144.091 29.26 144.891 29.28C144.501 32.22 144.575 35.19 143.255 38C142.435 38.06 142.021 38.22 141.191 38.28L141.201 38.27Z" fill="#F69EA3"/>
<path d="M137.571 35.43C131.811 35.22 126.001 34.76 120.831 38.16C120.541 36.81 120.361 35.48 121.631 34.47C127.031 34.22 132.371 32.31 137.831 33.96L138.001 33.97C137.861 34.46 137.711 34.94 137.571 35.43Z" fill="#10100F"/>
<path d="M121.631 34.4601C120.361 35.4701 120.531 36.8001 120.831 38.1501C120.081 38.7601 119.341 39.37 118.591 39.98C117.811 40.12 117.021 40.2501 116.811 41.2101L116.711 41.3C116.421 41.6 116.141 41.9101 115.851 42.2101L115.761 42.33C114.451 42.55 114.011 43.78 113.181 44.55C113.001 44.41 112.831 44.27 112.671 44.13C112.421 41.52 113.071 39.7901 115.741 38.3401C118.161 37.0201 119.851 34.35 121.871 32.28C121.791 33 121.711 33.73 121.641 34.45L121.631 34.4601Z" fill="#E82626"/>
<path d="M86.4412 109.85C85.0012 112.22 82.5212 110.42 80.7012 111.28C77.1112 110.24 72.7812 113.26 69.7312 109.29C75.3012 109.49 80.9112 108.47 86.4412 109.85Z" fill="#EE2E3A"/>
<path d="M172.691 140.17C173.031 140.52 173.361 140.87 173.701 141.22C173.281 143.67 174.421 145.92 174.631 148.29C171.391 147.84 171.451 142.9 167.671 143.18L167.711 143.22L166.691 142.01C166.591 141.85 166.551 141.68 166.551 141.5C168.451 140.36 170.611 140.45 172.691 140.17Z" fill="#CFD4DA"/>
<path d="M142.501 29.2001C142.501 29.2001 142.261 29.2601 142.261 29.2701C140.451 29.3101 138.641 29.34 136.831 29.38C136.771 27.53 136.131 25.56 138.711 24.63C141.031 23.79 142.791 24.0001 143.981 26.3301C142.911 26.9901 142.941 28.2101 142.511 29.2001H142.501Z" fill="#E82626"/>
<path d="M143.721 79.13C143.621 78.5 143.531 77.87 143.431 77.23C143.571 74.21 143.721 71.18 143.861 68.16C147.201 71.81 147.131 76.75 143.711 79.13H143.721Z" fill="#EDF1D2"/>
<path d="M77.9212 104.05C76.9812 103.79 76.0612 103.43 75.1112 103.3C68.8912 102.44 68.2112 103.2 69.6312 109.2C67.6012 108.12 66.0512 106.59 66.8012 104.16C67.6612 101.37 70.2712 102.15 72.2712 102.19C74.2712 102.23 76.7012 101.47 77.9212 104.05Z" fill="#EE2E3A"/>
<path d="M95.6513 88.69C94.1613 91.69 94.1713 95.03 93.5513 98.22C91.9413 97.73 94.2413 93.85 90.7413 94.98C91.0913 93.74 91.4412 92.5 91.7912 91.26L91.8013 91.23C92.7513 90.81 92.9612 90.07 92.7312 89.12C93.5512 88 94.6513 88.69 95.6413 88.68L95.6513 88.69Z" fill="#E9DEB3"/>
<path d="M136.821 29.37C138.631 29.33 140.441 29.3 142.251 29.26C141.631 31.42 139.241 32.66 139.241 35.14L139.251 35.2C138.831 34.79 138.411 34.38 137.991 33.97C137.991 33.97 137.821 33.97 137.821 33.96C136.251 32.7 136.641 31.02 136.811 29.38L136.821 29.37Z" fill="#3E4449"/>
<path d="M91.8013 91.27C91.4513 92.51 91.1012 93.75 90.7512 94.99C88.1812 98.82 85.4212 97.4 82.6312 95.28C86.8412 96.58 88.8713 92.89 91.8113 91.27H91.8013Z" fill="#EE2E3A"/>
<path d="M77.8212 139.25C77.3912 143.13 74.4012 145.08 71.7812 147.33C72.0012 143.3 74.6012 141.04 77.8212 139.25Z" fill="#EDF1D2"/>
<path d="M88.6813 110.04C89.2313 108.95 91.3312 109.57 91.2312 108.25C91.0812 106.33 88.5112 107.78 87.7812 106.31C89.0412 106.22 90.3012 106.12 91.5712 106.03C91.9212 106.05 92.2713 106.07 92.6113 106.09C94.2013 107.3 93.5412 108.87 93.2912 110.37C92.9912 110.28 92.7112 110.33 92.4512 110.51C91.1912 110.35 89.9413 110.2 88.6813 110.04Z" fill="#EE2E3A"/>
<path d="M85.9713 204.37C86.1513 203.6 85.5513 202.69 86.4013 202.05C90.1513 203.95 94.0213 202.97 97.8713 202.53C98.0913 202.34 98.3413 202.23 98.6313 202.22L98.6613 202.28C98.6813 202.9 98.6913 203.52 98.7113 204.14C94.4613 204.22 90.2213 204.29 85.9713 204.37Z" fill="#878D94"/>
<path d="M142.501 29.2C142.931 28.21 142.901 26.99 143.971 26.33C144.851 26.41 146.071 25.91 146.511 26.87C147.131 28.23 145.591 28.56 144.891 29.27C144.091 29.25 143.301 29.22 142.501 29.2Z" fill="#3E4449"/>
<path d="M92.6113 106.09C92.2613 106.07 91.9212 106.05 91.5712 106.03C92.2412 104.06 92.9012 102.1 93.5712 100.13C93.9112 102.22 94.2213 104.31 92.6113 106.09Z" fill="#E9DEB3"/>
<path d="M100.451 204.27C101.191 205.58 101.941 206.88 102.681 208.19C100.361 208.04 99.5612 206.66 99.7212 204.5L99.7612 204.05C99.9512 204.27 100.181 204.34 100.451 204.27Z" fill="#EDF1D2"/>
<path d="M183.691 102.06C182.571 102.06 181.341 102.31 180.891 100.8C182.491 99.75 182.981 101.13 183.691 102.06Z" fill="#CFD4DA"/>
<path d="M122.761 181.19C122.671 179.85 123.461 179.27 124.641 179.06C124.671 180.35 124.001 181.03 122.761 181.19Z" fill="#E9DEB3"/>
<path d="M98.7012 204.14C98.6812 203.52 98.6713 202.9 98.6513 202.28C99.5413 202.54 99.7012 203.27 99.7612 204.05L99.7212 204.5C99.3812 204.38 99.0412 204.26 98.7012 204.14Z" fill="#509542"/>
<path d="M144.821 158.24C144.751 157.95 144.751 157.67 144.831 157.38C145.421 157.28 146.011 157.18 146.611 157.07C146.731 157.2 146.851 157.34 146.971 157.48C146.251 157.73 145.541 157.99 144.821 158.24Z" fill="#E9DEB3"/>
<path d="M146.901 156.33C147.541 156.31 148.191 156.29 148.831 156.27C148.211 156.67 147.591 157.08 146.971 157.48C146.851 157.34 146.731 157.21 146.611 157.07C146.761 156.8 146.811 156.52 146.751 156.21L146.891 156.32L146.901 156.33Z" fill="#E9DEB3"/>
<path d="M107.641 212.36C108.011 212.34 108.371 212.33 108.741 212.31C108.571 212.72 108.391 213.13 108.221 213.54C108.031 213.14 107.841 212.75 107.641 212.35V212.36Z" fill="#EDF1D2"/>
<path d="M109.901 202.89C109.931 202.26 110.301 202.16 110.821 202.3C110.511 202.5 110.211 202.69 109.901 202.89Z" fill="#878D94"/>
<path d="M143.781 159.2C143.781 158.55 144.131 158.27 144.751 158.28C144.421 158.59 144.101 158.89 143.781 159.2Z" fill="#E9DEB3"/>
<path d="M88.3413 62.21C80.1113 62.1 70.3912 56.37 68.4812 50.77C65.6212 42.43 69.3112 36.83 78.1012 37.34C85.1512 37.75 91.6112 40.64 96.1213 46.38C98.3512 49.22 100.001 52.64 97.9012 56.5C95.7212 60.5 92.6612 62.87 88.3512 62.2L88.3413 62.21ZM78.9612 40.26C77.6312 40.26 76.2712 40.05 74.9912 40.3C69.7212 41.29 67.1212 46.03 70.1712 50.07C74.5012 55.81 80.0712 60.9 87.8012 60.08C95.8712 59.22 97.8812 55.78 94.5212 48.89C91.5012 42.7 85.6412 40.43 78.9612 40.27V40.26Z" fill="#E82626"/>
<path d="M105.691 61C106.931 57.11 106.321 52.87 108.461 49.06C109.531 47.15 108.561 45.31 105.981 44.03C93.6812 37.94 81.5312 31.53 68.8312 26.28C66.0512 25.13 68.3312 23.6 67.8912 22.62C82.4712 30.34 97.5212 37.34 112.661 44.14C112.831 44.29 113.001 44.43 113.171 44.56C113.031 45.44 112.901 46.33 112.771 47.21L112.741 47.27C110.611 49.86 109.951 52.95 109.711 56.18L109.691 56.21C107.621 57.19 108.871 60.95 105.681 61H105.691Z" fill="#E82626"/>
<path d="M101.661 27.2C98.6412 29.87 94.6512 30.46 91.7212 28.58C89.4012 27.09 88.4812 23.37 90.6712 20.25C91.0512 20.31 91.4312 20.38 91.8012 20.44C91.9812 21.1 92.1612 21.76 92.3312 22.42C90.8312 24.64 92.4612 25.94 94.0112 26.7C95.4712 27.41 97.5312 28.18 98.2912 25.5C98.5212 25.15 98.7612 24.79 98.9912 24.44C100.761 24.51 101.011 26.04 101.641 27.21L101.661 27.2Z" fill="#F48386"/>
<path d="M91.8113 20.44C91.4313 20.38 91.0513 20.31 90.6813 20.25C82.5313 15.64 81.5312 12.68 85.8912 6.01001C86.3612 6.16001 86.8312 6.31002 87.2912 6.46002C84.8312 11.78 84.7113 16.22 91.5513 18.23C92.7713 18.59 92.8212 19.56 91.8212 20.43L91.8113 20.44Z" fill="#E82626"/>
<path d="M101.661 27.2C101.031 26.04 100.781 24.51 99.0112 24.43C99.9612 22.04 100.741 20.74 103.191 23.55C104.841 25.45 107.541 26.45 110.371 25.84C110.501 25.98 110.641 26.12 110.771 26.26C107.971 28.93 104.641 26.34 101.661 27.19V27.2Z" fill="#E82626"/>
<path d="M113.681 19.98C114.021 20.13 114.361 20.29 114.701 20.44C114.931 23.42 114.081 25.67 110.771 26.26C110.641 26.12 110.501 25.98 110.371 25.84C111.471 23.89 112.571 21.93 113.681 19.97V19.98Z" fill="#E82626"/>
<path fill-rule="evenodd" clip-rule="evenodd" d="M143.131 40.88L143.137 40.8984C141.92 40.4575 141.481 39.4386 141.201 38.29C140.995 38.0392 140.752 37.81 140.509 37.5803C139.843 36.9522 139.174 36.3205 139.246 35.2336L139.271 35.23L139.251 35.17C139.249 35.1914 139.248 35.2126 139.246 35.2336C138.974 35.2723 138.7 35.3087 138.426 35.345C138.144 35.3825 137.861 35.4201 137.581 35.4601C137.23 35.4473 136.878 35.4335 136.526 35.4198C131.107 35.2083 125.696 34.9972 120.831 38.19C120.456 38.495 120.084 38.8 119.711 39.105C119.339 39.41 118.966 39.715 118.591 40.0201C118.361 40.96 117.691 41.25 116.811 41.25L116.711 41.3401C116.566 41.4901 116.424 41.6426 116.281 41.795C116.139 41.9475 115.996 42.1 115.851 42.25L115.763 42.3679L115.761 42.3401C114.863 42.491 114.373 43.1172 113.884 43.7442C113.659 44.0312 113.435 44.3183 113.171 44.5601C113.031 45.4401 112.901 46.3201 112.771 47.2101C114.582 46.2104 115.761 44.8284 115.772 42.7285C115.771 44.8452 114.581 46.2357 112.771 47.2401L112.751 47.2806L112.751 47.2701C110.621 49.8601 109.961 52.9501 109.721 56.1801C110.791 55.3842 111.473 54.4557 111.911 53.4435C111.473 54.4657 110.789 55.4046 109.711 56.2101L109.697 56.2313L109.701 56.2101C108.81 56.6301 108.532 57.5626 108.254 58.4943C107.884 59.7364 107.514 60.9772 105.691 61C105.411 61.7146 105.134 62.4266 104.857 63.1387C104.579 63.8516 104.301 64.5646 104.021 65.28C103.998 65.4438 103.985 65.6121 103.971 65.7807C103.945 66.1166 103.918 66.4538 103.811 66.76C102.365 70.94 103.785 73.14 108.071 73.36C108.173 73.36 108.27 73.3707 108.369 73.3814C108.432 73.3884 108.496 73.3953 108.562 73.3995L108.561 73.4301C108.635 73.707 108.715 73.9774 108.796 74.2519L108.851 74.44L108.861 74.4468C108.851 74.7673 108.795 75.1045 108.739 75.4417C108.54 76.6357 108.34 77.8296 110.229 78.2795L110.221 78.29L110.908 80.202C109.777 80.988 108.567 81.6608 107.357 82.3338C105.028 83.6289 102.698 84.9248 100.921 87.03C102.963 86.9513 104.879 87.5823 106.794 88.2131C109.015 88.9446 111.235 89.6759 113.651 89.3C114.041 87.6138 113.642 86.0045 113.242 84.3945C112.894 82.9906 112.546 81.5863 112.72 80.1301L112.721 80.13C113.069 80.043 113.427 79.9153 113.785 79.7876L113.786 79.7876C114.579 79.5046 115.372 79.2216 116.061 79.38C125.441 81.58 134.461 79.8801 143.431 77.2401L143.449 76.8549C143.583 73.9625 143.718 71.0617 143.861 68.17C143.451 65.53 143.451 62.89 143.911 60.26L143.821 43.1801C143.706 42.7951 143.591 42.4125 143.476 42.03C143.363 41.6536 143.25 41.2772 143.137 40.8984L143.141 40.9001L143.131 40.88ZM118.562 39.9953C117.792 40.1334 117.019 40.272 116.811 41.22C117.691 41.23 118.361 40.93 118.591 39.9901L118.562 39.9953Z" fill="#FAAB55"/>
<path d="M138.001 33.97C138.421 34.38 138.841 34.79 139.261 35.2C138.701 35.27 138.131 35.35 137.571 35.43C137.711 34.94 137.851 34.46 138.001 33.97Z" fill="#F69EA3"/>
<path d="M64.7312 199.92C65.4112 199.9 66.0812 199.88 66.7612 199.86C67.7512 200.53 68.7312 200.54 69.7012 199.83C71.6712 199.58 73.6413 199.31 75.5913 199.94C75.8613 200.18 76.1313 200.43 76.4013 200.67C76.5513 200.44 76.7012 200.21 76.8512 199.98C77.4612 199.92 78.0612 199.87 78.6712 199.81C78.9713 200.03 79.2613 200.26 79.5613 200.48C79.7413 200.87 79.9113 201.25 80.0913 201.64C77.1913 203.18 79.4812 205.86 78.7012 208.04C73.1413 223.59 52.8413 235.73 34.6213 230.78C16.9013 225.96 2.76123 203.16 8.25123 185.91C15.4512 163.28 38.3213 152.65 59.9613 161.97C59.9113 162.75 59.8512 163.54 59.8013 164.32C59.6712 164.58 59.5912 164.84 59.5412 165.13C59.2912 165.52 59.0412 165.91 58.7812 166.3C58.4712 166.63 58.1612 166.95 57.8512 167.28C56.8912 167.58 56.6313 168.28 56.7413 169.19L56.7113 169.23C51.9413 171.34 50.1412 175.61 48.7212 180.16L48.6712 180.22C45.8512 180.57 44.9212 182.55 44.5412 185.01C44.0812 185.41 43.6212 185.81 43.1612 186.22C37.9012 186.46 34.8712 189.35 34.5712 194.4C34.2712 199.43 37.1612 203.8 41.7512 204.19C46.7112 204.61 51.7213 204.28 58.0213 204.28C55.0213 202.67 53.1512 203.06 51.4212 203.18C48.5712 203.38 49.7113 201.67 49.8312 200.38C50.8112 200.24 51.7913 200.1 52.7713 199.97C54.0413 200.14 55.3112 200.3 56.5812 200.47C56.9613 200.83 57.3312 200.93 57.6712 200.42L57.9013 200.02C59.8313 200.01 61.7612 199.99 63.6912 199.98C64.0212 199.97 64.3612 199.95 64.6912 199.94L64.7312 199.92Z" fill="white"/>
<path d="M99.7612 203.639C99.7012 202.849 99.5513 202.129 98.6513 201.869L98.6213 201.809C97.9013 198.269 98.0712 194.239 93.5812 192.809C92.2712 192.139 92.8012 190.899 92.6712 189.869C92.5412 188.889 92.5913 187.839 92.2413 186.959C89.0013 178.879 87.7012 170.519 87.5712 161.799C87.5012 156.899 89.6112 152.449 89.3812 147.639L89.4712 147.679C90.9212 147.239 90.6313 145.979 90.7713 144.929L90.8312 144.839C91.2512 144.579 92.7112 145.139 91.7012 143.739C91.7012 143.089 91.7012 142.439 91.7012 141.779C91.8512 141.589 91.9512 141.369 92.0012 141.119C92.5612 141.009 93.1213 140.899 93.6813 140.779C97.5913 135.199 100.611 129.459 99.7912 122.189C99.2612 117.439 99.5212 112.579 99.7312 107.789C100.021 101.239 103.241 96.3486 109.091 93.4286C112.501 91.7286 112.991 95.5386 114.621 96.9586C119.331 101.069 123.071 106.469 129.751 107.829C130.721 108.399 131.691 108.959 132.651 109.529C133.241 115.179 130.851 120.269 129.661 125.579C127.571 127.529 127.611 130.059 127.771 132.609C127.581 133.579 127.541 134.609 127.171 135.509C123.371 144.649 121.351 154.309 118.691 163.789C118.521 164.019 118.321 164.059 118.081 163.909C116.451 164.269 116.771 165.609 116.671 166.739V166.759C114.731 168.379 114.541 170.549 114.761 172.849C114.781 173.179 114.711 173.479 114.551 173.769C107.801 181.539 102.161 189.719 104.241 200.859C104.481 202.139 104.551 203.449 104.701 204.739C103.281 204.449 101.861 204.149 100.441 203.849C100.161 203.919 99.9312 203.849 99.7512 203.629L99.7612 203.639Z" fill="#EE2E3A"/>
<path d="M59.9813 161.96C38.3413 152.64 15.4713 163.27 8.27127 185.9C2.78127 203.16 16.9213 225.96 34.6413 230.77C52.8613 235.72 73.1512 223.59 78.7212 208.03C79.5012 205.85 77.2113 203.17 80.1012 201.63C80.6113 201.21 81.1313 200.78 81.6513 200.36C82.2713 200.35 82.8812 200.33 83.5012 200.32C79.9412 221.49 63.3213 235.84 42.1313 234.96C26.9513 234.33 11.8813 223.75 6.31127 207.54C0.781274 191.45 5.36125 177.89 16.5413 166.6C28.0713 154.98 42.3812 152.38 57.9712 157.72C59.5513 158.26 61.1413 158.78 62.2113 160.19C61.7913 161.15 61.3713 162.1 60.9513 163.06C60.6313 162.69 60.3113 162.32 59.9913 161.95L59.9813 161.96Z" fill="#878D94"/>
<path d="M56.6312 181.04C57.0212 180.43 57.4113 179.81 57.8013 179.2C60.1613 178.85 61.2213 176.95 62.5713 175.33C64.6213 172.85 65.9313 169.75 68.7913 167.95C75.1613 173.12 77.8913 180.35 80.1113 187.87C79.6313 188.51 79.1412 189.15 78.6612 189.79C77.6712 189.87 76.6813 189.96 75.7013 190.04C70.0813 188.3 64.7412 189.12 59.6012 191.8C58.3512 191.8 57.1113 191.81 55.8613 191.82C54.9413 189.7 52.9912 187.9 53.7812 185.24C53.8912 185.09 54.0312 184.98 54.1912 184.89C58.3612 183.78 62.9213 184.07 66.6813 181.29C63.3413 181.84 60.0013 182.39 56.6513 182.95C56.6513 182.32 56.6412 181.68 56.6312 181.05V181.04Z" fill="white"/>
<path d="M49.8612 200.36C49.7412 201.65 48.6012 203.35 51.4512 203.16C53.1812 203.04 55.0512 202.65 58.0512 204.26C51.7512 204.26 46.7312 204.58 41.7812 204.17C37.1912 203.78 34.3012 199.41 34.6012 194.38C34.9012 189.33 37.9312 186.44 43.1912 186.2C42.3812 187.59 41.6312 189.02 40.7312 190.35C37.1012 195.79 38.9612 199.69 45.4612 200.16C46.9212 200.27 48.3912 200.3 49.8612 200.37V200.36Z" fill="#878D94"/>
<path d="M68.9412 165.19C68.5912 163.19 69.9212 162.6 71.4712 162.19C71.8612 162.57 72.2613 162.95 72.6513 163.33C76.9213 167.33 80.4612 171.89 82.9412 177.21C83.9212 181.13 86.0913 184.75 85.8313 188.98C84.4113 191.3 83.0612 189.57 81.6912 188.91C81.7312 188.66 81.7512 188.4 81.7612 188.15C82.0812 187.63 82.6513 187.11 82.6713 186.58C82.9713 180.11 75.2213 168.09 68.9513 165.2L68.9412 165.19Z" fill="#3E4449"/>
<path d="M68.9412 165.19C75.2112 168.08 82.9612 180.1 82.6612 186.57C82.6412 187.11 82.0712 187.62 81.7512 188.14C81.2012 188.05 80.6613 187.96 80.1113 187.87C77.8913 180.35 75.1612 173.12 68.7912 167.95C68.4612 167.17 67.7512 167.05 67.0312 166.96C67.6712 166.37 68.3012 165.77 68.9412 165.18V165.19Z" fill="#878D94"/>
<path d="M89.3913 148.04C89.6213 152.85 87.5113 157.3 87.5813 162.2C87.7113 170.92 89.0112 179.28 92.2512 187.36C92.6112 188.25 92.5513 189.3 92.6813 190.27C91.2413 190.16 90.2313 189.44 89.6213 188.15C90.2413 186.26 89.3412 184.62 88.7912 182.9C85.9712 174.14 84.8812 165.22 86.4112 156.07C86.8812 154.15 87.3513 152.22 87.8113 150.3C88.3413 149.54 88.8613 148.79 89.3913 148.03V148.04Z" fill="#509542"/>
<path d="M86.4112 155.669C84.8812 164.819 85.9712 173.739 88.7912 182.499C89.3412 184.209 90.2413 185.849 89.6213 187.749C88.4813 188.579 87.3013 189.249 85.8313 188.569C86.0913 184.349 83.9212 180.719 82.9412 176.799C85.1212 176.889 86.1513 175.859 85.4913 173.739C84.0713 169.159 84.9512 164.479 84.7812 159.849C84.7212 158.319 84.1212 156.369 86.4212 155.679L86.4112 155.669Z" fill="#EDF1D2"/>
<path d="M88.6813 110.04C89.9413 110.2 91.1912 110.35 92.4512 110.51C92.3112 114.4 93.2113 118.36 91.6413 122.15C91.2813 122.1 90.9312 122.04 90.5712 121.99C89.6612 118.11 88.7413 114.24 87.8313 110.36C88.1413 110.32 88.4213 110.21 88.6813 110.04Z" fill="white"/>
<path d="M97.8613 202.52C94.0113 202.97 90.1413 203.95 86.3913 202.04C86.4213 201.45 86.4412 200.85 86.4712 200.26C89.0912 198.4 91.8112 199.06 94.5412 199.97C95.6512 200.82 96.7513 201.67 97.8613 202.52Z" fill="white"/>
<path d="M59.5913 191.8C64.7313 189.12 70.0712 188.29 75.6912 190.04C70.4512 191.8 65.0013 191.61 59.5913 191.8Z" fill="#E9DEB3"/>
<path d="M67.0312 166.97C67.7512 167.06 68.4612 167.18 68.7912 167.96C65.9312 169.75 64.6212 172.86 62.5712 175.34C61.2312 176.96 60.1613 178.86 57.8013 179.21C60.2413 174.65 63.5912 170.78 67.0312 166.97Z" fill="#E9DEB3"/>
<path d="M48.7512 180.13C50.1712 175.58 51.9713 171.31 56.7413 169.2C54.7913 173.36 52.2012 177.06 48.7512 180.13Z" fill="#E9DEB3"/>
<path d="M97.8613 202.109C96.7513 201.259 95.6512 200.409 94.5412 199.559C95.3312 197.149 93.6013 195.099 93.5913 192.799C98.0813 194.229 97.9112 198.259 98.6312 201.799C98.3412 201.809 98.0813 201.909 97.8713 202.109H97.8613Z" fill="#EE2E3A"/>
<path d="M56.6513 182.95C59.9913 182.4 63.3312 181.85 66.6812 181.29C62.9212 184.07 58.3612 183.78 54.1912 184.89C53.9912 183.73 54.9013 183.5 55.6513 183.12C55.9913 183.06 56.3212 183 56.6612 182.94L56.6513 182.95Z" fill="#878D94"/>
<path d="M72.6413 163.32C72.2513 162.94 71.8513 162.56 71.4613 162.18C72.4813 157.85 75.6913 155.06 78.5813 152.04C78.7313 152.19 78.8812 152.33 79.0312 152.47C78.2112 156.86 73.1813 158.76 72.6413 163.31V163.32Z" fill="#E9DEB3"/>
<path d="M93.2313 122.86C93.9813 126.66 93.9513 130.47 93.3613 134.29C90.1913 131.13 92.3613 127.25 91.9313 123.71C92.3613 123.43 92.8013 123.14 93.2313 122.85V122.86Z" fill="#C4A72F"/>
<path d="M89.3913 148.04C88.8613 148.8 88.3413 149.55 87.8113 150.31C86.8013 148.39 89.6112 145.18 85.7512 144.23C85.5812 144.05 85.4112 143.88 85.2212 143.73C85.9612 141.49 87.1213 140.55 89.2113 142.43C89.4413 143.39 89.6613 144.35 89.8913 145.31C89.7513 146.23 89.6212 147.16 89.4812 148.08L89.3913 148.04Z" fill="#E9DEB3"/>
<path d="M78.5813 152.04C80.1013 149.3 81.9413 146.81 84.2713 144.7C84.4413 144.89 84.6113 145.07 84.8013 145.24C83.4613 148.11 82.1912 151.04 79.0312 152.47C78.8812 152.32 78.7313 152.18 78.5813 152.03V152.04Z" fill="#E9DEB3"/>
<path d="M53.7812 185.24C52.9812 187.9 54.9412 189.7 55.8612 191.82C51.1412 190.45 50.5112 188.45 53.7812 185.24Z" fill="#E9DEB3"/>
<path d="M93.2312 122.86C92.8012 123.15 92.3613 123.43 91.9313 123.72C91.8413 123.19 91.7413 122.67 91.6513 122.15C93.2213 118.36 92.3213 114.4 92.4613 110.51C92.7213 110.33 93.0013 110.28 93.3013 110.37C93.2813 114.53 93.2612 118.7 93.2312 122.86Z" fill="#E9DEB3"/>
<path d="M44.5712 184.98C44.9512 182.52 45.8812 180.54 48.7012 180.19C47.9112 182.29 47.3212 184.57 44.5712 184.98Z" fill="#E9DEB3"/>
<path d="M89.8913 145.31C89.6713 144.35 89.4413 143.39 89.2113 142.43C90.0413 142.35 90.8812 142.27 91.7212 142.19C91.7212 142.84 91.7212 143.49 91.7212 144.15C91.4312 144.52 91.1412 144.88 90.8512 145.25C90.8512 145.25 90.7912 145.34 90.7912 145.33C90.4912 145.27 90.2013 145.27 89.9013 145.31H89.8913Z" fill="#C4A72F"/>
<path d="M57.9412 199.99L57.7113 200.39C57.3513 200.41 56.9813 200.42 56.6213 200.44C55.3513 200.27 54.0813 200.11 52.8113 199.94C54.5313 198.98 56.2412 199.12 57.9412 199.99Z" fill="#E9DEB3"/>
<path d="M80.1113 187.87C80.6613 187.96 81.2012 188.05 81.7512 188.14C81.7512 188.4 81.7213 188.65 81.6813 188.9C80.7313 189.39 79.9213 190.38 78.6513 189.79C79.1313 189.15 79.6212 188.51 80.1012 187.87H80.1113Z" fill="#E9DEB3"/>
<path d="M93.7013 141.19C93.1413 141.3 92.5813 141.41 92.0213 141.53C91.6313 140.25 92.0513 139.41 93.3713 139.05C93.4813 139.76 93.5913 140.48 93.7013 141.19Z" fill="#C4A72F"/>
<path d="M69.7012 199.83C68.7312 200.54 67.7512 200.53 66.7612 199.86C67.7312 199.19 68.7112 199.2 69.7012 199.83Z" fill="#E9DEB3"/>
<path d="M81.6413 200.36C81.1213 200.78 80.6013 201.2 80.0913 201.63C79.9213 201.25 79.7413 200.86 79.5613 200.47C79.9413 200.37 80.3212 200.27 80.7012 200.17C81.0312 200.17 81.3413 200.24 81.6413 200.36Z" fill="#EDF1D2"/>
<path d="M80.7012 200.17C80.3212 200.27 79.9413 200.37 79.5613 200.47C79.2613 200.25 78.9712 200.02 78.6712 199.8C79.4812 199.18 80.1512 199.34 80.7012 200.17Z" fill="#E9DEB3"/>
<path d="M59.9812 161.96C60.3012 162.33 60.6212 162.7 60.9412 163.07C60.5712 163.48 60.1912 163.9 59.8212 164.31C59.8712 163.53 59.9312 162.74 59.9812 161.96Z" fill="#E9DEB3"/>
<path d="M76.8512 199.97C76.7012 200.2 76.5513 200.43 76.4013 200.66C76.1313 200.42 75.8613 200.17 75.5913 199.93C76.0113 199.94 76.4312 199.96 76.8512 199.97Z" fill="#EDF1D2"/>
<path d="M56.7612 169.17C56.6612 168.26 56.9113 167.55 57.8713 167.26C57.7413 168.04 57.7412 168.89 56.7612 169.17Z" fill="#E9DEB3"/>
<path d="M56.6513 182.95C56.3113 183.01 55.9812 183.07 55.6412 183.13C55.3712 182.15 55.4812 181.35 56.6312 181.05C56.6312 181.68 56.6413 182.32 56.6513 182.95Z" fill="#E9DEB3"/>
<path d="M64.7312 199.92C64.4012 199.93 64.0612 199.94 63.7312 199.96C64.0612 199.95 64.4012 199.94 64.7312 199.92Z" fill="#E9DEB3"/>
<path d="M58.8013 166.28C59.0513 165.89 59.3013 165.5 59.5613 165.11C59.7613 165.79 59.3913 166.1 58.8013 166.28Z" fill="#E9DEB3"/>
<path d="M84.2713 144.7C84.5913 144.38 84.9112 144.05 85.2312 143.72C85.4112 143.87 85.5912 144.04 85.7612 144.22C85.4412 144.56 85.1213 144.9 84.8013 145.23C84.6113 145.06 84.4413 144.88 84.2713 144.69V144.7Z" fill="#E9DEB3"/>
<path d="M92.7413 89.13C92.9713 90.07 92.7613 90.82 91.8113 91.24C91.7113 90.36 92.0313 89.66 92.7413 89.13Z" fill="#EE2E3A"/>
<path d="M118.731 164.2C121.391 154.73 123.411 145.06 127.211 135.92C127.581 135.03 127.621 133.99 127.811 133.03C136.061 133.18 144.301 133.33 152.551 133.48C153.071 134.68 153.071 135.9 152.671 137.13C151.851 137.41 151.511 138.04 151.441 138.86L151.371 138.98C151.041 139.27 150.701 139.56 150.371 139.85C149.391 140.83 148.411 141.82 147.441 142.8C146.661 143.01 145.981 143.34 145.771 144.22C142.561 147.98 138.211 150.66 135.511 154.91C135.161 155.26 134.811 155.61 134.461 155.96C132.231 158.06 130.011 160.15 127.781 162.25C126.571 162.15 125.381 162.11 124.561 163.27C122.591 163.39 120.811 164.72 118.741 164.2H118.731Z" fill="#EE2E3A"/>
<path d="M129.701 125.99C130.891 120.68 133.271 115.58 132.691 109.94C142.071 114.15 152.001 113.14 161.841 113.07C162.181 113.7 162.521 114.33 162.861 114.96C160.131 117.56 163.901 120.34 162.631 122.98C161.461 123.86 161.321 125.69 159.711 126.17C157.041 126.2 154.371 126.24 151.701 126.27C146.381 126.27 141.051 126.26 135.731 126.25C135.391 126.25 135.051 126.25 134.711 126.25C133.421 126.32 132.131 126.4 130.851 126.47C130.471 126.31 130.091 126.15 129.711 126L129.701 125.99Z" fill="#EE2E3A"/>
<path d="M118.731 164.2C120.801 164.73 122.581 163.39 124.551 163.27C124.621 163.85 124.681 164.42 124.741 165C122.451 167.75 119.991 170.31 116.861 172.13C115.261 170.53 117.291 168.81 116.691 167.18V167.16C117.801 166.53 117.741 165.33 118.101 164.33C118.341 164.48 118.541 164.44 118.711 164.21L118.731 164.2Z" fill="#EDF1D2"/>
<path d="M129.701 125.99C130.081 126.15 130.461 126.31 130.841 126.46C130.061 130.233 131.681 132.13 135.701 132.15C139.851 132.16 144.011 132.08 148.161 132.19C149.681 132.23 151.581 131.41 152.561 133.47C144.311 133.32 136.071 133.17 127.821 133.02C127.661 130.46 127.611 127.94 129.711 125.98L129.701 125.99Z" fill="#C4A72F"/>
<path fill-rule="evenodd" clip-rule="evenodd" d="M168.681 122.13L166.821 121.92L166.811 121.91C166.062 123.276 164.936 123.153 163.813 123.032C163.406 122.988 162.999 122.943 162.611 122.97C162.129 123.333 161.821 123.857 161.514 124.382C161.076 125.13 160.637 125.878 159.691 126.16C157.041 127.76 154.371 127.59 151.681 126.26C146.361 126.25 141.031 126.24 135.711 126.24C135.371 126.92 135.031 126.92 134.691 126.24C134.07 126.274 133.447 126.31 132.823 126.347L132.82 126.347L132.817 126.347C132.156 126.386 131.494 126.424 130.831 126.46C130.051 130.24 131.671 132.137 135.691 132.15C137.168 132.157 138.643 132.15 140.118 132.144C142.797 132.131 145.474 132.119 148.151 132.19C148.497 132.199 148.863 132.164 149.233 132.128L149.234 132.128C150.489 132.006 151.794 131.879 152.551 133.47C153.071 134.67 153.071 135.89 152.661 137.12C152.691 138.02 152.561 138.79 151.431 138.85L151.361 138.97C151.381 139.66 151.011 139.91 150.361 139.84C149.391 140.82 148.411 141.81 147.431 142.79C147.441 143.94 146.691 144.18 145.761 144.22C144.45 145.756 142.95 147.111 141.45 148.467L141.45 148.468L141.45 148.468C139.278 150.431 137.104 152.396 135.501 154.91C135.491 155.59 135.131 155.94 134.451 155.96L131.111 159.105L127.771 162.25C127.571 164.05 126.651 165.06 124.751 165C122.461 167.75 120.001 170.32 116.871 172.13C116.751 172.41 116.651 172.69 116.561 172.98C116.561 176.03 115.831 178.83 113.741 181.17C113.641 181.45 113.601 181.75 113.601 182.05C113.479 184.555 114.111 186.322 116.529 186.324C114.103 186.327 113.469 184.559 113.591 182.05C113.401 182.541 113.186 183.031 112.972 183.52C111.882 186.01 110.79 188.501 112.821 191.25C113.611 190.575 114.403 189.903 115.196 189.23C115.988 188.558 116.781 187.885 117.571 187.21C117.582 187.12 117.593 187.029 117.604 186.937L117.631 186.71C117.646 186.587 117.661 186.465 117.675 186.343L117.691 186.212L117.701 186.21L122.771 181.2C122.681 179.86 123.461 179.29 124.651 179.07C124.976 178.74 125.304 178.413 125.631 178.085C125.959 177.758 126.286 177.43 126.611 177.1L126.62 177.08C131.244 174.675 135.101 171.543 136.783 166.345L136.801 166.33C137.966 165.145 139.131 163.958 140.296 162.77C141.461 161.583 142.626 160.395 143.791 159.21C143.791 158.55 144.131 158.28 144.761 158.29L144.831 158.25C144.761 157.96 144.761 157.67 144.841 157.39C145.081 156.35 145.841 156.15 146.761 156.23L146.901 156.34C147.469 154.485 148.81 153.257 150.152 152.028C151.103 151.157 152.055 150.285 152.731 149.19C152.741 148.26 152.941 147.5 154.101 147.52C154.341 147.45 154.551 147.34 154.731 147.17C154.731 146.3 154.911 145.56 155.971 145.47L155.791 145.24L156.001 145.44C156.061 144.4 156.771 144.18 157.631 144.14C158.847 143.403 159.757 142.35 160.663 141.301L160.664 141.301L160.664 141.301L160.664 141.301C161.233 140.642 161.801 139.985 162.441 139.41C164.451 137.59 165.651 138.29 165.451 141.05L166.561 141.5C168.022 140.624 169.636 140.474 171.249 140.325L171.25 140.325C171.735 140.28 172.22 140.235 172.701 140.17C172.191 133.97 170.681 128 168.681 122.13ZM114.781 173.27C114.801 173.6 114.731 173.9 114.571 174.19C114.281 176.52 114.001 178.84 113.721 181.17C115.811 178.84 116.541 176.04 116.541 172.98C115.961 173.07 115.371 173.17 114.781 173.27Z" fill="#F7A71E"/>
<path d="M116.551 172.97C115.961 173.07 115.371 173.17 114.791 173.26C114.571 170.96 114.771 168.79 116.701 167.17C117.291 168.8 115.271 170.52 116.871 172.12C116.751 172.39 116.641 172.68 116.561 172.97H116.551Z" fill="#509542"/>
<path d="M124.741 165C124.681 164.42 124.611 163.85 124.551 163.27C125.361 162.11 126.551 162.14 127.761 162.25C127.561 164.05 126.641 165.06 124.741 165Z" fill="#C4A72F"/>
<path d="M151.691 126.27C154.361 126.24 157.031 126.2 159.701 126.17C157.051 127.77 154.381 127.6 151.691 126.27Z" fill="#C4A72F"/>
<path d="M157.621 144.14C157.431 145.02 156.791 145.33 155.981 145.43C156.051 144.4 156.761 144.18 157.621 144.14Z" fill="#C4A72F"/>
<path d="M151.431 138.85C151.511 138.03 151.841 137.41 152.661 137.12C152.691 138.01 152.561 138.78 151.431 138.85Z" fill="#C4A72F"/>
<path d="M146.751 156.22C146.811 156.52 146.751 156.81 146.611 157.08C146.021 157.18 145.421 157.28 144.831 157.39C145.071 156.35 145.831 156.15 146.751 156.23V156.22Z" fill="#C4A72F"/>
<path d="M145.761 144.22C145.971 143.34 146.651 143.01 147.431 142.8C147.451 143.94 146.691 144.18 145.761 144.22Z" fill="#C4A72F"/>
<path d="M154.091 147.5C153.891 148.26 153.571 148.93 152.721 149.17C152.721 148.24 152.921 147.48 154.091 147.5Z" fill="#C4A72F"/>
<path d="M155.961 145.46C155.861 146.26 155.581 146.91 154.721 147.16C154.721 146.29 154.901 145.56 155.961 145.46Z" fill="#C4A72F"/>
<path d="M134.701 126.25C135.041 126.25 135.381 126.25 135.721 126.25C135.381 126.93 135.041 126.93 134.701 126.25Z" fill="#C4A72F"/>
<path d="M150.361 139.84C150.701 139.55 151.031 139.26 151.361 138.97C151.371 139.66 151.011 139.92 150.361 139.84Z" fill="#C4A72F"/>
<path d="M134.441 155.96C134.791 155.61 135.141 155.26 135.491 154.91C135.471 155.59 135.121 155.94 134.441 155.96Z" fill="#C4A72F"/>
<path d="M183.691 164.18C183.431 162.25 181.941 160.5 182.871 158.4C203.981 157.27 219.641 168.08 224.051 186.84C228.931 207.63 214.861 227.64 193.851 231.35C174.121 234.83 157.571 219.78 153.431 207.01C147.831 189.75 154.741 171.7 170.581 163.05C171.511 167.34 171.821 171.9 173.501 175.87C175.841 181.39 177.371 187.07 178.751 192.83C179.181 194.63 179.611 196.01 181.681 196.18C184.031 200.75 187.441 202.46 191.091 200.66C194.171 199.14 195.551 196.3 194.301 193.19C191.801 186.91 190.901 180.11 188.171 174.02C186.701 170.76 188.211 166 183.681 164.18H183.691Z" fill="white"/>
<path d="M181.691 196.18C179.621 196.01 179.191 194.63 178.761 192.83C177.381 187.07 175.851 181.39 173.511 175.87C171.831 171.9 171.521 167.35 170.591 163.05C170.861 162.86 171.161 162.73 171.481 162.65C174.611 172.71 177.751 182.76 180.861 192.83C181.201 193.93 181.411 195.06 181.681 196.18H181.691Z" fill="#F7A71E"/>
<path d="M116.251 90.8C116.311 89.98 116.571 89.11 116.391 88.35C115.071 82.95 115.041 83.01 120.891 83.07C125.881 83.13 130.861 83.06 135.851 83.05C133.311 86.28 129.361 85.2601 126.111 85.9301C122.601 86.6401 122.351 87.68 123.811 90.44C129.081 100.4 137.791 105.63 148.351 108.14C156.211 110.01 164.171 109.26 172.081 108.22C169.381 110.59 166.031 111.15 162.641 111.56C155.101 110.67 147.381 112.32 139.921 109.55C137.951 108.82 136.141 106.37 133.521 107.9C133.111 107.73 132.691 107.57 132.281 107.4C130.711 104.86 128.471 103.41 125.461 103.21C124.871 102.64 124.271 102.07 123.671 101.5C123.611 100.82 123.271 100.4 122.591 100.25L122.621 100.3C122.671 98.16 122.081 96.51 119.601 96.29V96.28C119.091 94.27 119.181 91.88 116.471 91.23C116.291 91.14 116.221 90.99 116.251 90.8Z" fill="#F48386"/>
<path d="M162.641 111.57C166.031 111.15 169.381 110.59 172.081 108.22C174.581 107.51 177.081 106.81 179.581 106.1C179.641 106.42 179.841 106.97 179.741 107.03C174.401 110.29 169.261 113.98 162.861 114.96C162.521 114.33 162.181 113.7 161.841 113.07C161.961 112.81 161.941 112.55 161.801 112.3C162.081 112.06 162.361 111.81 162.651 111.57H162.641Z" fill="white"/>
<path d="M161.791 112.31C161.931 112.56 161.951 112.82 161.831 113.08C151.991 113.15 142.061 114.16 132.681 109.95C131.711 109.38 130.741 108.81 129.771 108.25C129.771 107.92 129.771 107.59 129.801 107.26C130.621 107.31 131.451 107.36 132.271 107.41C132.681 107.58 133.101 107.74 133.511 107.91C134.561 109.35 136.211 109.62 137.761 110.18C145.591 113.03 153.741 111.99 161.781 112.31H161.791Z" fill="#C4A72F"/>
<path d="M132.281 107.4C131.461 107.35 130.631 107.3 129.811 107.25C128.271 106.01 126.321 105.19 125.461 103.21C128.471 103.41 130.711 104.86 132.281 107.4Z" fill="#FAAB55"/>
<path d="M119.601 96.3C122.091 96.52 122.681 98.1701 122.621 100.31C120.951 99.4701 119.741 98.29 119.601 96.3Z" fill="#FAAB55"/>
<path d="M116.481 91.24C119.191 91.89 119.101 94.28 119.611 96.29C117.581 95.22 116.881 93.32 116.481 91.24Z" fill="#FAAB55"/>
<path d="M122.591 100.26C123.261 100.4 123.611 100.83 123.671 101.51C123.311 101.1 122.951 100.68 122.591 100.26Z" fill="#FAAB55"/>
<path d="M113.631 89.23C114.001 89.54 114.371 89.85 114.751 90.16C114.121 90.16 113.701 89.91 113.631 89.23Z" fill="#F7A71E"/>
<path d="M183.691 164.18C188.221 166 186.721 170.76 188.181 174.02C190.911 180.1 191.801 186.91 194.311 193.19C195.551 196.3 194.181 199.14 191.101 200.66C187.451 202.46 184.051 200.75 181.691 196.18C182.171 196.3 182.721 196.31 183.111 196.56C185.391 198.02 187.611 200.97 190.471 198.56C193.031 196.4 191.981 192.93 191.231 190.22C189.121 182.59 186.621 175.07 184.181 167.53C183.811 166.4 183.511 165.34 183.691 164.17V164.18Z" fill="#F7A71E"/>
<path d="M104.721 205.16C104.971 205.51 105.221 205.87 105.471 206.22C105.341 206.3 105.221 206.39 105.091 206.47C104.961 206.03 104.841 205.6 104.711 205.16H104.721Z" fill="#4BA146"/>
<path d="M113.681 19.98C112.581 21.94 111.481 23.89 110.371 25.85C107.531 26.45 104.841 25.45 103.191 23.56C100.741 20.75 99.9613 22.05 99.0113 24.44C98.7813 24.79 98.5413 25.15 98.3113 25.5C96.3213 24.47 94.3313 23.45 92.3413 22.42C92.1613 21.76 91.9813 21.1 91.8113 20.44C92.8113 19.57 92.7613 18.59 91.5413 18.24C84.7113 16.23 84.8312 11.79 87.2812 6.46997C96.2612 10.63 105.461 14.35 113.671 19.98H113.681Z" fill="#F7A71E"/>
<path d="M78.9612 40.26C85.6412 40.42 91.5012 42.68 94.5212 48.88C97.8812 55.77 95.8712 59.21 87.8012 60.07C80.0712 60.89 74.5112 55.8 70.1712 50.06C67.1212 46.02 69.7212 41.29 74.9912 40.29C76.2712 40.05 77.6312 40.25 78.9612 40.25V40.26Z" fill="#F7A71E"/>
<path d="M92.3512 22.42C94.3412 23.45 96.3312 24.47 98.3212 25.5C97.5512 28.19 95.4912 27.42 94.0312 26.7C92.4812 25.94 90.8512 24.64 92.3512 22.42Z" fill="#E82626"/>
<path d="M56.6213 200.44C56.9813 200.42 57.3513 200.4 57.7113 200.39C57.3713 200.9 57.0013 200.8 56.6213 200.44Z" fill="#EDF1D2"/>
<path d="M89.8913 145.31C90.1913 145.27 90.4812 145.27 90.7812 145.33C90.6512 146.39 90.9312 147.65 89.4812 148.09C89.6212 147.17 89.7513 146.24 89.8913 145.32V145.31Z" fill="#509542"/>
<path d="M118.121 164.32C117.761 165.32 117.821 166.52 116.711 167.15C116.811 166.02 116.491 164.68 118.121 164.32Z" fill="#509542"/>
<path d="M90.8413 145.24C91.1313 144.87 91.4213 144.51 91.7113 144.14C92.7213 145.53 91.2613 144.98 90.8413 145.24Z" fill="#509542"/>
<path d="M84.8013 145.24C85.1213 144.9 85.4412 144.56 85.7612 144.23C89.6212 145.18 86.8112 148.39 87.8212 150.31C87.3512 152.23 86.8812 154.16 86.4212 156.08C84.1212 156.77 84.7212 158.72 84.7812 160.25C84.9612 164.88 84.0713 169.56 85.4913 174.14C86.1513 176.26 85.1312 177.29 82.9412 177.2C80.4512 171.87 76.9213 167.32 72.6513 163.32C73.1913 158.77 78.2212 156.87 79.0412 152.48C82.1912 151.05 83.4713 148.12 84.8113 145.25L84.8013 145.24Z" fill="white"/>
<path d="M161.791 112.31C153.751 111.99 145.601 113.03 137.771 110.18C136.221 109.61 134.571 109.35 133.521 107.91C136.151 106.39 137.961 108.83 139.921 109.56C147.381 112.34 155.101 110.68 162.641 111.57C162.361 111.82 162.071 112.06 161.791 112.31Z" fill="#FAAB55"/>
</svg>
