<svg width="40" height="41" viewBox="0 0 40 41" fill="none" xmlns="http://www.w3.org/2000/svg">
<g clip-path="url(#clip0_2_78)">
<path d="M20 40.554C31.0457 40.554 40 31.5997 40 20.554C40 9.50826 31.0457 0.553955 20 0.553955C8.9543 0.553955 0 9.50826 0 20.554C0 31.5997 8.9543 40.554 20 40.554Z" fill="#8C8C8C" fill-opacity="0.6"/>
<path fill-rule="evenodd" clip-rule="evenodd" d="M28.0238 19.8873C28.0238 24.4897 24.2929 28.2206 19.6905 28.2206C18.4302 28.2206 17.2353 27.9408 16.1644 27.4401L11 29.054L12.6698 24.3786C11.8389 23.0825 11.3572 21.5411 11.3572 19.8873C11.3572 15.2849 15.0881 11.554 19.6905 11.554C24.2929 11.554 28.0238 15.2849 28.0238 19.8873ZM18.322 16.534C18.3723 16.5873 18.4259 16.6441 18.4857 16.7067C18.8114 17.0325 18.8288 17.5659 18.5031 17.8916L17.9498 18.4491C17.2676 19.1442 20.6624 22.5312 21.3818 21.8295L21.935 21.2721C22.2608 20.9464 22.7943 20.929 23.12 21.2548C23.261 21.4023 23.3768 21.5161 23.4927 21.6298C23.6086 21.7435 23.7244 21.8572 23.8654 22.0048C24.1911 22.3306 24.3091 22.9996 23.9833 23.3253C21.2173 26.1124 13.6276 18.713 16.4613 15.8756C16.7872 15.5499 17.4146 15.6309 17.7403 15.9567C17.9918 16.1841 18.1347 16.3355 18.322 16.534Z" fill="white"/>
</g>
<defs>
<clipPath id="clip0_2_78">
<rect width="40" height="40" fill="white" transform="translate(0 0.553955)"/>
</clipPath>
</defs>
</svg>
