<svg width="40" height="41" viewBox="0 0 40 41" fill="none" xmlns="http://www.w3.org/2000/svg">
<g clip-path="url(#clip0_2_81)">
<path d="M20 40.554C31.0457 40.554 40 31.5997 40 20.554C40 9.50827 31.0457 0.553955 20 0.553955C8.95431 0.553955 0 9.50827 0 20.554C0 31.5997 8.95431 40.554 20 40.554Z" fill="#8C8C8C" fill-opacity="0.6"/>
<path fill-rule="evenodd" clip-rule="evenodd" d="M23.5206 12.554H16.391C13.9698 12.554 12 14.5239 12 16.9451V24.0747C12 26.4959 13.9698 28.4657 16.391 28.4657H23.5206C25.9419 28.4657 27.9117 26.4958 27.9117 24.0747V16.9451C27.9117 14.5239 25.9419 12.554 23.5206 12.554ZM19.9558 16.41C17.695 16.41 15.8557 18.2492 15.8557 20.51C15.8557 22.7707 17.695 24.6099 19.9558 24.6099C22.2166 24.6099 24.0558 22.7707 24.0558 20.51C24.0558 18.2492 22.2166 16.41 19.9558 16.41ZM19.9558 23.198C18.4735 23.198 17.2675 21.9922 17.2675 20.5099C17.2675 19.0276 18.4734 17.8216 19.9558 17.8216C21.4381 17.8216 22.644 19.0276 22.644 20.5099C22.644 21.9922 21.438 23.198 19.9558 23.198ZM23.7936 14.8467C23.9792 14.6604 24.2373 14.554 24.5 14.554C24.7636 14.554 25.0218 14.6604 25.2073 14.8467C25.3936 15.0322 25.5 15.2904 25.5 15.554C25.5 15.8167 25.3936 16.0749 25.2073 16.2613C25.0209 16.4467 24.7636 16.554 24.5 16.554C24.2373 16.554 23.9791 16.4467 23.7936 16.2613C23.6073 16.0749 23.5 15.8168 23.5 15.554C23.5 15.2904 23.6072 15.0322 23.7936 14.8467Z" fill="white"/>
</g>
<defs>
<clipPath id="clip0_2_81">
<rect width="40" height="40" fill="white" transform="translate(0 0.553955)"/>
</clipPath>
</defs>
</svg>
