<svg width="207" height="207" viewBox="0 0 207 207" fill="none" xmlns="http://www.w3.org/2000/svg">
<path d="M137.279 167.25L137.249 167.24C137.259 167.24 137.269 167.25 137.279 167.25Z" fill="#509542"/>
<path d="M141.549 100.81C141.089 100.62 140.649 100.4 140.239 100.15C140.649 100.39 141.089 100.61 141.549 100.81Z" fill="#4BA146"/>
<path d="M180.409 27.3398C183.029 24.9398 185.569 25.0698 188.059 27.5498C187.729 29.1398 186.609 29.5598 185.169 29.5098C184.919 28.7598 184.869 27.5798 183.749 27.9298C181.749 28.5498 181.139 30.2198 181.069 32.1998C180.639 43.6698 160.399 60.5498 149.819 59.6198C151.249 53.6198 152.359 47.5898 151.619 41.3798C157.639 40.0498 163.939 39.9498 169.629 37.1398C174.169 34.8898 179.139 33.1698 180.409 27.3498V27.3398Z" fill="#F69EA3"/>
<path d="M149.819 59.6098C160.399 60.5398 180.639 43.6598 181.069 32.1898C181.139 30.2098 181.749 28.5398 183.749 27.9198C184.869 27.5698 184.919 28.7598 185.169 29.4998V29.4798C183.869 30.0598 182.529 30.6198 183.839 32.3898C183.219 36.9498 182.339 41.4198 179.829 45.3898C179.579 45.7198 179.319 46.0498 179.069 46.3798C173.069 60.8398 161.779 68.1598 146.709 70.3798C147.749 66.7898 148.789 63.1898 149.819 59.5998V59.6098Z" fill="#F48386"/>
<path d="M61.3195 101.63C58.6495 98.8198 61.0095 96.2498 61.9995 93.8998C66.0995 84.1698 73.3495 76.9098 81.3095 70.2798C84.2095 71.2098 85.7895 73.4798 87.1495 75.9798C83.8695 78.5098 80.5895 81.0398 77.3095 83.5698C76.9495 83.9198 76.2295 84.6098 76.2295 84.6098L74.2495 86.5098L73.1795 87.5398C73.1795 87.5398 72.9295 88.0998 72.7495 88.3598C72.5095 88.5998 72.2795 88.8398 72.0395 89.0898C71.2795 89.8298 69.7595 91.2998 69.7595 91.2998L67.9995 93.1798C67.9995 93.1798 63.5495 98.8198 61.3195 101.64V101.63Z" fill="#F48386"/>
<path d="M126.179 26.3597C126.099 28.3797 126.009 30.3997 125.929 32.4197C125.559 33.0597 125.199 33.6897 124.829 34.3297C122.989 34.7897 121.149 36.1097 119.309 34.3297C119.309 33.7497 119.299 33.1597 119.289 32.5797C119.289 32.1897 119.279 31.8097 119.269 31.4197C120.609 29.8097 122.819 28.9097 123.199 26.5297H123.129C124.149 26.4697 125.159 26.4197 126.179 26.3697V26.3597Z" fill="#F69EA3"/>
<path fill-rule="evenodd" clip-rule="evenodd" d="M80.6295 67.4898L81.3195 70.2798C73.3595 76.9098 66.1095 84.1698 62.0095 93.8998C61.8157 94.3596 61.5696 94.8278 61.3189 95.3047C60.2885 97.2647 59.1819 99.3696 61.3294 101.63C61.2924 101.88 61.2507 102.13 61.2088 102.382C61.115 102.945 61.021 103.51 60.9795 104.07C60.9485 104.484 60.9631 104.937 60.9778 105.396C61.0345 107.161 61.0938 109.006 58.5695 109.03C55.8795 109.06 54.6994 106.34 54.5294 104.11C54.2609 100.52 54.2571 96.9101 54.2532 93.2979C54.2516 91.7985 54.25 90.2987 54.2295 88.7998C54.2195 87.9798 54.1994 87.1498 54.1794 86.3298C54.5044 84.5248 54.8269 82.7198 55.1494 80.9148C55.4719 79.1098 55.7944 77.3048 56.1194 75.4998C57.2167 73.468 58.102 71.3304 58.9873 69.1929C60.4418 65.681 61.8961 62.1696 64.2895 59.1298C64.6937 58.6179 65.07 58.0785 65.4463 57.5389C66.6434 55.8227 67.8421 54.1042 69.9495 53.2598C70.1892 52.8603 70.4289 52.4707 70.6686 52.0812L70.6695 52.0798C71.0995 52.0998 71.532 52.1173 71.9645 52.1348C72.397 52.1523 72.8295 52.1698 73.2595 52.1898C73.2595 52.1898 73.3594 52.2898 73.3594 52.2998C73.0794 54.4798 74.5195 55.5198 76.0995 56.4598C76.2545 56.7848 76.407 57.1098 76.5594 57.4348C76.7119 57.7598 76.8644 58.0848 77.0194 58.4098C76.3304 59.326 76.8503 59.431 77.37 59.5359C77.5593 59.5741 77.7486 59.6123 77.8795 59.6898C77.8995 59.9498 77.9594 60.2098 78.0594 60.4498C77.9094 61.9398 78.0994 63.2498 79.8294 63.7298L79.8299 63.7308C80.2397 64.6405 80.6496 65.5501 81.0594 66.4498C80.9894 66.6248 80.9169 66.7973 80.8445 66.9698C80.772 67.1423 80.6995 67.3148 80.6295 67.4898Z" fill="#F48386"/>
<path d="M118.259 28.2397C116.419 25.4597 117.369 23.4297 120.039 21.9697C122.769 20.4797 124.299 21.9397 125.349 24.3397C124.609 25.0597 123.869 25.7897 123.129 26.5097H123.199C121.269 26.2597 119.849 27.5097 118.259 28.2297V28.2397Z" fill="#EE2E3A"/>
<path d="M188.769 203.54C187.639 203.23 187.559 202.16 187.089 201.39C188.339 201.54 189.359 201.89 188.769 203.54Z" fill="#509542"/>
<path d="M194.549 205.8C185.979 208.01 153.255 194 140.009 173.43C139.249 172.94 124.909 141.54 123.839 140.48C123.869 139.91 123.619 139.63 123.029 139.73C122.589 139.32 122.159 138.9 121.719 138.49C121.499 138.28 121.269 138.07 121.049 137.86C120.389 137.38 119.739 136.9 119.089 136.42C118.749 136.1 118.409 135.78 118.069 135.45H118.049C117.719 135.12 117.389 134.81 117.059 134.49L117.019 134.45C116.699 134.13 116.379 133.81 116.069 133.49L116.019 133.45C112.639 132.22 106.279 137.35 104.939 137.35C100.639 139.99 96.3395 142.64 92.0395 145.28C84.7551 148 68.1095 151.02 68.0295 151.03C59.7551 152.064 57.2551 151.5 47.0794 153.35C46.4294 153.43 25.8194 156.78 25.5494 156.82C18.9394 157.75 2.01944 169.14 1.35944 168.71C-0.610558 167.45 2.10947 155.13 3.16947 151.65C4.22947 148.17 8.25507 135.5 18.1695 127.73C23.6395 124.1 29.2695 120.86 35.6695 119.12C37.2695 118.68 42.9195 117.32 43.9195 117.14C50.0595 116.01 88.0895 88.4997 89.2495 84.3597C96.5795 85.1397 128.659 87.5097 130.999 87.1997C131.959 87.6597 132.689 88.3197 132.959 89.3897C132.969 89.3897 133.119 89.5797 133.119 89.5797C134.479 92.7597 161.099 132.29 161.239 137.17C161.239 137.17 167.413 147.5 170.255 155C170.615 155.95 171.255 157.5 171.255 157.5C172.255 160 172.529 160.74 173.229 162.41C175.439 167.75 191.409 201.33 194.549 205.8Z" fill="#EE2E3A"/>
<path d="M118.259 28.2398C119.859 27.5198 121.269 26.2698 123.199 26.5198C122.819 28.8998 120.609 29.7998 119.269 31.4098C118.589 30.4598 117.619 29.6098 118.259 28.2398Z" fill="#3E4449"/>
<path d="M123.129 26.5097C123.869 25.7897 124.609 25.0597 125.349 24.3397C127.309 24.3297 126.929 25.2697 126.179 26.3597C125.159 26.4097 124.149 26.4597 123.129 26.5097Z" fill="#3E4449"/>
<path d="M183.839 32.3897C182.529 30.6197 183.869 30.0597 185.169 29.4797C185.029 30.5897 184.939 31.7197 183.839 32.3897Z" fill="#F69EA3"/>
<path d="M179.069 46.3898C179.319 46.0598 179.579 45.7298 179.829 45.3998C179.569 45.7298 179.319 46.0598 179.069 46.3898Z" fill="#F69EA3"/>
<path d="M124.829 34.3198C125.529 34.6698 126.229 35.0098 126.929 35.3598C124.099 37.3298 121.599 39.0598 117.749 36.5898C115.179 34.9398 111.279 37.4298 108.299 35.3198C111.859 33.7498 115.659 34.9298 119.299 34.3098C121.139 36.0998 122.979 34.7698 124.819 34.3098L124.829 34.3198Z" fill="#FAAB55"/>
<path fill-rule="evenodd" clip-rule="evenodd" d="M148.526 64.0953L148.527 64.0926C148.957 62.5996 149.387 61.1056 149.819 59.6098C151.249 53.6198 152.359 47.5898 151.619 41.3698C150.889 40.8183 146.204 39.3723 141.022 37.7729C134.365 35.7179 126.887 33.4095 125.919 32.4198C125.559 33.0498 125.189 33.6898 124.819 34.3198C125.519 34.6698 126.219 35.0198 126.919 35.3598C126.783 35.4582 126.647 35.5509 126.506 35.6466L126.506 35.6467C126.461 35.6773 126.416 35.7083 126.369 35.7398C123.759 37.5398 121.339 38.8998 117.749 36.5998C115.244 34.9974 115.634 34.9323 118.992 34.3712L119.299 34.3198C119.294 34.0261 119.292 33.7348 119.289 33.4448C119.287 33.1523 119.284 32.861 119.279 32.5698C118.328 32.5607 117.376 32.5424 116.425 32.5242C114.236 32.4821 112.048 32.4401 109.859 32.5098C107.299 32.5898 92.2994 37.5798 91.9294 37.7598C91.7394 37.5498 87.4695 38.8898 87.1995 39.1998L83.2394 40.5198C79.0565 40.6705 75.9756 42.9798 72.905 45.2813C71.9014 46.0335 70.8989 46.7849 69.8594 47.4598C69.0394 47.9898 70.1194 51.2698 70.6594 52.0898C71.5194 52.1198 78.2551 63.0001 78.2551 63.0001C78.2551 63.0001 80.1151 63.9263 80.2551 66.0001C80.2368 65.9864 80.35 66.2 80.4735 66.4334L80.4735 66.4334L80.4736 66.4336C80.6206 66.7111 80.7822 67.0164 80.7551 67.0001C80.6861 67.1725 80.6886 67.2089 80.6909 67.2434C80.6933 67.2789 80.6955 67.3122 80.6194 67.4898L81.3094 70.2798C82.1694 70.5598 82.9194 70.9598 83.5794 71.4398C86.2194 76.8798 89.2494 83.3598 89.2494 84.3598C92.1365 84.667 94.9692 85.3248 97.8014 85.9825C102.16 86.9946 106.517 88.0065 111.069 87.7398C111.875 87.6988 112.681 87.6424 113.487 87.5861H113.488C117.003 87.3404 120.516 87.0948 123.989 88.1198C125.226 87.9553 126.465 87.7936 127.705 87.6318C128.803 87.4886 129.901 87.3453 130.999 87.1998C131.007 86.2536 131.019 85.3068 131.03 84.3596V84.3595V84.3594V84.3591C131.062 81.7026 131.094 79.0435 131.049 76.3898C130.989 72.3198 132.709 71.5298 136.079 73.4898C136.759 73.5598 137.439 73.6398 138.119 73.7198C140.735 74.6159 145.281 71.3982 146.469 70.5579L146.469 70.5579C146.58 70.4793 146.662 70.4215 146.709 70.3898C147.317 68.2923 147.921 66.1948 148.526 64.0953Z" fill="#FAAB55"/>
<path d="M74.2595 86.5098C73.8995 86.8498 73.5395 87.1998 73.1895 87.5398C73.5495 87.1998 73.9095 86.8498 74.2595 86.5098Z" fill="#F69EA3"/>
<path d="M203.999 27.4398C198.689 27.4898 193.369 27.5198 188.049 27.5498C185.569 25.0698 183.019 24.9398 180.409 27.3398C174.929 27.3798 169.449 27.4298 163.959 27.4398C161.379 27.4498 160.109 26.8998 160.829 23.5898C163.049 13.3698 168.519 7.12976 178.559 2.86976C179.769 2.35976 180.879 2.04976 181.919 1.87976V0.379761H185.159V1.84976C188.149 2.24976 190.669 3.75976 193.459 4.78976C202.639 8.19976 205.859 16.0698 206.879 25.1398C207.149 27.4598 205.529 27.4198 203.999 27.4398Z" fill="#CFD4DA"/>
</svg>
