<svg width="102" height="201" viewBox="0 0 102 201" fill="none" xmlns="http://www.w3.org/2000/svg">
<path d="M48.469 16.5996C46.189 15.2796 45.839 13.6396 47.659 11.6496C49.439 10.0196 52.919 9.81964 53.099 11.1196C53.399 13.2396 58.379 12.3796 55.579 15.5496C52.799 13.1796 50.909 16.7796 48.459 16.6096L48.469 16.5996Z" fill="#EE2E3A"/>
<path d="M48.469 16.5997C50.919 16.7697 52.809 13.1697 55.589 15.5397C55.569 16.5197 55.549 17.4897 55.539 18.4697C55.029 19.7997 52.159 19.0897 52.909 21.5097C51.779 22.8497 50.689 22.0697 49.599 21.4397C49.229 19.8297 48.849 18.2097 48.479 16.5997H48.469Z" fill="#F69EA3"/>
<path d="M48.2077 16.8719C46.3677 14.0919 47.3177 12.0619 49.9877 10.6019C52.7177 9.11189 54.2477 10.5719 55.2977 12.9719C54.5577 13.6919 53.8177 14.4219 53.0777 15.1419H53.1477C51.2177 14.8919 49.7977 16.1419 48.2077 16.8619V16.8719Z" fill="#EE2E3A"/>
<path d="M48.2077 16.8719C49.8077 16.1519 51.2177 14.9019 53.1477 15.1519C52.7677 17.5319 50.5577 18.4319 49.2177 20.0419C48.5377 19.0919 47.5677 18.2419 48.2077 16.8719Z" fill="#3E4449"/>
<path d="M53.0777 15.1419C53.8177 14.4219 54.5577 13.6919 55.2977 12.9719C57.2577 12.9619 56.8777 13.9019 56.1277 14.9919C55.1077 15.0419 54.0977 15.0919 53.0777 15.1419Z" fill="#3E4449"/>
<path d="M23.599 19.3696C23.829 18.8296 24.139 18.7696 24.519 19.2296L24.079 19.4196L23.599 19.3696Z" fill="#E9DEB3"/>
<path d="M89.8491 200.13C89.5391 200.57 72.4991 181.51 71.6591 179.4C71.4891 179.06 52.6091 137.94 52.6091 133.34C52.6091 133.11 52.3991 150.81 44.6791 166.13C35.9791 183.4 19.5991 198.54 18.6291 198.35L18.5791 198.3C18.5191 198 18.5291 197.7 18.5991 197.4C18.6091 196.99 18.6191 196.58 18.6291 196.17C18.2091 195.59 7.46905 153.84 17.6591 119.73C17.9591 118.73 23.5691 89.0997 23.6991 88.4597C23.6491 88.1197 24.1891 83.5797 23.5991 81.6497C24.2291 81.6997 24.8591 81.7597 25.4791 81.8097C32.4791 80.6397 37.7891 76.6797 42.4391 71.5997C43.1891 71.8497 46.5491 67.3997 49.7291 67.6297C51.5091 67.7697 54.8291 69.7797 56.7091 69.2497L56.6091 69.2897C57.0391 69.6397 57.4691 69.9797 57.8991 70.3197C58.1691 70.6597 58.4391 70.9997 58.7091 71.3297C64.6791 77.4397 71.9491 80.4897 80.4791 80.5997C81.1491 80.5697 81.8291 80.5397 82.4991 80.5197C82.3291 81.4697 90.6391 109.48 92.5491 137.42C94.6591 168.3 90.3791 199.37 89.8491 200.13Z" fill="#EE2E3A"/>
<path d="M81.559 58.6096C81.199 59.1897 80.839 59.7696 80.469 60.3496C79.839 60.4996 79.199 60.6496 78.559 60.7996C70.809 62.1296 63.129 62.0896 55.589 59.5496C57.809 55.3296 60.369 51.1396 56.809 46.3796C56.789 39.9496 55.969 33.4896 57.279 27.0996C57.779 24.6196 56.759 24.0896 54.559 24.7796C53.629 25.0696 52.449 25.6096 51.699 25.2896C45.829 22.7996 46.459 26.9496 46.339 30.3796C45.209 35.6396 44.069 40.7696 48.149 45.5596C50.679 48.5196 50.039 56.8496 47.599 59.4496C47.469 58.7296 47.329 58.0096 47.199 57.2896C47.849 55.5496 46.869 53.9196 46.869 52.2296C47.479 50.7496 48.309 49.2596 46.379 47.4296C45.319 50.8896 41.119 51.6596 40.609 55.4196L40.539 55.4896C38.689 55.5196 37.699 56.5096 37.409 58.2796C37.099 58.2996 36.799 58.3696 36.519 58.4996C34.589 59.0196 32.329 58.8896 31.279 61.1596C30.009 61.0996 28.739 61.0496 27.469 60.9896C28.119 59.0096 29.719 57.5296 29.659 55.0996C29.419 43.3496 29.419 31.5996 29.339 19.8496C31.819 18.9896 34.769 20.4896 36.989 18.3396C39.339 19.5496 41.859 19.4996 44.389 19.3996C46.229 19.8096 47.179 22.4896 49.589 21.4396C50.679 22.0696 51.769 22.8496 52.899 21.5196C55.199 21.6296 57.629 21.9296 57.459 18.4096L57.509 18.3496C60.419 17.0996 64.039 18.0696 66.519 15.4696C69.559 15.7696 72.579 11.0296 75.649 15.4196C75.979 17.4796 76.319 19.5396 76.649 21.5996C77.259 24.1196 77.229 27.0696 80.699 27.6896C80.619 36.1196 80.509 44.5396 80.499 52.9696C80.499 54.8796 79.879 56.9796 81.559 58.6096Z" fill="#FAAB55"/>
<path d="M99.649 66.4697C98.299 66.1196 99.039 63.7197 97.329 63.8697C96.429 65.1997 95.699 66.4897 94.789 67.6197C88.199 75.8297 76.159 76.4597 67.189 72.6597C63.569 71.1297 60.799 68.0497 56.799 67.3597C56.709 66.6997 56.619 66.0297 56.519 65.3697C57.779 62.9097 59.349 62.6197 62.309 62.9097C67.719 63.4197 73.689 65.4397 78.559 60.7997C79.199 60.6497 79.839 60.4997 80.469 60.3497C82.619 60.5597 84.249 59.9897 84.609 57.5497L84.669 57.5097C89.799 56.1697 90.009 49.8697 94.449 47.8197C92.709 47.1297 91.319 48.4597 89.739 48.6297C89.719 47.8697 89.709 47.1097 89.689 46.3597C92.459 45.0297 97.599 47.7597 97.599 41.7197C97.929 41.6397 101.259 49.5597 101.429 50.8397C102.129 56.1797 101.169 61.3596 99.649 66.4697Z" fill="#F69EA3"/>
<path d="M1.37903 65.6397C1.51903 64.5097 1.65903 63.3797 1.94903 61.0997C5.66903 70.3497 12.389 73.7597 20.829 74.4097C32.609 75.3197 39.869 68.7197 45.369 59.3697C45.879 58.4997 46.119 57.5697 47.209 57.2797C47.339 57.9997 47.479 58.7197 47.609 59.4397C47.559 64.1997 44.219 67.5697 42.449 71.5997C37.809 76.6697 32.489 80.6397 25.499 81.7997C24.869 81.7497 24.239 81.6897 23.609 81.6397C20.249 81.0597 16.869 81.4397 13.449 80.0897C6.59903 77.3797 3.00903 72.4497 1.37903 65.6397Z" fill="#F48386"/>
<path d="M80.479 80.5997C71.959 80.4897 64.689 77.4396 58.719 71.3296C58.449 70.9896 58.179 70.6497 57.909 70.3197C57.479 69.9797 57.049 69.6297 56.609 69.2897L56.709 69.2497C56.739 68.6197 56.769 67.9897 56.799 67.3597C60.799 68.0497 63.569 71.1296 67.189 72.6596C76.159 76.4596 88.199 75.8297 94.789 67.6197C95.699 66.4797 96.429 65.1997 97.329 63.8697C99.039 63.7197 98.299 66.1197 99.649 66.4597C96.569 74.3597 89.839 77.7997 82.499 80.5097C81.829 80.5397 81.149 80.5697 80.479 80.5897V80.5997Z" fill="#F48386"/>
<path d="M15.569 20.4496C15.889 20.0296 16.209 19.6196 16.529 19.1996C18.889 19.2596 21.239 19.3096 23.599 19.3696L24.079 19.4196L24.519 19.2296C24.659 19.4096 24.669 19.5996 24.549 19.7996C19.339 21.8296 16.609 25.4096 17.009 31.2196C17.079 32.2196 16.059 33.2996 15.549 34.3496C14.679 34.3596 13.809 34.3696 12.939 34.3796C12.839 34.0796 12.749 33.7796 12.659 33.4696C13.329 32.8596 13.989 32.2596 14.649 31.6496C16.689 28.0596 15.379 24.1996 15.569 20.4596V20.4496Z" fill="#FAAB55"/>
<path d="M56.369 156.44C56.119 156.03 55.859 155.62 55.609 155.21C56.199 155.41 56.639 155.71 56.369 156.44Z" fill="#EE2E3A"/>
<path d="M18.629 198.35C18.479 198.48 18.329 198.61 18.169 198.75C18.309 198.6 18.449 198.45 18.579 198.3L18.629 198.35Z" fill="#EE2E3A"/>
<path d="M26.569 19.2396C27.499 19.4396 28.419 19.6496 29.349 19.8496C29.429 31.5996 29.429 43.3496 29.669 55.0996C29.719 57.5296 28.129 59.0096 27.469 60.9996C23.299 60.3596 18.529 61.8996 15.309 57.7196C15.389 49.9296 15.469 42.1396 15.539 34.3496C16.059 33.3096 17.069 32.2296 16.999 31.2196C16.599 25.4096 19.339 21.8296 24.539 19.7996C25.209 19.6096 25.879 19.4296 26.549 19.2396H26.569Z" fill="#F7A71E"/>
<path d="M56.799 67.3596C56.769 67.9897 56.739 68.6196 56.709 69.2496C54.829 69.7796 53.229 68.5396 51.449 68.4096C48.269 68.1796 45.569 68.6796 44.679 72.3496C43.929 72.0996 43.189 71.8496 42.439 71.5996C44.209 67.5696 47.559 64.2096 47.599 59.4396C50.039 56.8396 50.679 48.5196 48.149 45.5496C44.069 40.7696 45.209 35.6296 46.339 30.3796C48.009 31.9896 47.819 34.2996 48.599 36.2196C50.289 40.3496 51.299 45.2496 56.799 46.3796C60.359 51.1396 57.809 55.3296 55.579 59.5496C55.679 61.5196 54.789 63.6497 56.509 65.3596C56.599 66.0296 56.699 66.6897 56.789 67.3596H56.799Z" fill="#F7A71E"/>
<path d="M89.699 46.3496C89.709 47.1096 89.729 47.8596 89.739 48.6196C88.049 51.5796 86.359 54.5396 84.679 57.4996L84.619 57.5496C83.369 57.2296 82.529 58.1096 81.569 58.5996C79.889 56.9696 80.509 54.8696 80.509 52.9596C80.509 44.5296 80.629 36.1096 80.699 27.6796C85.019 26.7296 88.759 26.8796 89.739 32.3596C89.719 37.0196 89.709 41.6796 89.699 46.3396V46.3496Z" fill="#F7A71E"/>
<path d="M56.809 46.3797C51.309 45.2497 50.299 40.3497 48.609 36.2197C47.829 34.3097 48.019 31.9897 46.349 30.3797C46.469 26.9497 44.229 19.2397 50.099 21.7297C50.849 22.0497 51.979 21.8097 52.909 21.5097C55.109 20.8197 58.339 22.8397 57.829 25.3197C56.519 31.7197 56.799 39.9397 56.809 46.3697V46.3797Z" fill="#FFD104"/>
<path d="M56.529 65.3597C54.809 63.6497 55.699 61.5197 55.599 59.5497C63.139 62.0897 70.819 62.1297 78.569 60.7997C73.699 65.4397 67.729 63.4197 62.319 62.9097C59.359 62.6297 57.789 62.9097 56.529 65.3697V65.3597Z" fill="#F48386"/>
<path d="M47.199 57.2897C46.109 57.5797 45.869 58.5097 45.359 59.3797C39.859 68.7197 32.599 75.3197 20.819 74.4097C12.379 73.7597 5.65903 70.3497 1.93903 61.0997C1.65903 63.3897 1.51903 64.5197 1.36903 65.6397C-2.17097 61.4397 3.80903 46.2797 4.35903 45.6597C4.28903 47.7497 4.74903 49.3797 7.20903 49.9197C8.41903 50.1897 9.66903 50.9297 9.34903 52.6497C11.249 54.4397 12.179 57.3697 15.309 57.7097C18.529 61.8897 23.289 60.3497 27.469 60.9897C28.739 61.0497 45.319 50.8897 46.379 47.4297C48.309 49.2597 47.849 55.5497 47.199 57.2897Z" fill="#F48386"/>
<path d="M81.559 58.6096C82.529 58.1096 83.359 57.2296 84.609 57.5596C84.249 59.9996 82.619 60.5596 80.469 60.3596C80.829 59.7796 81.189 59.1996 81.559 58.6196V58.6096Z" fill="#F48386"/>
<path d="M84.679 57.5096C86.369 54.5496 88.049 51.5896 89.739 48.6296C91.329 48.4696 92.719 47.1296 94.449 47.8196C90.009 49.8596 89.799 56.1696 84.669 57.5096H84.679Z" fill="#F48386"/>
<path d="M57.909 70.3197C57.479 69.9797 57.049 69.6297 56.609 69.2897C57.039 69.6297 57.469 69.9797 57.909 70.3197Z" fill="#F7A71E"/>
<path d="M89.699 46.3496C89.709 41.6896 89.729 37.0296 89.739 32.3696C93.109 34.8596 95.389 38.2596 97.609 41.7196C97.609 47.7596 92.459 45.0296 89.699 46.3596V46.3496Z" fill="#FFD104"/>
<path fill-rule="evenodd" clip-rule="evenodd" d="M15.549 34.3398L15.549 34.3397H15.539L12.929 34.3697C11.439 35.1997 10.249 36.3197 9.50902 37.8797C9.50891 37.8814 9.50879 37.8831 9.50868 37.8848C8.972 38.1531 8.4255 38.4214 7.87901 38.6896L7.87897 38.6898C7.78899 39.1698 7.699 39.6497 7.60901 40.1396C7.66137 40.1466 7.71223 40.1523 7.76164 40.1568C7.70911 40.1525 7.65491 40.1468 7.59902 40.1397C7.42902 40.1897 7.29902 40.2897 7.21902 40.4497C7.03902 40.6897 6.85902 40.9297 6.67902 41.1597C6.49185 41.8501 6.0227 42.3952 5.55291 42.9411C4.89319 43.7076 4.2322 44.4757 4.34902 45.6497C4.28902 47.7497 4.74902 49.3797 7.20902 49.9197C8.41902 50.1897 9.67902 50.9297 9.34902 52.6497C9.93561 53.1994 10.4288 53.8567 10.9216 54.5134C12.0335 55.9951 13.1434 57.4741 15.319 57.7097C15.389 49.9197 15.469 42.1298 15.549 34.3398Z" fill="#FFD104"/>
<path d="M7.22903 40.4496C7.04903 40.6896 6.86903 40.9296 6.68903 41.1596C6.86903 40.9196 7.04903 40.6796 7.22903 40.4496Z" fill="#FAAB55"/>
</svg>
