<svg width="40" height="41" viewBox="0 0 40 41" fill="none" xmlns="http://www.w3.org/2000/svg">
<g clip-path="url(#clip0_2_75)">
<path d="M20 40.554C31.0457 40.554 40 31.5997 40 20.554C40 9.50826 31.0457 0.553955 20 0.553955C8.9543 0.553955 0 9.50826 0 20.554C0 31.5997 8.9543 40.554 20 40.554Z" fill="#8C8C8C" fill-opacity="0.6"/>
<path d="M9.79407 19.1006L27.0381 12.3031C27.8385 12.0076 28.5375 12.5028 28.2781 13.7401L28.2796 13.7385L25.3435 27.8804C25.1259 28.883 24.5432 29.1269 23.7279 28.6545L19.2567 25.2855L17.1001 27.4096C16.8616 27.6534 16.6604 27.8591 16.1983 27.8591L16.5158 23.2071L24.8025 15.5533C25.1632 15.2288 24.722 15.0459 24.2466 15.3689L14.006 21.9606L9.59135 20.5528C8.63301 20.2419 8.61218 19.573 9.79407 19.1006Z" fill="white"/>
</g>
<defs>
<clipPath id="clip0_2_75">
<rect width="40" height="40" fill="white" transform="translate(0 0.553955)"/>
</clipPath>
</defs>
</svg>
